<svg width="1728" height="383" viewBox="0 0 1728 383" fill="none" xmlns="http://www.w3.org/2000/svg">
<path d="M1774 382.5C1774 338.31 1750.48 294.553 1704.77 253.727C1659.06 212.901 1592.07 175.805 1507.61 144.559C1423.16 113.312 1322.9 88.5252 1212.55 71.6145C1102.2 54.7038 983.937 46 864.5 46C745.063 46 626.795 54.7038 516.449 71.6145C406.104 88.5253 305.841 113.312 221.386 144.559C136.931 175.806 69.9382 212.901 24.2315 253.727C-21.4751 294.553 -45 338.31 -45 382.5" stroke="#EAEAEA"/>
<g clip-path="url(#clip0_901_6)">
<path d="M846.036 0.998047C839.542 36.2753 834.277 41.5398 799 48.0342C834.277 54.5287 839.542 59.7932 846.036 95.0704C852.531 59.7932 857.795 54.5287 893.073 48.0342C857.795 41.5398 852.53 36.2753 846.036 0.998047Z" fill="#DFF7FF"/>
<path d="M897.087 67.1758C892.957 89.6107 889.608 92.9591 867.174 97.0889C889.608 101.219 892.957 104.568 897.087 127.002C901.217 104.568 904.566 101.219 927 97.0889C904.565 92.9591 901.217 89.6107 897.087 67.1758Z" fill="#DFF7FF"/>
</g>
<g clip-path="url(#clip1_901_6)">
<path d="M286.036 67.998C279.542 103.275 274.277 108.54 239 115.034C274.277 121.529 279.542 126.793 286.036 162.07C292.531 126.793 297.795 121.529 333.073 115.034C297.795 108.54 292.53 103.275 286.036 67.998Z" fill="#DFFFE6"/>
<path d="M337.087 134.176C332.957 156.611 329.608 159.959 307.174 164.089C329.608 168.219 332.957 171.568 337.087 194.002C341.217 171.568 344.566 168.219 367 164.089C344.565 159.959 341.217 156.611 337.087 134.176Z" fill="#DFFFE6"/>
</g>
<g clip-path="url(#clip2_901_6)">
<path d="M1435.04 67.998C1428.54 103.275 1423.28 108.54 1388 115.034C1423.28 121.529 1428.54 126.793 1435.04 162.07C1441.53 126.793 1446.8 121.529 1482.07 115.034C1446.8 108.54 1441.53 103.275 1435.04 67.998Z" fill="#FFF0DF"/>
<path d="M1486.09 134.176C1481.96 156.611 1478.61 159.959 1456.17 164.089C1478.61 168.219 1481.96 171.568 1486.09 194.002C1490.22 171.568 1493.57 168.219 1516 164.089C1493.57 159.959 1490.22 156.611 1486.09 134.176Z" fill="#FFF0DF"/>
</g>
<defs>
<clipPath id="clip0_901_6">
<rect width="128" height="128" fill="white" transform="translate(799)"/>
</clipPath>
<clipPath id="clip1_901_6">
<rect width="128" height="128" fill="white" transform="translate(239 67)"/>
</clipPath>
<clipPath id="clip2_901_6">
<rect width="128" height="128" fill="white" transform="translate(1388 67)"/>
</clipPath>
</defs>
</svg>
