<svg width="64" height="64" viewBox="0 0 64 64" fill="none" xmlns="http://www.w3.org/2000/svg">
<g id="More" clip-path="url(#clip0_529_803)">
<g id="Group">
<g id="Group_2">
<path id="Vector" d="M16.444 16.4437C7.84612 25.0416 7.84533 38.9576 16.444 47.5563C25.042 56.1543 38.958 56.1551 47.5567 47.5563C56.1547 38.9584 56.1555 25.0424 47.5567 16.4437C38.9588 7.84573 25.0428 7.84494 16.444 16.4437ZM45.4826 45.4822C38.0485 52.9162 25.9523 52.9163 18.5182 45.4822C11.0841 38.0481 11.0842 25.9519 18.5182 18.5178C25.9523 11.0838 38.0485 11.0838 45.4826 18.5178C52.9166 25.9519 52.9166 38.0481 45.4826 45.4822Z" fill="#F9B233"/>
</g>
</g>
<g id="Group_3">
<g id="Group_4">
<path id="Vector_2" d="M37.9728 23.9537L32.0008 29.9258L26.0287 23.9537C25.456 23.381 24.5273 23.3809 23.9545 23.9537C23.3817 24.5265 23.3817 25.4552 23.9545 26.0279L29.9265 32L23.9545 37.9721C23.3818 38.5448 23.3817 39.4735 23.9545 40.0463C24.5273 40.6191 25.4559 40.6191 26.0287 40.0463L32.0008 34.0742L37.9728 40.0463C38.5455 40.619 39.4742 40.6191 40.047 40.0463C40.6198 39.4735 40.6198 38.5448 40.047 37.9721L34.075 32L40.047 26.0279C40.6198 25.4552 40.6198 24.5265 40.047 23.9537C39.4742 23.3809 38.5455 23.381 37.9728 23.9537Z" fill="#F9B233"/>
</g>
</g>
</g>
<defs>
<clipPath id="clip0_529_803">
<rect width="44" height="44" fill="white" transform="translate(0.887695 32) rotate(-45)"/>
</clipPath>
</defs>
</svg>
