<svg width="44" height="44" viewBox="0 0 44 44" fill="none" xmlns="http://www.w3.org/2000/svg">
<g id="More" clip-path="url(#clip0_529_813)">
<g id="Group">
<g id="Group_2">
<path id="Vector" d="M22 0C9.8407 0 0 9.83959 0 22C0 34.1593 9.83959 44 22 44C34.1593 44 44 34.1604 44 22C44 9.8407 34.1604 0 22 0ZM22 41.0667C11.4867 41.0667 2.9333 32.5134 2.9333 22C2.9333 11.4866 11.4867 2.9333 22 2.9333C32.5133 2.9333 41.0667 11.4867 41.0667 22C41.0667 32.5133 32.5133 41.0667 22 41.0667Z" fill="#F9B233"/>
</g>
</g>
<g id="Group_3">
<g id="Group_4">
<path id="Vector_2" d="M31.9127 20.5336H23.4669V12.0878C23.4669 11.2778 22.8103 10.6211 22.0002 10.6211C21.1902 10.6211 20.5336 11.2777 20.5336 12.0878V20.5336H12.0878C11.2778 20.5336 10.6211 21.1902 10.6211 22.0002C10.6211 22.8103 11.2777 23.4669 12.0878 23.4669H20.5336V31.9127C20.5336 32.7227 21.1902 33.3794 22.0002 33.3794C22.8103 33.3794 23.4669 32.7228 23.4669 31.9127V23.4669H31.9127C32.7227 23.4669 33.3794 22.8103 33.3794 22.0002C33.3794 21.1902 32.7227 20.5336 31.9127 20.5336Z" fill="#F9B233"/>
</g>
</g>
</g>
<defs>
<clipPath id="clip0_529_813">
<rect width="44" height="44" fill="white"/>
</clipPath>
</defs>
</svg>
