<?xml version="1.0" encoding="utf-8"?>
<!-- Generator: Adobe Illustrator 26.3.1, SVG Export Plug-In . SVG Version: 6.00 Build 0)  -->
<svg version="1.1" id="_x2014_ÎÓÈ_x5F_1" xmlns="http://www.w3.org/2000/svg" xmlns:xlink="http://www.w3.org/1999/xlink"
	 x="0px" y="0px" viewBox="0 0 8000 2500" style="enable-background:new 0 0 8000 2500;" xml:space="preserve">
<style type="text/css">
	.st0{fill:#FFFFFF;}
</style>
<path class="st0" d="M2167.94,1471.18c-7,0-14-0.2-20.99,0.08c-3.77,0.15-5.8-0.95-7.7-4.48c-12.99-24.17-40.35-38.24-66.78-34.76
	c-28.61,3.77-51.22,23.84-57.88,51.39c-7.93,32.8,9.55,66.19,41.17,78.61c31.25,12.28,66.63-0.25,83.07-29.73
	c2.17-3.89,4.37-5.33,8.81-5.23c14.16,0.31,28.33,0.21,42.49,0.05c3.43-0.04,4.61,0.41,3.61,4.31
	c-13.67,53.64-63.84,89.67-119.15,85.7c-36.22-2.61-66.64-16.52-89.23-45.46c-17.8-22.8-24.3-49.33-23.19-77.79
	c1.29-32.92,13.08-61.32,38.27-83.3c51.02-44.52,137.44-39.72,177.21,20.67c7.29,11.07,12.37,23.12,16.09,35.82
	c1.01,3.46,0.1,4.27-3.29,4.18C2182.94,1471.05,2175.44,1471.18,2167.94,1471.18z"/>
<path class="st0" d="M2434.47,1429.99c-14.46-20.51-33.46-35.27-57.38-42.9c-36.61-11.68-71.51-7.32-104.57,13.82
	c0-2.7,0-4.53,0-6.35c0-39.98-0.06-79.97,0.09-119.95c0.01-3.89-0.95-5.08-4.94-5c-12.99,0.26-25.99,0.19-38.98,0.03
	c-3.18-0.04-4.23,0.76-4.23,4.11c0.09,109.96,0.09,219.91-0.01,329.87c0,3.74,1.35,4.3,4.61,4.24c10.83-0.18,21.66,0,32.49-0.11
	c3.61-0.04,8.08,1.53,10.58-0.77c2.11-1.94,0.39-6.32,0.7-9.61c0.03-0.28,0.26-0.54,0.62-1.26c25.85,16.45,53.91,22.97,84.28,17.99
	c30.64-5.02,55.39-20.14,74.53-44.42C2463.8,1529.69,2464.66,1472.8,2434.47,1429.99z M2340.64,1567.89
	c-37.29-0.02-67.18-30.06-67.09-67.4c0.1-39.5,28.08-67.3,67.5-67.07c39.3,0.23,67.03,28.08,66.91,67.2
	C2407.85,1537.99,2377.9,1567.92,2340.64,1567.89z"/>
</svg>
