<svg xmlns="http://www.w3.org/2000/svg" xmlns:xlink="http://www.w3.org/1999/xlink" width="148.177" height="47.09" viewBox="0 0 148.177 47.09">
  <defs>
    <clipPath id="clip-path">
      <rect id="Rectangle_8" data-name="Rectangle 8" width="148.177" height="47.09" fill="none"/>
    </clipPath>
  </defs>
  <g id="Group_6" data-name="Group 6" clip-path="url(#clip-path)">
    <path id="Path_12" data-name="Path 12" d="M24.589,5.094l6.183,3.485a12.345,12.345,0,0,1,.221,21.382l-6.109,3.612-6.109,3.612A12.345,12.345,0,0,1,.147,26.686l-.074-7.1L0,12.492A12.345,12.345,0,0,1,18.406,1.609Z" transform="translate(0 0)" fill="#ff0090"/>
    <path id="Path_13" data-name="Path 13" d="M21.038,33.827l-6.183-3.485a12.345,12.345,0,0,1-.221-21.382l6.109-3.612,6.109-3.612a12.345,12.345,0,0,1,18.628,10.5l.074,7.1.074,7.1A12.345,12.345,0,0,1,27.221,37.312Z" transform="translate(-6.811 0)" fill="#00abd2"/>
    <path id="Path_14" data-name="Path 14" d="M37.583,16.871,31.4,13.386l-5.236-2.951-5.422,3.206-6.109,3.612a12.345,12.345,0,0,0,.222,21.381l6.183,3.485,5.236,2.951L31.7,41.864,37.8,38.253a12.345,12.345,0,0,0-.221-21.382" transform="translate(-6.811 -8.292)" fill="#001b4a"/>
    <path id="Path_15" data-name="Path 15" d="M70.961,60.21l-.008.01a8.21,8.21,0,0,0,.075-1.063h0l-.024,0v-.005a8.172,8.172,0,0,0-.352-2.377l.02,0a8.19,8.19,0,0,0-6.986-5.747l-.035,0q-.182-.018-.366-.028l-.046,0c-.131-.006-.263-.01-.4-.01h-.012a8.173,8.173,0,0,0-8.027,6.64l0,.009q-.036.191-.063.384c0,.021-.005.043-.008.064-.015.111-.028.222-.038.334,0,.04-.006.081-.009.121-.007.094-.014.187-.017.282,0,.059,0,.119,0,.179s0,.106,0,.159c0,.023,0,.046,0,.069s0,.048,0,.073l0,0h0a8.155,8.155,0,0,0,.394,2.376h0a8,8,0,0,0,.418,1.021c1.959,4.844,6.658,7.838,7.327,8.244l.046.048.017-.01.017.01-.011-.014c.224-.131,5.551-3.315,7.516-8.638a8.124,8.124,0,0,0,.562-2.058c0-.023.011-.045.015-.069" transform="translate(-43.436 -40.514)" fill="#fff"/>
    <path id="Path_16" data-name="Path 16" d="M86.337,79.971a2.85,2.85,0,1,1-2.85-2.85,2.85,2.85,0,0,1,2.85,2.85" transform="translate(-64.079 -61.285)" fill="#001b4a"/>
    <path id="Path_17" data-name="Path 17" d="M251.87,34.655a2.555,2.555,0,0,0-2.555-2.555H234.027a12.92,12.92,0,0,0,0,25.841h15.288a2.555,2.555,0,0,0,0-5.11H234.027a7.81,7.81,0,1,1,0-15.62h15.288a2.555,2.555,0,0,0,2.555-2.555" transform="translate(-175.704 -25.508)" fill="#001b4a"/>
    <path id="Path_18" data-name="Path 18" d="M580.719,32.1h-7.225a12.92,12.92,0,1,0,0,25.841h7.225a12.92,12.92,0,1,0,0-25.841m0,20.731h-7.225a7.81,7.81,0,0,1,0-15.621h7.225a7.81,7.81,0,1,1,0,15.621" transform="translate(-445.463 -25.509)" fill="#001b4a"/>
    <path id="Path_19" data-name="Path 19" d="M405.719,42.465H393.855a2.555,2.555,0,0,0,0,5.11h11.863a2.628,2.628,0,1,1,0,5.255H392.846a7.81,7.81,0,1,1,0-15.62h14.338a2.555,2.555,0,0,0,0-5.11H392.846a12.92,12.92,0,0,0,0,25.841h12.872a7.738,7.738,0,0,0,0-15.475" transform="translate(-301.91 -25.508)" fill="#001b4a"/>
    <path id="Path_20" data-name="Path 20" d="M277.957,82.578a2.555,2.555,0,1,0,0,5.11h11.3a2.555,2.555,0,1,0,0-5.11Z" transform="translate(-218.849 -65.621)" fill="#001b4a"/>
    <path id="Path_21" data-name="Path 21" d="M238.334,193.5h-1.472v2.392h-.83v-6.247h2.5a1.928,1.928,0,0,1,.652,3.748l1.472,2.5h-.919Zm-1.472-.75h1.669a1.166,1.166,0,0,0,0-2.329h-1.669Z" transform="translate(-187.564 -150.702)" fill="#001b4a"/>
    <path id="Path_22" data-name="Path 22" d="M261.542,189.825a.522.522,0,1,1,1.044,0,.522.522,0,0,1-1.044,0m.134,1.33h.776v4.462h-.776Z" transform="translate(-207.835 -150.426)" fill="#001b4a"/>
    <path id="Path_23" data-name="Path 23" d="M275.26,189.645v6.247h-.776v-.767a1.93,1.93,0,0,1-1.687.883,2.349,2.349,0,0,1,0-4.694,1.93,1.93,0,0,1,1.687.883v-2.552Zm-.776,4.016a1.584,1.584,0,1,0-1.588,1.6,1.561,1.561,0,0,0,1.588-1.6" transform="translate(-214.985 -150.702)" fill="#001b4a"/>
    <path id="Path_24" data-name="Path 24" d="M300.457,201.734a1.457,1.457,0,0,0,1.285-.652l.66.375a2.252,2.252,0,0,1-1.963,1.008,2.347,2.347,0,1,1-.054-4.694,2.247,2.247,0,0,1,2.222,2.356,2.284,2.284,0,0,1-.027.348h-3.739a1.527,1.527,0,0,0,1.615,1.258m-1.615-1.937h2.981a1.414,1.414,0,0,0-1.437-1.294,1.481,1.481,0,0,0-1.544,1.294" transform="translate(-236.844 -157.16)" fill="#001b4a"/>
    <path id="Path_25" data-name="Path 25" d="M337.563,201.127c0,.83-.714,1.338-1.669,1.338a1.81,1.81,0,0,1-1.776-1.044l.669-.384a1.086,1.086,0,0,0,1.107.7c.473,0,.883-.17.883-.607,0-.955-2.5-.411-2.5-2.026a1.421,1.421,0,0,1,1.58-1.33,1.715,1.715,0,0,1,1.606.928l-.651.366a.985.985,0,0,0-.955-.571c-.4,0-.794.2-.794.6,0,.955,2.5.393,2.5,2.035" transform="translate(-265.509 -157.16)" fill="#001b4a"/>
    <path id="Path_26" data-name="Path 26" d="M358.265,197.888v4.462h-.776v-.767a1.93,1.93,0,0,1-1.687.883,2.349,2.349,0,0,1,0-4.694,1.93,1.93,0,0,1,1.687.883v-.767Zm-.776,2.231a1.584,1.584,0,1,0-1.588,1.6,1.56,1.56,0,0,0,1.588-1.6" transform="translate(-280.945 -157.16)" fill="#001b4a"/>
    <path id="Path_27" data-name="Path 27" d="M381.936,190.816v.134h1.178v.75h-1.178v3.712h-.776V191.7h-.714v-.75h.714v-.134a1.621,1.621,0,0,1,1.954-1.767v.75c-.776-.063-1.178.241-1.178,1.017" transform="translate(-302.323 -150.223)" fill="#001b4a"/>
    <path id="Path_28" data-name="Path 28" d="M396.327,201.734a1.456,1.456,0,0,0,1.285-.652l.66.375a2.252,2.252,0,0,1-1.963,1.008,2.347,2.347,0,1,1-.053-4.694,2.247,2.247,0,0,1,2.222,2.356,2.284,2.284,0,0,1-.027.348h-3.739a1.527,1.527,0,0,0,1.615,1.258m-1.615-1.937h2.981a1.414,1.414,0,0,0-1.437-1.294,1.481,1.481,0,0,0-1.544,1.294" transform="translate(-313.029 -157.16)" fill="#001b4a"/>
    <rect id="Rectangle_7" data-name="Rectangle 7" width="0.776" height="6.514" transform="translate(86.342 38.675)" fill="#001b4a"/>
    <path id="Path_29" data-name="Path 29" d="M431.973,198.337l-1.82,4.739a1.98,1.98,0,0,1-1.981,1.508v-.723a1.181,1.181,0,0,0,1.2-.91l.08-.169-1.945-4.444h.83l1.517,3.5,1.285-3.5Z" transform="translate(-339.723 -157.609)" fill="#001b4a"/>
    <path id="Path_30" data-name="Path 30" d="M465.447,197.946v.812a1.248,1.248,0,0,0-1.392,1.366v2.365h-.777v-4.462h.777v.75a1.416,1.416,0,0,1,1.392-.83" transform="translate(-368.146 -157.299)" fill="#001b4a"/>
    <path id="Path_31" data-name="Path 31" d="M476.882,189.825a.522.522,0,1,1,1.044,0,.522.522,0,0,1-1.044,0m.134,1.33h.776v4.462h-.776Z" transform="translate(-378.956 -150.426)" fill="#001b4a"/>
    <path id="Path_32" data-name="Path 32" d="M490.6,189.645v6.247h-.776v-.767a1.93,1.93,0,0,1-1.687.883,2.349,2.349,0,0,1,0-4.694,1.93,1.93,0,0,1,1.687.883v-2.552Zm-.776,4.016a1.584,1.584,0,1,0-1.588,1.6,1.561,1.561,0,0,0,1.588-1.6" transform="translate(-386.104 -150.702)" fill="#001b4a"/>
    <path id="Path_33" data-name="Path 33" d="M515.8,201.734a1.457,1.457,0,0,0,1.285-.652l.66.375a2.252,2.252,0,0,1-1.963,1.008,2.347,2.347,0,1,1-.053-4.694,2.247,2.247,0,0,1,2.222,2.356,2.284,2.284,0,0,1-.027.348H514.18a1.527,1.527,0,0,0,1.615,1.258M514.18,199.8h2.981a1.414,1.414,0,0,0-1.437-1.294,1.481,1.481,0,0,0-1.544,1.294" transform="translate(-407.964 -157.16)" fill="#001b4a"/>
    <path id="Path_34" data-name="Path 34" d="M555.421,198.337l-1.383,4.462h-.794l-1.044-3.3-1.044,3.3h-.794l-1.383-4.462h.812l.982,3.391,1.053-3.391h.75l1.053,3.4.981-3.4Z" transform="translate(-436.248 -157.609)" fill="#001b4a"/>
    <path id="Path_35" data-name="Path 35" d="M583.616,189.825a.522.522,0,1,1,1.044,0,.522.522,0,0,1-1.044,0m.134,1.33h.776v4.462h-.776Z" transform="translate(-463.773 -150.426)" fill="#001b4a"/>
    <path id="Path_36" data-name="Path 36" d="M593.446,194.252v2.418c0,.678.393.633,1.187.6v.7c-1.338.178-1.963-.178-1.963-1.294v-2.418h-.883v-.75h.883v-1.017l.776-.232V193.5h1.187v.75Z" transform="translate(-470.265 -152.775)" fill="#001b4a"/>
    <path id="Path_37" data-name="Path 37" d="M614.078,193.152v2.74H613.3V193.2a1.029,1.029,0,0,0-1.107-1.142c-.714,0-1.294.419-1.294,1.473v2.365h-.776v-6.247h.776v2.427a1.586,1.586,0,0,1,1.446-.758,1.665,1.665,0,0,1,1.731,1.838" transform="translate(-484.839 -150.702)" fill="#001b4a"/>
    <path id="Path_38" data-name="Path 38" d="M646.693,201.734a1.457,1.457,0,0,0,1.285-.652l.66.375a2.252,2.252,0,0,1-1.963,1.008,2.347,2.347,0,1,1-.053-4.694,2.247,2.247,0,0,1,2.222,2.356,2.284,2.284,0,0,1-.027.348h-3.739a1.527,1.527,0,0,0,1.615,1.258m-1.615-1.937h2.981a1.414,1.414,0,0,0-1.437-1.294,1.481,1.481,0,0,0-1.544,1.294" transform="translate(-511.983 -157.16)" fill="#001b4a"/>
    <path id="Path_39" data-name="Path 39" d="M674.3,197.888v4.274a2.1,2.1,0,0,1-2.275,2.088,2.22,2.22,0,0,1-2.115-1.089l.678-.384a1.4,1.4,0,0,0,1.455.75,1.326,1.326,0,0,0,1.49-1.365v-.634a1.933,1.933,0,0,1-1.678.892,2.325,2.325,0,0,1,0-4.649,1.925,1.925,0,0,1,1.678.883v-.767Zm-.767,2.2a1.588,1.588,0,1,0-1.589,1.588,1.557,1.557,0,0,0,1.589-1.588" transform="translate(-532.082 -157.16)" fill="#001b4a"/>
    <path id="Path_40" data-name="Path 40" d="M697.086,200.119a2.351,2.351,0,1,1,2.347,2.347,2.327,2.327,0,0,1-2.347-2.347m3.926,0a1.575,1.575,0,1,0-1.579,1.588,1.557,1.557,0,0,0,1.579-1.588" transform="translate(-553.943 -157.16)" fill="#001b4a"/>
  </g>
</svg>
