<svg width="47" height="47" viewBox="0 0 47 47" fill="none" xmlns="http://www.w3.org/2000/svg">
<g id="Delete" clip-path="url(#clip0_541_1104)">
<g id="Group">
<path id="Vector" d="M40.117 6.88293C35.6784 2.44446 29.7771 0 23.5 0C17.2229 0 11.3216 2.44446 6.88302 6.88293C2.44446 11.3216 0 17.2229 0 23.5C0 29.7771 2.44446 35.6784 6.88302 40.1171C11.3216 44.5555 17.2229 47 23.5 47C28.238 47 32.8051 45.596 36.7076 42.9398C37.5457 42.3693 37.7628 41.2274 37.1922 40.3891C36.6217 39.5509 35.4797 39.3338 34.6415 39.9045C31.3507 42.1442 27.498 43.3281 23.5 43.3281C12.5667 43.3281 3.67188 34.4333 3.67188 23.5C3.67188 12.5667 12.5667 3.67188 23.5 3.67188C34.4333 3.67188 43.3281 12.5667 43.3281 23.5C43.3281 27.1498 42.3287 30.7163 40.4381 33.814C39.9098 34.6796 40.1833 35.8093 41.0487 36.3376C41.9141 36.8661 43.044 36.5923 43.5723 35.7271C45.8147 32.053 47 27.8249 47 23.5C47 17.2229 44.5555 11.3216 40.117 6.88293Z" fill="black"/>
<path id="Vector_2" d="M31.0626 15.9372C30.3456 15.2202 29.1832 15.2202 28.4663 15.9372L23.5 20.9035L18.5337 15.9372C17.8166 15.2202 16.6542 15.2202 15.9373 15.9372C15.2203 16.6542 15.2203 17.8167 15.9373 18.5337L20.9035 23.5L15.9372 28.4663C15.2202 29.1833 15.2202 30.3458 15.9372 31.0627C16.2956 31.4212 16.7655 31.6004 17.2354 31.6004C17.7053 31.6004 18.1751 31.4212 18.5336 31.0627L23.5 26.0964L28.4663 31.0627C28.8247 31.4212 29.2945 31.6004 29.7645 31.6004C30.2344 31.6004 30.7042 31.4212 31.0626 31.0627C31.7797 30.3457 31.7797 29.1832 31.0626 28.4663L26.0964 23.5L31.0627 18.5337C31.7797 17.8167 31.7797 16.6542 31.0626 15.9372Z" fill="black"/>
</g>
</g>
<defs>
<clipPath id="clip0_541_1104">
<rect width="47" height="47" fill="white"/>
</clipPath>
</defs>
</svg>
