<svg width="27" height="27" viewBox="0 0 27 27" fill="none" xmlns="http://www.w3.org/2000/svg">
<g clip-path="url(#clip0_541_1056)">
<path d="M15.873 13.5C15.873 14.8105 14.8105 15.873 13.5 15.873C12.1895 15.873 11.127 14.8105 11.127 13.5C11.127 12.1895 12.1895 11.127 13.5 11.127C14.8105 11.127 15.873 12.1895 15.873 13.5Z" fill="white"/>
<path d="M17.5078 6.32812H9.49219C7.74742 6.32812 6.32812 7.74742 6.32812 9.49219V17.5078C6.32812 19.2526 7.74742 20.6719 9.49219 20.6719H17.5078C19.2526 20.6719 20.6719 19.2526 20.6719 17.5078V9.49219C20.6719 7.74742 19.2526 6.32812 17.5078 6.32812ZM13.5 17.4551C11.3191 17.4551 9.54492 15.6809 9.54492 13.5C9.54492 11.3191 11.3191 9.54492 13.5 9.54492C15.6809 9.54492 17.4551 11.3191 17.4551 13.5C17.4551 15.6809 15.6809 17.4551 13.5 17.4551ZM18.0352 9.75586C17.5982 9.75586 17.2441 9.40176 17.2441 8.96484C17.2441 8.52793 17.5982 8.17383 18.0352 8.17383C18.4721 8.17383 18.8262 8.52793 18.8262 8.96484C18.8262 9.40176 18.4721 9.75586 18.0352 9.75586Z" fill="white"/>
<path d="M19.8809 0H7.11914C3.19373 0 0 3.19373 0 7.11914V19.8809C0 23.8063 3.19373 27 7.11914 27H19.8809C23.8063 27 27 23.8063 27 19.8809V7.11914C27 3.19373 23.8063 0 19.8809 0ZM22.2539 17.5078C22.2539 20.1248 20.1248 22.2539 17.5078 22.2539H9.49219C6.87524 22.2539 4.74609 20.1248 4.74609 17.5078V9.49219C4.74609 6.87524 6.87524 4.74609 9.49219 4.74609H17.5078C20.1248 4.74609 22.2539 6.87524 22.2539 9.49219V17.5078Z" fill="white"/>
</g>
<defs>
<clipPath id="clip0_541_1056">
<rect width="27" height="27" fill="white"/>
</clipPath>
</defs>
</svg>
