<svg width="27" height="27" viewBox="0 0 27 27" fill="none" xmlns="http://www.w3.org/2000/svg">
<g clip-path="url(#clip0_541_1060)">
<path d="M25.0527 0H1.94726C0.871765 0 0 0.871765 0 1.94726V25.0527C0 26.1282 0.871765 27 1.94726 27H25.0527C26.1282 27 27 26.1282 27 25.0527V1.94726C27 0.871765 26.1282 0 25.0527 0ZM9.57706 20.4082H6.28919V10.5166H9.57706V20.4082ZM7.93323 9.16589H7.9118C6.8085 9.16589 6.09494 8.40639 6.09494 7.45718C6.09494 6.48653 6.83034 5.74805 7.95506 5.74805C9.07979 5.74805 9.77193 6.48653 9.79335 7.45718C9.79335 8.40639 9.07979 9.16589 7.93323 9.16589ZM21.4324 20.4082H18.145V15.1164C18.145 13.7865 17.6689 12.8795 16.4793 12.8795C15.5711 12.8795 15.0301 13.4913 14.7924 14.0819C14.7055 14.2933 14.6843 14.5887 14.6843 14.8843V20.4082H11.3966C11.3966 20.4082 11.4397 11.4446 11.3966 10.5166H14.6843V11.9171C15.1212 11.2431 15.9029 10.2844 17.6473 10.2844C19.8104 10.2844 21.4324 11.6982 21.4324 14.7364V20.4082Z" fill="white"/>
</g>
<defs>
<clipPath id="clip0_541_1060">
<rect width="27" height="27" fill="white"/>
</clipPath>
</defs>
</svg>
