<svg width="21" height="21" viewBox="0 0 21 21" fill="none" xmlns="http://www.w3.org/2000/svg">
<g clip-path="url(#clip0_541_1074)">
<path d="M8.79605 20.0684C0.0481584 16.8576 -0.976945 10.031 0.635379 7.27789C1.74826 5.3778 4.31629 4.93147 6.41883 6.12748C6.42129 6.12892 6.42412 6.13031 6.42662 6.13208C6.4461 6.14307 6.46591 6.15439 6.4854 6.16604C6.48823 6.16747 6.49106 6.16924 6.49389 6.171C7.40817 6.71081 8.22901 7.56492 8.79609 8.74928C10.3677 5.46803 13.8861 4.72081 15.9409 6.171C16.3448 6.45593 16.692 6.82585 16.9568 7.27785C18.5691 10.031 17.544 16.8576 8.79605 20.0684Z" fill="#EE596B"/>
<path d="M8.79605 20.0684C0.0481584 16.8576 -0.976945 10.031 0.635379 7.27789C1.74826 5.3778 4.31629 4.93147 6.41883 6.12748C4.20546 4.91055 0.797965 9.83538 3.48092 13.8411C5.56328 16.9502 8.79605 20.0684 8.79605 20.0684Z" fill="#ED3A4F"/>
<path d="M16.4186 9.65975C11.863 7.98767 11.3291 4.4326 12.1688 2.99885C12.7483 2.00935 14.0856 1.77692 15.1806 2.39978C15.1819 2.40052 15.1833 2.40126 15.1846 2.40216C15.1948 2.40786 15.2051 2.41377 15.2152 2.41984C15.2167 2.42058 15.2182 2.42148 15.2197 2.42242C15.6958 2.70354 16.1233 3.14832 16.4186 3.76511C17.237 2.05636 19.0693 1.6672 20.1393 2.42242C20.3497 2.57082 20.5305 2.76343 20.6684 2.99881C21.508 4.4326 20.9742 7.98767 16.4186 9.65975Z" fill="#EE596B"/>
<path d="M16.4186 9.65975C11.863 7.98767 11.3291 4.4326 12.1688 2.99885C12.7483 2.00935 14.0856 1.77692 15.1806 2.39978C14.028 1.76605 12.2534 4.33071 13.6506 6.41677C14.735 8.03586 16.4186 9.65975 16.4186 9.65975Z" fill="#ED3A4F"/>
<path d="M7.80087 5.15502C5.26979 4.22601 4.97321 2.25082 5.43968 1.45426C5.76165 0.904486 6.50469 0.775369 7.11304 1.12142C7.11373 1.12183 7.11455 1.12224 7.11529 1.12273C7.12091 1.12589 7.12665 1.12917 7.13227 1.13257C7.13309 1.13298 7.13391 1.13348 7.13473 1.13401C7.39928 1.2902 7.63677 1.53732 7.80083 1.88C8.25557 0.930613 9.27353 0.71442 9.86806 1.13401C9.98491 1.21645 10.0854 1.32346 10.162 1.45426C10.6285 2.25082 10.3319 4.22597 7.80087 5.15502Z" fill="#EE596B"/>
<path d="M7.80087 5.15502C5.26979 4.22601 4.97321 2.25082 5.43968 1.45426C5.76165 0.904486 6.50469 0.775369 7.11304 1.12142C6.47262 0.769299 5.48673 2.19426 6.26299 3.35324C6.86551 4.25276 7.80087 5.15502 7.80087 5.15502Z" fill="#ED3A4F"/>
<path d="M4.69282 17.716L6.13669 17.2198C6.57035 17.0708 6.57035 16.4575 6.13669 16.3085L4.69282 15.8123C4.55234 15.7641 4.44201 15.6537 4.39374 15.5133L3.89757 14.0694C3.74856 13.6357 3.13525 13.6357 2.98624 14.0694L2.49008 15.5133C2.4418 15.6537 2.33147 15.7641 2.19099 15.8123L0.747119 16.3085C0.31346 16.4575 0.31346 17.0708 0.747119 17.2198L2.19099 17.716C2.33147 17.7643 2.4418 17.8746 2.49008 18.0151L2.98624 19.459C3.13525 19.8926 3.74856 19.8926 3.89757 19.459L4.39374 18.0151C4.44201 17.8746 4.55234 17.7643 4.69282 17.716Z" fill="#F1F4F6"/>
</g>
<defs>
<clipPath id="clip0_541_1074">
<rect width="21" height="21" fill="white"/>
</clipPath>
</defs>
</svg>
