<svg width="1819" height="329" viewBox="0 0 1819 329" fill="none" xmlns="http://www.w3.org/2000/svg">
<g clip-path="url(#clip0_1119_15)">
<path d="M1819 382.5C1819 338.31 1795.48 294.553 1749.77 253.727C1704.06 212.901 1637.07 175.805 1552.61 144.559C1468.16 113.312 1367.9 88.5252 1257.55 71.6145C1147.2 54.7038 1028.94 46 909.5 46C790.063 46 671.795 54.7038 561.449 71.6145C451.104 88.5253 350.841 113.312 266.386 144.559C181.931 175.806 114.938 212.901 69.2315 253.727C23.5249 294.553 -1.04415e-05 338.31 0 382.5" stroke="#EAEAEA"/>
<g clip-path="url(#clip1_1119_15)">
<path d="M891.036 0.998047C884.542 36.2753 879.277 41.5398 844 48.0342C879.277 54.5287 884.542 59.7932 891.036 95.0704C897.531 59.7932 902.795 54.5287 938.073 48.0342C902.795 41.5398 897.53 36.2753 891.036 0.998047Z" fill="#DFF7FF"/>
<path d="M942.087 67.1758C937.957 89.6107 934.608 92.9591 912.174 97.0889C934.608 101.219 937.957 104.568 942.087 127.002C946.217 104.568 949.566 101.219 972 97.0889C949.565 92.9591 946.217 89.6107 942.087 67.1758Z" fill="#DFF7FF"/>
</g>
<g clip-path="url(#clip2_1119_15)">
<path d="M331.036 67.998C324.542 103.275 319.277 108.54 284 115.034C319.277 121.529 324.542 126.793 331.036 162.07C337.531 126.793 342.795 121.529 378.073 115.034C342.795 108.54 337.53 103.275 331.036 67.998Z" fill="#DFFFE6"/>
<path d="M382.087 134.176C377.957 156.611 374.608 159.959 352.174 164.089C374.608 168.219 377.957 171.568 382.087 194.002C386.217 171.568 389.566 168.219 412 164.089C389.565 159.959 386.217 156.611 382.087 134.176Z" fill="#DFFFE6"/>
</g>
<g clip-path="url(#clip3_1119_15)">
<path d="M1480.04 67.998C1473.54 103.275 1468.28 108.54 1433 115.034C1468.28 121.529 1473.54 126.793 1480.04 162.07C1486.53 126.793 1491.8 121.529 1527.07 115.034C1491.8 108.54 1486.53 103.275 1480.04 67.998Z" fill="#FFF0DF"/>
<path d="M1531.09 134.176C1526.96 156.611 1523.61 159.959 1501.17 164.089C1523.61 168.219 1526.96 171.568 1531.09 194.002C1535.22 171.568 1538.57 168.219 1561 164.089C1538.57 159.959 1535.22 156.611 1531.09 134.176Z" fill="#FFF0DF"/>
</g>
</g>
<defs>
<clipPath id="clip0_1119_15">
<rect width="1819" height="329" fill="white"/>
</clipPath>
<clipPath id="clip1_1119_15">
<rect width="128" height="128" fill="white" transform="translate(844)"/>
</clipPath>
<clipPath id="clip2_1119_15">
<rect width="128" height="128" fill="white" transform="translate(284 67)"/>
</clipPath>
<clipPath id="clip3_1119_15">
<rect width="128" height="128" fill="white" transform="translate(1433 67)"/>
</clipPath>
</defs>
</svg>
