<svg width="27" height="27" viewBox="0 0 27 27" fill="none" xmlns="http://www.w3.org/2000/svg">
<g clip-path="url(#clip0_541_1053)">
<path d="M14.4024 13.0378L20.4784 21.7286H17.9848L13.0267 14.6369V14.6364L12.2987 13.5954L6.50684 5.31055H9.00043L13.6745 11.9967L14.4024 13.0378Z" fill="white"/>
<path d="M24.0826 0H2.91741C1.30621 0 0 1.30621 0 2.91741V24.0826C0 25.6938 1.30621 27 2.91741 27H24.0826C25.6938 27 27 25.6938 27 24.0826V2.91741C27 1.30621 25.6938 0 24.0826 0ZM17.2215 22.8965L12.2041 15.5944L5.9224 22.8965H4.29888L11.4833 14.5457L4.29888 4.08961H9.77853L14.5296 11.0042L20.478 4.08961H22.1015L15.2507 12.0532H15.2503L22.7011 22.8965H17.2215Z" fill="white"/>
</g>
<defs>
<clipPath id="clip0_541_1053">
<rect width="27" height="27" fill="white"/>
</clipPath>
</defs>
</svg>
