<?xml version="1.0" standalone="no"?>
<!DOCTYPE svg PUBLIC "-//W3C//DTD SVG 1.1//EN" "http://www.w3.org/Graphics/SVG/1.1/DTD/svg11.dtd" >
<svg xmlns="http://www.w3.org/2000/svg" xmlns:xlink="http://www.w3.org/1999/xlink" version="1.1">
<metadata>
Created by FontForge 20170731 at Mon Mar  1 16:03:51 2021
 By Aleksey,,,
Copyright (c) 2018 by Fahd Al Fraikh. All Rights Reserved.
</metadata>
<defs>
<font id="FFShamelRounded-Light" horiz-adv-x="0" >
  <font-face 
    font-family="FF Shamel Rounded Light"
    font-weight="300"
    font-stretch="normal"
    units-per-em="2048"
    panose-1="0 0 4 0 0 0 0 0 0 0"
    ascent="1638"
    descent="-410"
    bbox="-645 -1004 3095 1982"
    underline-thickness="102"
    underline-position="-409"
    unicode-range="U+0020-FEFC"
  />
<missing-glyph horiz-adv-x="1024" 
d="M0 1638h1024v-2048h-1024v2048zM512 737l367 799h-734zM455 614l-353 770v-1540zM569 614l353 -770v1540zM145 -307h734l-367 799z" />
    <glyph glyph-name="uniFEF5" unicode="&#xfedf;&#xfe82;" horiz-adv-x="1472" arabic-form="isolated" 
d="M203 1434q-15 0 -27 12t-12 27q0 83 37.5 127.5t101.5 44.5q17 0 34 -4t27.5 -7t29 -13.5t23.5 -13.5t25.5 -18t22.5 -16q30 -21 46.5 -31t43 -19.5t53.5 -9.5q74 0 74 97q0 15 12 28t27 13q17 0 29 -12t12 -29q0 -84 -41.5 -130t-112.5 -46q-39 0 -79 14.5t-55 23.5
t-54 35q-9 6 -31 21.5t-30.5 20.5t-24.5 10.5t-31 5.5q-31 0 -45 -20t-14 -72q0 -15 -13 -27t-28 -12zM1255 1503q22 0 38 -15.5t16 -37.5v-987q0 -221 -121 -342t-342 -121h-117q-4 -2 -14 -2q-9 0 -13 2h-477q-61 0 -61 49t61 49h422l-338 1078q-6 24 11 43.5t42 19.5
q18 0 32 -12.5t20 -32.5l342 -1096h90q177 0 266.5 92.5t89.5 272.5v987q0 22 15.5 37.5t37.5 15.5z" />
    <glyph glyph-name="uniFEF6" unicode="&#xfee0;&#xfe82;" horiz-adv-x="1665" arabic-form="final" 
d="M203 1434q-15 0 -27 12t-12 27q0 83 37.5 127.5t101.5 44.5q17 0 34 -4t27.5 -7t29 -13.5t23.5 -13.5t25.5 -18t22.5 -16q30 -21 46.5 -31t43 -19.5t53.5 -9.5q74 0 74 97q0 15 12 28t27 13q17 0 29 -12t12 -29q0 -84 -41.5 -130t-112.5 -46q-39 0 -79 14.5t-55 23.5
t-54 35q-9 6 -31 21.5t-30.5 20.5t-24.5 10.5t-31 5.5q-31 0 -45 -20t-14 -72q0 -15 -13 -27t-28 -12zM1309 463q0 -180 89.5 -272.5t266.5 -92.5v-98q-144 0 -246.5 61t-152.5 175q-51 -115 -158.5 -175.5t-261.5 -60.5h-117q-4 -2 -14 -2q-9 0 -13 2h-477q-61 0 -61 49
t61 49h422l-338 1078q-6 24 11 43.5t42 19.5q18 0 32 -12.5t20 -32.5l342 -1096h90q177 0 266.5 92.5t89.5 272.5v987q0 22 15.5 37.5t37.5 15.5t38 -15.5t16 -37.5v-987z" />
    <glyph glyph-name="uniFEF7" unicode="&#xfedf;&#xfe84;" horiz-adv-x="1431" arabic-form="isolated" 
d="M299 1507q-90 57 -90 162q0 89 62.5 146t156.5 57q66 0 137 -35q29 -15 29 -41q0 -18 -13 -30.5t-34 -12.5q-13 0 -25 6q-49 21 -94 21q-55 0 -89 -30.5t-34 -80.5q0 -57 40.5 -94.5t98.5 -34.5h9q59 6 125 6q51 0 51 -43q0 -20 -14.5 -31.5t-39.5 -11.5q-151 0 -296 -51
q-12 -4 -21 -4q-19 0 -31 13.5t-12 31.5q0 33 35 41q30 11 49 16zM1255 1503q22 0 38 -15.5t16 -37.5v-987q0 -221 -121 -342t-342 -121h-117q-4 -2 -14 -2q-9 0 -13 2h-477q-61 0 -61 49t61 49h422l-338 1078q-6 24 11 43.5t42 19.5q18 0 32 -12.5t20 -32.5l342 -1096h90
q177 0 266.5 92.5t89.5 272.5v987q0 22 15.5 37.5t37.5 15.5z" />
    <glyph glyph-name="uniFEF8" unicode="&#xfee0;&#xfe84;" horiz-adv-x="1665" arabic-form="final" 
d="M299 1507q-90 57 -90 162q0 89 62.5 146t156.5 57q66 0 137 -35q29 -15 29 -41q0 -18 -13 -30.5t-34 -12.5q-13 0 -25 6q-49 21 -94 21q-55 0 -89 -30.5t-34 -80.5q0 -57 40.5 -94.5t98.5 -34.5h9q59 6 125 6q51 0 51 -43q0 -20 -14.5 -31.5t-39.5 -11.5q-151 0 -296 -51
q-12 -4 -21 -4q-19 0 -31 13.5t-12 31.5q0 33 35 41q30 11 49 16zM1309 463q0 -180 89.5 -272.5t266.5 -92.5v-98q-144 0 -246.5 61t-152.5 175q-51 -115 -158.5 -175.5t-261.5 -60.5h-117q-4 -2 -14 -2q-9 0 -13 2h-477q-61 0 -61 49t61 49h422l-338 1078q-6 24 11 43.5
t42 19.5q18 0 32 -12.5t20 -32.5l342 -1096h90q177 0 266.5 92.5t89.5 272.5v987q0 22 15.5 37.5t37.5 15.5t38 -15.5t16 -37.5v-987z" />
    <glyph glyph-name="uniFEF9" unicode="&#xfedf;&#xfe88;" horiz-adv-x="1472" arabic-form="isolated" 
d="M1255 1503q22 0 38 -15.5t16 -37.5v-987q0 -221 -121 -342t-342 -121h-117q-4 -2 -14 -2q-9 0 -13 2h-477q-61 0 -61 49t61 49h422l-338 1078q-6 24 11 43.5t42 19.5q18 0 32 -12.5t20 -32.5l342 -1096h90q177 0 266.5 92.5t89.5 272.5v987q0 22 15.5 37.5t37.5 15.5z
M680 -514q51 0 51 -43q0 -20 -14 -31.5t-39 -11.5q-152 0 -297 -51q-12 -4 -21 -4q-19 0 -31 13.5t-12 31.5q0 33 35 41q30 11 49 16q-90 57 -90 162q0 89 62.5 146t156.5 57q67 0 138 -35q28 -14 28 -41q0 -18 -13 -30.5t-34 -12.5q-12 0 -24 6q-47 20 -95 20
q-55 0 -88.5 -30t-33.5 -80q0 -57 40.5 -94.5t98.5 -34.5h8q58 6 125 6z" />
    <glyph glyph-name="uniFEFA" unicode="&#xfee0;&#xfe88;" horiz-adv-x="1665" arabic-form="final" 
d="M1309 463q0 -180 89.5 -272.5t266.5 -92.5v-98q-144 0 -246.5 61t-152.5 175q-51 -115 -158.5 -175.5t-261.5 -60.5h-117q-4 -2 -14 -2q-9 0 -13 2h-477q-61 0 -61 49t61 49h422l-338 1078q-6 24 11 43.5t42 19.5q18 0 32 -12.5t20 -32.5l342 -1096h90q177 0 266.5 92.5
t89.5 272.5v987q0 22 15.5 37.5t37.5 15.5t38 -15.5t16 -37.5v-987zM680 -514q51 0 51 -43q0 -20 -14 -31.5t-39 -11.5q-152 0 -297 -51q-12 -4 -21 -4q-19 0 -31 13.5t-12 31.5q0 33 35 41q30 11 49 16q-90 57 -90 162q0 89 62.5 146t156.5 57q67 0 138 -35q28 -14 28 -41
q0 -18 -13 -30.5t-34 -12.5q-12 0 -24 6q-47 20 -95 20q-55 0 -88.5 -30t-33.5 -80q0 -57 40.5 -94.5t98.5 -34.5h8q58 6 125 6z" />
    <glyph glyph-name="uniFEFB" unicode="&#xfedf;&#xfe8e;" horiz-adv-x="1472" arabic-form="isolated" 
d="M1255 1503q22 0 38 -15.5t16 -37.5v-987q0 -221 -121 -342t-342 -121h-117q-4 -2 -14 -2q-9 0 -13 2h-477q-61 0 -61 49t61 49h422l-338 1078q-6 24 11 43.5t42 19.5q18 0 32 -12.5t20 -32.5l342 -1096h90q177 0 266.5 92.5t89.5 272.5v987q0 22 15.5 37.5t37.5 15.5z
" />
    <glyph glyph-name="uniFEFC" unicode="&#xfee0;&#xfe8e;" horiz-adv-x="1665" arabic-form="final" 
d="M1309 463q0 -180 89.5 -272.5t266.5 -92.5v-98q-144 0 -246.5 61t-152.5 175q-51 -115 -158.5 -175.5t-261.5 -60.5h-117q-4 -2 -14 -2q-9 0 -13 2h-477q-61 0 -61 49t61 49h422l-338 1078q-6 24 11 43.5t42 19.5q18 0 32 -12.5t20 -32.5l342 -1096h90q177 0 266.5 92.5
t89.5 272.5v987q0 22 15.5 37.5t37.5 15.5t38 -15.5t16 -37.5v-987z" />
    <glyph glyph-name="uni066E.init" unicode="&#x66e;" horiz-adv-x="626" 
d="M356 463v405q0 22 16 38t38 16t37.5 -16t15.5 -38v-405q0 -221 -121 -342t-342 -121q-29 0 -45 14t-16 39q0 45 61 45q177 0 266.5 92.5t89.5 272.5z" />
    <glyph glyph-name="uni066E.medi" unicode="&#x66e;" horiz-adv-x="819" 
d="M463 463q0 -180 89.5 -272.5t266.5 -92.5v-98q-144 0 -246.5 61t-152.5 175q-51 -115 -158.5 -175.5t-261.5 -60.5q-29 0 -45 14t-16 39q0 45 61 45q177 0 266.5 92.5t89.5 272.5v405q0 22 16 38t38 16t37.5 -16t15.5 -38v-405z" />
    <glyph glyph-name="uni066E.fina" unicode="&#x66e;" horiz-adv-x="2146" 
d="M1790 463q0 -180 89.5 -272.5t266.5 -92.5v-98q-144 0 -246.5 61t-152.5 175q-40 -84 -100 -136q-118 -100 -320 -100h-549q-315 0 -467 168q-147 159 -147 446v152q0 22 15.5 37.5t37.5 15.5t37.5 -15.5t15.5 -37.5v-152q0 -245 127 -378q132 -138 381 -138h549
q174 0 264 90q92 92 92 275v405q0 22 16 38t38 16t37.5 -16t15.5 -38v-405z" />
    <glyph glyph-name="uni06A1.init" unicode="&#x6a1;" horiz-adv-x="1339" 
d="M700 1061q114 0 206.5 -45.5t150 -121.5t88.5 -170t31 -196q0 -101 -31 -194t-89 -168.5t-151.5 -120.5t-208.5 -45h-20h-676q-61 0 -61 47q0 26 13.5 38.5t47.5 12.5h403q-89 73 -135.5 185.5t-46.5 238.5q0 81 19 159t59 146.5t96 120.5t134.5 82.5t170.5 30.5zM700 98
q90 0 162 35.5t116 95t67.5 133t23.5 154.5q0 66 -15 129t-46 119t-74.5 98.5t-104.5 67t-133 24.5q-117 0 -202.5 -63.5t-125.5 -159.5t-40 -207q0 -82 23.5 -157t68 -135.5t117.5 -97t163 -36.5z" />
    <glyph glyph-name="uni06A1.medi" unicode="&#x6a1;" horiz-adv-x="1394" 
d="M989 98h406v-98h-1395q-61 0 -61 47q0 26 13.5 38.5t47.5 12.5h403q-89 73 -135.5 185.5t-46.5 238.5q0 81 19 159t59 146.5t96 120.5t134.5 82.5t170.5 30.5q114 0 206.5 -45.5t150 -121.5t88.5 -170t31 -196q0 -127 -48 -242t-139 -188zM328 524q0 -82 23.5 -157
t68 -135.5t117.5 -97t163 -36.5t162 35.5t116 95t67.5 133t23.5 154.5q0 66 -15 129t-46 119t-74.5 98.5t-104.5 67t-133 24.5q-117 0 -202.5 -63.5t-125.5 -159.5t-40 -207z" />
    <glyph glyph-name="uni06A1.fina" unicode="&#x6a1;" horiz-adv-x="2390" 
d="M1939 98h451v-98h-1612q-299 0 -456.5 157.5t-157.5 456.5v152q0 22 15.5 37.5t37.5 15.5t37.5 -15.5t15.5 -37.5v-152q0 -248 130.5 -382t377.5 -134h576q-90 73 -136.5 185.5t-46.5 238.5q0 102 31.5 197.5t90 172.5t151.5 123t207 46q92 0 170 -30t133.5 -81
t94.5 -119.5t58 -145t19 -157.5q0 -127 -48 -242t-139 -188zM1278 524q0 -82 23.5 -157t68.5 -135.5t118 -97t163 -36.5t161.5 35.5t116 95t67.5 133t23 154.5q0 66 -15 129t-45.5 119t-74 98.5t-104.5 67t-133 24.5q-88 0 -160 -36.5t-116.5 -98t-68.5 -137.5t-24 -158z
" />
    <glyph glyph-name="uniFB57" unicode="&#x67e;" horiz-adv-x="2146" arabic-form="final" 
d="M1790 463q0 -180 89.5 -272.5t266.5 -92.5v-98q-144 0 -246.5 61t-152.5 175q-40 -84 -100 -136q-118 -100 -320 -100h-549q-315 0 -467 168q-147 159 -147 446v152q0 22 15.5 37.5t37.5 15.5t37.5 -15.5t15.5 -37.5v-152q0 -245 127 -378q132 -138 381 -138h549
q174 0 264 90q92 92 92 275v405q0 22 16 38t38 16t37.5 -16t15.5 -38v-405zM813 -250q30 0 50 -19t20 -48v-39q0 -29 -20.5 -48.5t-49.5 -19.5t-48.5 19.5t-19.5 48.5v39q0 29 19.5 48t48.5 19zM1141 -250q29 0 49 -19t20 -48v-39q0 -29 -20 -48.5t-49 -19.5t-48.5 19.5
t-19.5 48.5v39q0 29 19.5 48t48.5 19zM977 -475q29 0 49.5 -19.5t20.5 -48.5v-39q0 -29 -20 -48t-50 -19q-29 0 -48.5 19t-19.5 48v39q0 29 19.5 48.5t48.5 19.5z" />
    <glyph glyph-name="uniFB58" unicode="&#x67e;" horiz-adv-x="722" arabic-form="initial" 
d="M356 463v405q0 22 16 38t38 16t37.5 -16t15.5 -38v-405q0 -221 -121 -342t-342 -121q-29 0 -45 14t-16 39q0 45 61 45q177 0 266.5 92.5t89.5 272.5zM176 -356v39q0 29 19.5 48t48.5 19t49 -19t20 -48v-39q0 -29 -20 -48.5t-49 -19.5t-48.5 19.5t-19.5 48.5zM504 -356v39
q0 29 19 48t48 19q30 0 50 -19t20 -48v-39q0 -29 -20.5 -48.5t-49.5 -19.5t-48 19.5t-19 48.5zM340 -582v39q0 29 19.5 48.5t48.5 19.5t49 -19.5t20 -48.5v-39q0 -29 -20 -48t-49 -19t-48.5 19t-19.5 48z" />
    <glyph glyph-name="uniFB59" unicode="&#x67e;" horiz-adv-x="819" arabic-form="medial" 
d="M463 463q0 -180 89.5 -272.5t266.5 -92.5v-98q-144 0 -246.5 61t-152.5 175q-51 -115 -158.5 -175.5t-261.5 -60.5q-29 0 -45 14t-16 39q0 45 61 45q177 0 266.5 92.5t89.5 272.5v405q0 22 16 38t38 16t37.5 -16t15.5 -38v-405zM244 -250q29 0 49 -19t20 -48v-39
q0 -29 -20 -48.5t-49 -19.5t-48.5 19.5t-19.5 48.5v39q0 29 19.5 48t48.5 19zM571 -250q30 0 50 -19t20 -48v-39q0 -29 -20.5 -48.5t-49.5 -19.5t-48 19.5t-19 48.5v39q0 29 19 48t48 19zM408 -475q29 0 49 -19.5t20 -48.5v-39q0 -29 -20 -48t-49 -19t-48.5 19t-19.5 48v39
q0 29 19.5 48.5t48.5 19.5z" />
    <glyph glyph-name="uniFB6B" unicode="&#x6a4;" horiz-adv-x="2390" arabic-form="final" 
d="M1649 1532q-29 0 -48.5 19t-19.5 48v39q0 29 19.5 48.5t48.5 19.5t49 -19.5t20 -48.5v-39q0 -29 -20 -48t-49 -19zM1485 1307q-29 0 -48.5 19t-19.5 48v39q0 29 19.5 48.5t48.5 19.5t49 -19.5t20 -48.5v-39q0 -29 -20 -48t-49 -19zM1812 1307q-29 0 -48 19t-19 48v39
q0 29 19 48.5t48 19.5t49.5 -19.5t20.5 -48.5v-39q0 -29 -20 -48t-50 -19zM1939 98h451v-98h-1612q-299 0 -456.5 157.5t-157.5 456.5v152q0 22 15.5 37.5t37.5 15.5t37.5 -15.5t15.5 -37.5v-152q0 -248 130.5 -382t377.5 -134h576q-90 73 -136.5 185.5t-46.5 238.5
q0 102 31.5 197.5t90 172.5t151.5 123t207 46q92 0 170 -30t133.5 -81t94.5 -119.5t58 -145t19 -157.5q0 -127 -48 -242t-139 -188zM1278 524q0 -82 23.5 -157t68.5 -135.5t118 -97t163 -36.5t161.5 35.5t116 95t67.5 133t23 154.5q0 66 -15 129t-45.5 119t-74 98.5
t-104.5 67t-133 24.5q-88 0 -160 -36.5t-116.5 -98t-68.5 -137.5t-24 -158z" />
    <glyph glyph-name="uniFB6C" unicode="&#x6a4;" horiz-adv-x="1339" arabic-form="initial" 
d="M698 1534q-29 0 -48 19.5t-19 48.5v38q0 29 19 48.5t48 19.5t49.5 -19.5t20.5 -48.5v-38q0 -29 -20.5 -48.5t-49.5 -19.5zM535 1309q-29 0 -48.5 19t-19.5 48v39q0 29 19.5 48.5t48.5 19.5t49 -19.5t20 -48.5v-39q0 -29 -20 -48t-49 -19zM862 1309q-29 0 -48 19t-19 48
v39q0 29 19 48.5t48 19.5t49.5 -19.5t20.5 -48.5v-39q0 -29 -20 -48t-50 -19zM700 1061q114 0 206.5 -45.5t150 -121.5t88.5 -170t31 -196q0 -101 -31 -194t-89 -168.5t-151.5 -120.5t-208.5 -45h-20h-676q-61 0 -61 47q0 26 13.5 38.5t47.5 12.5h403q-89 73 -135.5 185.5
t-46.5 238.5q0 81 19 159t59 146.5t96 120.5t134.5 82.5t170.5 30.5zM700 98q90 0 162 35.5t116 95t67.5 133t23.5 154.5q0 66 -15 129t-46 119t-74.5 98.5t-104.5 67t-133 24.5q-117 0 -202.5 -63.5t-125.5 -159.5t-40 -207q0 -82 23.5 -157t68 -135.5t117.5 -97t163 -36.5
z" />
    <glyph glyph-name="uniFB6D" unicode="&#x6a4;" horiz-adv-x="1394" arabic-form="medial" 
d="M698 1534q-29 0 -48 19.5t-19 48.5v38q0 29 19 48.5t48 19.5t49.5 -19.5t20.5 -48.5v-38q0 -29 -20.5 -48.5t-49.5 -19.5zM535 1309q-29 0 -48.5 19t-19.5 48v39q0 29 19.5 48.5t48.5 19.5t49 -19.5t20 -48.5v-39q0 -29 -20 -48t-49 -19zM862 1309q-29 0 -48 19t-19 48
v39q0 29 19 48.5t48 19.5t49.5 -19.5t20.5 -48.5v-39q0 -29 -20 -48t-50 -19zM989 98h406v-98h-1395q-61 0 -61 47q0 26 13.5 38.5t47.5 12.5h403q-89 73 -135.5 185.5t-46.5 238.5q0 81 19 159t59 146.5t96 120.5t134.5 82.5t170.5 30.5q114 0 206.5 -45.5t150 -121.5
t88.5 -170t31 -196q0 -127 -48 -242t-139 -188zM328 524q0 -82 23.5 -157t68 -135.5t117.5 -97t163 -36.5t162 35.5t116 95t67.5 133t23.5 154.5q0 66 -15 129t-46 119t-74.5 98.5t-104.5 67t-133 24.5q-117 0 -202.5 -63.5t-125.5 -159.5t-40 -207z" />
    <glyph glyph-name="uniFB7B" unicode="&#x686;" horiz-adv-x="1542" arabic-form="final" 
d="M1401 98h141v-98h-817q-212 0 -313 -74t-101 -229t101 -229t313 -74h125q61 0 61 -49q0 -23 -15.5 -36.5t-43.5 -13.5h-127q-256 0 -388 102t-132 300t131.5 299.5t388.5 101.5h504q-16 32 -27 79.5t-23 129.5t-14 94q-32 178 -85 286.5t-144 168.5q-148 98 -356 98
q-65 0 -140 -10q-3 0 -8.5 -1t-7.5 -1q-55 0 -55 57q0 41 53 50q77 12 156 12q249 0 426 -121q106 -72 170.5 -200.5t97.5 -321.5q34 -198 53 -248q28 -70 76 -72zM702 -215q0 23 15.5 38t38.5 15q25 0 41 -15t16 -38v-33q0 -23 -16 -38t-41 -15q-23 0 -38.5 15t-15.5 38v33
zM1018 -162q25 0 41 -15t16 -38v-33q0 -23 -16 -38t-41 -15q-23 0 -38 15t-15 38v33q0 23 15 38t38 15zM887 -342q25 0 41 -15t16 -38v-33q0 -23 -16 -38t-41 -15q-23 0 -38 15t-15 38v33q0 23 15 38t38 15z" />
    <glyph glyph-name="uniFB7C" unicode="&#x686;" horiz-adv-x="1370" arabic-form="initial" 
d="M993 98q-16 32 -27 80.5t-22 127.5t-14 95q-32 178 -85 286.5t-145 168.5q-148 98 -356 98q-64 0 -139 -10q-3 0 -9 -1t-8 -1q-55 0 -55 57q0 41 53 50q76 12 156 12q249 0 426 -121q106 -72 170.5 -200.5t97.5 -321.5q34 -198 53 -248q28 -70 76 -72q15 0 28 -13t13 -36
q0 -49 -61 -49h-1153q-22 0 -37.5 15.5t-15.5 37.5q0 21 15 33t38 12h1001zM365 -354v39q0 29 19 48t48 19q30 0 50 -19t20 -48v-39q0 -29 -20.5 -48.5t-49.5 -19.5t-48 19.5t-19 48.5zM692 -354v39q0 29 19.5 48t48.5 19t49 -19t20 -48v-39q0 -29 -20 -48.5t-49 -19.5
t-48.5 19.5t-19.5 48.5zM528 -580v39q0 29 19.5 48.5t48.5 19.5t49.5 -19.5t20.5 -48.5v-39q0 -29 -20 -48t-50 -19q-29 0 -48.5 19t-19.5 48z" />
    <glyph glyph-name="uniFB7D" unicode="&#x686;" horiz-adv-x="1300" arabic-form="medial" 
d="M1157 98h143v-98h-1316q-22 0 -38 15.5t-16 37.5q0 21 15.5 33t38.5 12h1001q-16 32 -27 80.5t-22 127.5t-14 95q-32 178 -85 286.5t-145 168.5q-148 98 -356 98q-64 0 -139 -10q-3 0 -9 -1t-8 -1q-55 0 -55 57q0 41 53 50q76 12 156 12q249 0 426 -121
q106 -72 170.5 -200.5t97.5 -321.5q34 -198 53 -248q28 -70 76 -72zM451 -248q29 0 49 -19t20 -48v-39q0 -29 -20 -48.5t-49 -19.5t-48.5 19.5t-19.5 48.5v39q0 29 19.5 48t48.5 19zM778 -248q30 0 50 -19t20 -48v-39q0 -29 -20.5 -48.5t-49.5 -19.5t-48 19.5t-19 48.5v39
q0 29 19 48t48 19zM614 -473q29 0 49.5 -19.5t20.5 -48.5v-39q0 -29 -20 -48t-50 -19q-29 0 -48 19t-19 48v39q0 29 19 48.5t48 19.5z" />
    <glyph glyph-name="uniFE82" unicode="&#x622;" horiz-adv-x="626" arabic-form="final" 
d="M37 1710q-15 0 -27 12t-12 27q0 83 37.5 127.5t101.5 44.5q17 0 34 -4t27.5 -7t29 -13.5t23.5 -13.5t25.5 -18t22.5 -16q29 -20 46.5 -30.5t43.5 -19.5t53 -9q74 0 74 96q0 15 12 28t27 13q17 0 29 -12t12 -29q0 -84 -41.5 -130t-112.5 -46q-14 0 -27 1.5t-26 4.5
t-22.5 6t-22.5 9l-19.5 9t-20 11t-17.5 10.5t-17.5 12t-15.5 10.5q-9 6 -25.5 17.5t-24.5 16.5t-20 11.5t-23.5 9t-23.5 2.5q-31 0 -45 -20t-14 -72q0 -15 -13 -27t-28 -12zM270 463q0 -179 91 -272t266 -93v-98q-221 0 -342 121t-121 342v987q0 22 15.5 37.5t37.5 15.5
t37.5 -15.5t15.5 -37.5v-987z" />
    <glyph glyph-name="uniFE84" unicode="&#x623;" horiz-adv-x="626" arabic-form="final" 
d="M469 1614q0 -20 -14 -31.5t-39 -11.5q-152 0 -297 -51q-12 -4 -21 -4q-19 0 -31 13.5t-12 31.5q0 33 35 41q30 11 49 16q-90 57 -90 162q0 89 62.5 145.5t156.5 56.5q69 0 138 -34q28 -14 28 -41q0 -18 -13 -30.5t-34 -12.5q-13 0 -25 6q-47 20 -94 20q-55 0 -89 -30
t-34 -80q0 -57 40.5 -94.5t99.5 -34.5h8q58 6 125 6q51 0 51 -43zM270 463q0 -179 91 -272t266 -93v-98q-221 0 -342 121t-121 342v823q0 22 15.5 37.5t37.5 15.5t37.5 -15.5t15.5 -37.5v-823z" />
    <glyph glyph-name="uniFE86" unicode="&#x624;" horiz-adv-x="1310" arabic-form="final" 
d="M535 1339q-91 58 -91 162q0 89 63 146t157 57q66 0 137 -35q28 -14 28 -41q0 -18 -13 -30.5t-34 -12.5q-12 0 -24 6q-50 21 -94 21q-55 0 -89 -30.5t-34 -80.5q0 -57 40.5 -94.5t98.5 -34.5h8q58 6 125 6q51 0 51 -43q0 -20 -14 -31.5t-39 -11.5q-152 0 -297 -51
q-12 -4 -20 -4q-19 0 -31 13.5t-12 31.5q0 33 34 41q28 10 50 16zM1311 98v-98h-217q-32 -252 -160.5 -380t-384.5 -128q-28 0 -90 4q-23 2 -38 15t-15 34q0 20 14.5 34.5t34.5 14.5q16 0 43.5 -1t40.5 -1q73 0 129 9t111.5 35t94 70t69 118t44.5 176h-354q-112 0 -203 44.5
t-148 118.5t-87.5 166.5t-30.5 192.5q0 102 31.5 197.5t90 172t150 123t201.5 46.5q148 0 256 -76t160.5 -200.5t52.5 -280.5v-283q0 -45 -4 -123h209zM637 98h358q4 74 4 121v289q0 193 -97.5 319.5t-268.5 126.5q-113 0 -198 -63.5t-126 -159.5t-41 -207q0 -110 41 -205
t127 -158t201 -63z" />
    <glyph glyph-name="uniFE88" unicode="&#x625;" horiz-adv-x="626" arabic-form="final" 
d="M270 463q0 -179 91 -272t266 -93v-98q-221 0 -342 121t-121 342v987q0 22 15.5 37.5t37.5 15.5t37.5 -15.5t15.5 -37.5v-987zM434 -514q51 0 51 -43q0 -20 -14 -31.5t-39 -11.5q-152 0 -297 -51q-12 -4 -20 -4q-19 0 -31 13.5t-12 31.5q0 33 34 41q28 11 50 16
q-90 57 -90 162q0 89 62.5 146t156.5 57q66 0 137 -35q29 -15 29 -41q0 -18 -13.5 -30.5t-34.5 -12.5q-12 0 -24 6q-47 20 -94 20q-55 0 -89 -30t-34 -80q0 -57 40.5 -94.5t98.5 -34.5h8q59 6 125 6z" />
    <glyph glyph-name="uniFE8A" unicode="&#x626;" horiz-adv-x="1720" arabic-form="final" 
d="M258 745q-90 57 -90 162q0 89 62.5 146t156.5 57q66 0 137 -35q29 -15 29 -41q0 -18 -13 -30.5t-34 -12.5q-13 0 -25 6q-50 21 -94 21q-55 0 -89 -30.5t-34 -80.5q0 -57 40.5 -94.5t98.5 -34.5h9q59 6 125 6q51 0 51 -43q0 -20 -14 -31.5t-39 -11.5q-152 0 -297 -51
q-12 -4 -21 -4q-19 0 -31 13.5t-12 31.5q0 33 35 41q30 11 49 16zM1720 98v-98q-49 0 -131 4q53 -73 53 -201q0 -220 -156 -313.5t-493 -93.5h-121q-359 0 -533.5 174t-174.5 553v283q0 29 14 45t39 16t39 -16t14 -45v-283q0 -336 145.5 -482.5t456.5 -146.5h121
q298 0 420.5 65.5t122.5 243.5q0 103 -44 159t-163 87q-126 32 -205 49q-45 9 -45 52q0 23 18.5 39t47.5 10q63 -12 175 -41t203 -44.5t197 -15.5z" />
    <glyph glyph-name="uniFE8B" unicode="&#x626;" horiz-adv-x="700" arabic-form="initial" 
d="M567 1239q51 0 51 -43q0 -20 -14 -31.5t-39 -11.5q-152 0 -297 -51q-12 -4 -20 -4q-19 0 -31 13.5t-12 31.5q0 33 35 41q30 11 49 16q-90 57 -90 162q0 89 62.5 146t156.5 57q66 0 137 -35q29 -14 29 -41q0 -18 -13 -30.5t-34 -12.5q-13 0 -25 6q-49 21 -94 21
q-55 0 -89 -30.5t-34 -80.5q0 -57 40.5 -94.5t98.5 -34.5h8q58 6 125 6zM410 922q22 0 37.5 -16t15.5 -38v-405q0 -221 -121 -342t-342 -121q-29 0 -45 14t-16 39q0 45 61 45q177 0 266.5 92.5t89.5 272.5v405q0 22 16 38t38 16z" />
    <glyph glyph-name="uniFE8C" unicode="&#x626;" horiz-adv-x="819" arabic-form="medial" 
d="M289 1200q-90 57 -90 162q0 89 62.5 146t156.5 57q66 0 137 -35q29 -14 29 -41q0 -18 -13 -30.5t-34 -12.5q-13 0 -25 6q-49 21 -94 21q-55 0 -89 -30.5t-34 -80.5q0 -57 40.5 -94.5t98.5 -34.5h8q58 6 125 6q51 0 51 -43q0 -20 -14 -31.5t-39 -11.5q-152 0 -297 -51
q-12 -4 -20 -4q-19 0 -31 13.5t-12 31.5q0 33 35 41q30 11 49 16zM463 463q0 -180 89.5 -272.5t266.5 -92.5v-98q-144 0 -246.5 61t-152.5 175q-51 -115 -158.5 -175.5t-261.5 -60.5q-29 0 -45 14t-16 39q0 45 61 45q177 0 266.5 92.5t89.5 272.5v405q0 22 16 38t38 16
t37.5 -16t15.5 -38v-405z" />
    <glyph glyph-name="uniFE8E" unicode="&#x627;" horiz-adv-x="626" arabic-form="final" 
d="M270 463q0 -179 91 -272t266 -93v-98q-221 0 -342 121t-121 342v987q0 22 15.5 37.5t37.5 15.5t37.5 -15.5t15.5 -37.5v-987z" />
    <glyph glyph-name="uniFE90" unicode="&#x628;" horiz-adv-x="2146" arabic-form="final" 
d="M1790 463q0 -180 89.5 -272.5t266.5 -92.5v-98q-144 0 -246.5 61t-152.5 175q-40 -84 -100 -136q-118 -100 -320 -100h-549q-315 0 -467 168q-147 159 -147 446v152q0 22 15.5 37.5t37.5 15.5t37.5 -15.5t15.5 -37.5v-152q0 -245 127 -378q132 -138 381 -138h549
q174 0 264 90q92 92 92 275v405q0 22 16 38t38 16t37.5 -16t15.5 -38v-405zM977 -246q30 0 50 -19t20 -48v-39q0 -29 -20.5 -48.5t-49.5 -19.5t-48.5 19.5t-19.5 48.5v39q0 29 19.5 48t48.5 19z" />
    <glyph glyph-name="uniFE91" unicode="&#x628;" horiz-adv-x="626" arabic-form="initial" 
d="M356 463v405q0 22 16 38t38 16t37.5 -16t15.5 -38v-405q0 -221 -121 -342t-342 -121q-29 0 -45 14t-16 39q0 45 61 45q177 0 266.5 92.5t89.5 272.5zM223 -313q0 29 19.5 48t48.5 19t49 -19t20 -48v-39q0 -29 -20 -48.5t-49 -19.5t-48.5 19.5t-19.5 48.5v39z" />
    <glyph glyph-name="uniFE92" unicode="&#x628;" horiz-adv-x="819" arabic-form="medial" 
d="M463 463q0 -180 89.5 -272.5t266.5 -92.5v-98q-144 0 -246.5 61t-152.5 175q-51 -115 -158.5 -175.5t-261.5 -60.5q-29 0 -45 14t-16 39q0 45 61 45q177 0 266.5 92.5t89.5 272.5v405q0 22 16 38t38 16t37.5 -16t15.5 -38v-405zM408 -244q29 0 49 -19t20 -48v-39
q0 -29 -20 -48.5t-49 -19.5t-48.5 19.5t-19.5 48.5v39q0 29 19.5 48t48.5 19z" />
    <glyph glyph-name="uniFE94" unicode="&#x629;" horiz-adv-x="1464" arabic-form="final" 
d="M557 1307q-29 0 -48.5 19t-19.5 48v39q0 29 19.5 48.5t48.5 19.5t49.5 -19.5t20.5 -48.5v-39q0 -29 -20 -48t-50 -19zM885 1307q-29 0 -48.5 19t-19.5 48v39q0 29 19.5 48.5t48.5 19.5t49 -19.5t20 -48.5v-39q0 -29 -20 -48t-49 -19zM1108 463q0 -180 89.5 -272.5
t266.5 -92.5v-98q-179 0 -293.5 80t-152.5 231q-53 -131 -164 -201.5t-274 -70.5q-187 0 -301.5 128.5t-114.5 340.5q0 247 173 396t456 149q97 0 208 -21v62q0 29 14.5 45t39.5 16t39 -16t14 -45v-631zM600 135q183 0 292 126t109 327v352q-115 23 -198 23
q-238 0 -385.5 -127t-147.5 -332q0 -176 87.5 -272.5t242.5 -96.5z" />
    <glyph glyph-name="uniFE96" unicode="&#x62a;" horiz-adv-x="2146" arabic-form="final" 
d="M813 1085q-29 0 -48.5 19.5t-19.5 48.5v39q0 29 19.5 48.5t48.5 19.5t49.5 -19.5t20.5 -48.5v-39q0 -29 -20.5 -48.5t-49.5 -19.5zM1141 1085q-29 0 -48.5 19.5t-19.5 48.5v39q0 29 19.5 48.5t48.5 19.5t49 -19.5t20 -48.5v-39q0 -29 -20 -48.5t-49 -19.5zM1790 463
q0 -180 89.5 -272.5t266.5 -92.5v-98q-144 0 -246.5 61t-152.5 175q-40 -84 -100 -136q-118 -100 -320 -100h-549q-315 0 -467 168q-147 159 -147 446v152q0 22 15.5 37.5t37.5 15.5t37.5 -15.5t15.5 -37.5v-152q0 -245 127 -378q132 -138 381 -138h549q174 0 264 90
q92 92 92 275v405q0 22 16 38t38 16t37.5 -16t15.5 -38v-405z" />
    <glyph glyph-name="uniFE97" unicode="&#x62a;" horiz-adv-x="708" arabic-form="initial" 
d="M162 1274q0 29 19 48t48 19q30 0 50 -19t20 -48v-39q0 -29 -20.5 -48.5t-49.5 -19.5t-48 19.5t-19 48.5v39zM489 1274q0 29 19.5 48t48.5 19q30 0 50 -19t20 -48v-39q0 -29 -20.5 -48.5t-49.5 -19.5t-48.5 19.5t-19.5 48.5v39zM356 463v405q0 22 16 38t38 16t37.5 -16
t15.5 -38v-405q0 -221 -121 -342t-342 -121q-29 0 -45 14t-16 39q0 45 61 45q177 0 266.5 92.5t89.5 272.5z" />
    <glyph glyph-name="uniFE98" unicode="&#x62a;" horiz-adv-x="819" arabic-form="medial" 
d="M244 1167q-29 0 -48.5 19.5t-19.5 48.5v39q0 29 19.5 48t48.5 19t49 -19t20 -48v-39q0 -29 -20 -48.5t-49 -19.5zM571 1167q-29 0 -48 19.5t-19 48.5v39q0 29 19 48t48 19q30 0 50 -19t20 -48v-39q0 -29 -20.5 -48.5t-49.5 -19.5zM463 463q0 -180 89.5 -272.5
t266.5 -92.5v-98q-144 0 -246.5 61t-152.5 175q-51 -115 -158.5 -175.5t-261.5 -60.5q-29 0 -45 14t-16 39q0 45 61 45q177 0 266.5 92.5t89.5 272.5v405q0 22 16 38t38 16t37.5 -16t15.5 -38v-405z" />
    <glyph glyph-name="uniFE9A" unicode="&#x62b;" horiz-adv-x="2146" arabic-form="final" 
d="M977 1311q-29 0 -48.5 19t-19.5 48v39q0 29 19.5 48.5t48.5 19.5t49.5 -19.5t20.5 -48.5v-39q0 -29 -20 -48t-50 -19zM813 1085q-29 0 -48.5 19.5t-19.5 48.5v39q0 29 19.5 48.5t48.5 19.5t49.5 -19.5t20.5 -48.5v-39q0 -29 -20.5 -48.5t-49.5 -19.5zM1141 1085
q-29 0 -48.5 19.5t-19.5 48.5v39q0 29 19.5 48.5t48.5 19.5t49 -19.5t20 -48.5v-39q0 -29 -20 -48.5t-49 -19.5zM1790 463q0 -180 89.5 -272.5t266.5 -92.5v-98q-144 0 -246.5 61t-152.5 175q-40 -84 -100 -136q-118 -100 -320 -100h-549q-315 0 -467 168q-147 159 -147 446
v152q0 22 15.5 37.5t37.5 15.5t37.5 -15.5t15.5 -37.5v-152q0 -245 127 -378q132 -138 381 -138h549q174 0 264 90q92 92 92 275v405q0 22 16 38t38 16t37.5 -16t15.5 -38v-405z" />
    <glyph glyph-name="uniFE9B" unicode="&#x62b;" horiz-adv-x="722" arabic-form="initial" 
d="M340 1499q0 29 19.5 48.5t48.5 19.5t49 -19.5t20 -48.5v-39q0 -29 -20 -48t-49 -19t-48.5 19t-19.5 48v39zM176 1274q0 29 19.5 48t48.5 19t49 -19t20 -48v-39q0 -29 -20 -48.5t-49 -19.5t-48.5 19.5t-19.5 48.5v39zM504 1274q0 29 19 48t48 19q30 0 50 -19t20 -48v-39
q0 -29 -20.5 -48.5t-49.5 -19.5t-48 19.5t-19 48.5v39zM356 463v405q0 22 16 38t38 16t37.5 -16t15.5 -38v-405q0 -221 -121 -342t-342 -121q-29 0 -45 14t-16 39q0 45 61 45q177 0 266.5 92.5t89.5 272.5z" />
    <glyph glyph-name="uniFE9C" unicode="&#x62b;" horiz-adv-x="819" arabic-form="medial" 
d="M408 1393q-29 0 -48.5 19t-19.5 48v39q0 29 19.5 48.5t48.5 19.5t49 -19.5t20 -48.5v-39q0 -29 -20 -48t-49 -19zM244 1167q-29 0 -48.5 19.5t-19.5 48.5v39q0 29 19.5 48t48.5 19t49 -19t20 -48v-39q0 -29 -20 -48.5t-49 -19.5zM571 1167q-29 0 -48 19.5t-19 48.5v39
q0 29 19 48t48 19q30 0 50 -19t20 -48v-39q0 -29 -20.5 -48.5t-49.5 -19.5zM463 463q0 -180 89.5 -272.5t266.5 -92.5v-98q-144 0 -246.5 61t-152.5 175q-51 -115 -158.5 -175.5t-261.5 -60.5q-29 0 -45 14t-16 39q0 45 61 45q177 0 266.5 92.5t89.5 272.5v405q0 22 16 38
t38 16t37.5 -16t15.5 -38v-405z" />
    <glyph glyph-name="uniFE9E" unicode="&#x62c;" horiz-adv-x="1542" arabic-form="final" 
d="M1401 98h141v-98h-817q-212 0 -313 -74t-101 -229t101 -229t313 -74h125q61 0 61 -49q0 -23 -15.5 -36.5t-43.5 -13.5h-127q-256 0 -388 102t-132 300t131.5 299.5t388.5 101.5h504q-16 32 -27 79.5t-23 129.5t-14 94q-32 178 -85 286.5t-144 168.5q-148 98 -356 98
q-65 0 -140 -10q-3 0 -8.5 -1t-7.5 -1q-55 0 -55 57q0 41 53 50q77 12 156 12q249 0 426 -121q106 -72 170.5 -200.5t97.5 -321.5q34 -198 53 -248q28 -70 76 -72zM750 -311q0 29 19 48t48 19q30 0 50 -19t20 -48v-39q0 -29 -20.5 -48.5t-49.5 -19.5t-48 19.5t-19 48.5v39z
" />
    <glyph glyph-name="uniFE9F" unicode="&#x62c;" horiz-adv-x="1370" arabic-form="initial" 
d="M993 98q-16 32 -27 80.5t-22 127.5t-14 95q-32 178 -85 286.5t-145 168.5q-148 98 -356 98q-64 0 -139 -10q-3 0 -9 -1t-8 -1q-55 0 -55 57q0 41 53 50q76 12 156 12q249 0 426 -121q106 -72 170.5 -200.5t97.5 -321.5q34 -198 53 -248q28 -70 76 -72q15 0 28 -13t13 -36
q0 -49 -61 -49h-1153q-22 0 -37.5 15.5t-15.5 37.5q0 21 15 33t38 12h1001zM539 -313q0 29 19 48t48 19q30 0 50 -19t20 -48v-39q0 -29 -20.5 -48.5t-49.5 -19.5t-48 19.5t-19 48.5v39z" />
    <glyph glyph-name="uniFEA0" unicode="&#x62c;" horiz-adv-x="1300" arabic-form="medial" 
d="M1157 98h143v-98h-1316q-22 0 -38 15.5t-16 37.5q0 21 15.5 33t38.5 12h1001q-16 32 -27 80.5t-22 127.5t-14 95q-32 178 -85 286.5t-145 168.5q-148 98 -356 98q-64 0 -139 -10q-3 0 -9 -1t-8 -1q-55 0 -55 57q0 41 53 50q76 12 156 12q249 0 426 -121
q106 -72 170.5 -200.5t97.5 -321.5q34 -198 53 -248q28 -70 76 -72zM614 -246q30 0 50 -19t20 -48v-39q0 -29 -20.5 -48.5t-49.5 -19.5t-48 19.5t-19 48.5v39q0 29 19 48t48 19z" />
    <glyph glyph-name="uniFEA2" unicode="&#x62d;" horiz-adv-x="1542" arabic-form="final" 
d="M1401 98h141v-98h-817q-212 0 -313 -74t-101 -229t101 -229t313 -74h125q61 0 61 -49q0 -23 -15.5 -36.5t-43.5 -13.5h-127q-256 0 -388 102t-132 300t131.5 299.5t388.5 101.5h504q-16 32 -27 79.5t-23 129.5t-14 94q-32 178 -85 286.5t-144 168.5q-148 98 -356 98
q-65 0 -140 -10q-3 0 -8.5 -1t-7.5 -1q-55 0 -55 57q0 41 53 50q77 12 156 12q249 0 426 -121q106 -72 170.5 -200.5t97.5 -321.5q34 -198 53 -248q28 -70 76 -72z" />
    <glyph glyph-name="uniFEA3" unicode="&#x62d;" horiz-adv-x="1370" arabic-form="initial" 
d="M993 98q-16 32 -27 80.5t-22 127.5t-14 95q-32 178 -85 286.5t-145 168.5q-148 98 -356 98q-64 0 -139 -10q-3 0 -9 -1t-8 -1q-55 0 -55 57q0 41 53 50q76 12 156 12q249 0 426 -121q106 -72 170.5 -200.5t97.5 -321.5q34 -198 53 -248q28 -70 76 -72q15 0 28 -13t13 -36
q0 -49 -61 -49h-1153q-22 0 -37.5 15.5t-15.5 37.5q0 21 15 33t38 12h1001z" />
    <glyph glyph-name="uniFEA4" unicode="&#x62d;" horiz-adv-x="1300" arabic-form="medial" 
d="M1157 98h143v-98h-1316q-22 0 -38 15.5t-16 37.5q0 21 15.5 33t38.5 12h1001q-16 32 -27 80.5t-22 127.5t-14 95q-32 178 -85 286.5t-145 168.5q-148 98 -356 98q-64 0 -139 -10q-3 0 -9 -1t-8 -1q-55 0 -55 57q0 41 53 50q76 12 156 12q249 0 426 -121
q106 -72 170.5 -200.5t97.5 -321.5q34 -198 53 -248q28 -70 76 -72z" />
    <glyph glyph-name="uniFEA6" unicode="&#x62e;" horiz-adv-x="1542" arabic-form="final" 
d="M803 1307q-29 0 -48.5 19t-19.5 48v39q0 29 19.5 48.5t48.5 19.5t49 -19.5t20 -48.5v-39q0 -29 -20 -48t-49 -19zM1401 98h141v-98h-817q-212 0 -313 -74t-101 -229t101 -229t313 -74h125q61 0 61 -49q0 -23 -15.5 -36.5t-43.5 -13.5h-127q-256 0 -388 102t-132 300
t131.5 299.5t388.5 101.5h504q-16 32 -27 79.5t-23 129.5t-14 94q-32 178 -85 286.5t-144 168.5q-148 98 -356 98q-65 0 -140 -10q-3 0 -8.5 -1t-7.5 -1q-55 0 -55 57q0 41 53 50q77 12 156 12q249 0 426 -121q106 -72 170.5 -200.5t97.5 -321.5q34 -198 53 -248
q28 -70 76 -72z" />
    <glyph glyph-name="uniFEA7" unicode="&#x62e;" horiz-adv-x="1370" arabic-form="initial" 
d="M504 1413q0 29 19 48.5t48 19.5t49.5 -19.5t20.5 -48.5v-39q0 -29 -20 -48t-50 -19q-29 0 -48 19t-19 48v39zM993 98q-16 32 -27 80.5t-22 127.5t-14 95q-32 178 -85 286.5t-145 168.5q-148 98 -356 98q-64 0 -139 -10q-3 0 -9 -1t-8 -1q-55 0 -55 57q0 41 53 50
q76 12 156 12q249 0 426 -121q106 -72 170.5 -200.5t97.5 -321.5q34 -198 53 -248q28 -70 76 -72q15 0 28 -13t13 -36q0 -49 -61 -49h-1153q-22 0 -37.5 15.5t-15.5 37.5q0 21 15 33t38 12h1001z" />
    <glyph glyph-name="uniFEA8" unicode="&#x62e;" horiz-adv-x="1300" arabic-form="medial" 
d="M614 1307q-29 0 -48 19t-19 48v39q0 29 19 48.5t48 19.5t49.5 -19.5t20.5 -48.5v-39q0 -29 -20 -48t-50 -19zM1157 98h143v-98h-1316q-22 0 -38 15.5t-16 37.5q0 21 15.5 33t38.5 12h1001q-16 32 -27 80.5t-22 127.5t-14 95q-32 178 -85 286.5t-145 168.5
q-148 98 -356 98q-64 0 -139 -10q-3 0 -9 -1t-8 -1q-55 0 -55 57q0 41 53 50q76 12 156 12q249 0 426 -121q106 -72 170.5 -200.5t97.5 -321.5q34 -198 53 -248q28 -70 76 -72z" />
    <glyph glyph-name="uniFEAA" unicode="&#x62f;" horiz-adv-x="1394" arabic-form="final" 
d="M1040 416q11 -156 100.5 -237t254.5 -81v-98q-139 0 -240 57t-154 164q-97 -221 -440 -221h-344q-22 0 -37.5 15.5t-15.5 37.5q0 21 15 33t38 12h342q199 0 287 78.5t88 257.5q0 230 -168 375t-438 145q-20 0 -34.5 15.5t-14.5 38.5t15 38t38 15q206 0 368 -79.5
t251 -221t89 -320.5v-24z" />
    <glyph glyph-name="uniFEAC" unicode="&#x630;" horiz-adv-x="1396" arabic-form="final" 
d="M602 1307q-29 0 -48 19t-19 48v39q0 29 19 48.5t48 19.5t49.5 -19.5t20.5 -48.5v-39q0 -29 -20 -48t-50 -19zM1040 463q0 -180 89.5 -272.5t267.5 -92.5v-98q-141 0 -242 57t-154 166q-92 -223 -440 -223h-344q-22 0 -37.5 15.5t-15.5 37.5q0 21 15 33t38 12h342
q199 0 287 78.5t88 257.5q0 230 -168 375t-438 145q-20 0 -34.5 15.5t-14.5 38.5t15 38t38 15q202 0 361.5 -76t250 -212.5t96.5 -309.5z" />
    <glyph glyph-name="uniFEAE" unicode="&#x631;" horiz-adv-x="772" arabic-form="final" 
d="M416 463q0 -180 89.5 -272.5t266.5 -92.5v-98q-239 0 -356 160v-254q0 -153 -49 -238q-70 -117 -211 -117q-46 0 -113 19q-41 14 -41 51q0 22 16.5 35.5t42.5 9.5q62 -12 93 -12q89 0 129 82q26 67 26 170v960q0 24 15 40t38 16q22 0 38 -16t16 -40v-403z" />
    <glyph glyph-name="uniFEB0" unicode="&#x632;" horiz-adv-x="772" arabic-form="final" 
d="M365 1163q-29 0 -48.5 19.5t-19.5 48.5v39q0 29 19.5 48t48.5 19t49 -19t20 -48v-39q0 -29 -20 -48.5t-49 -19.5zM416 463q0 -180 89.5 -272.5t266.5 -92.5v-98q-239 0 -356 160v-254q0 -153 -49 -238q-70 -117 -211 -117q-46 0 -113 19q-41 14 -41 51q0 22 16.5 35.5
t42.5 9.5q62 -12 93 -12q89 0 129 82q26 67 26 170v960q0 24 15 40t38 16q22 0 38 -16t16 -40v-403z" />
    <glyph glyph-name="uniFEB2" unicode="&#x633;" horiz-adv-x="3094" arabic-form="final" 
d="M2738 463q0 -180 89.5 -272.5t267.5 -92.5v-98q-142 0 -244.5 58.5t-153.5 168.5q-45 -114 -135.5 -170.5t-204.5 -56.5q-111 0 -200 58.5t-136 166.5q-45 -113 -135.5 -169t-204.5 -56q-186 0 -295 152v-5q0 -168 -43 -293.5t-123.5 -204t-191.5 -117t-252 -38.5
q-290 0 -451 161t-161 492v267q0 22 15.5 37.5t37.5 15.5t37.5 -15.5t15.5 -37.5v-267q0 -555 506 -555q242 0 373 136t131 419v803q0 22 15.5 38t37.5 16t37.5 -16t15.5 -38v-487q0 -176 79 -270.5t216 -94.5q122 0 198.5 89.5t76.5 275.5v487q0 22 15.5 38t37.5 16
t37.5 -16t15.5 -38v-487q0 -176 79 -270.5t216 -94.5q120 0 197.5 90t77.5 275v545q0 22 15.5 37.5t37.5 15.5t37.5 -15.5t15.5 -37.5v-545z" />
    <glyph glyph-name="uniFEB3" unicode="&#x633;" horiz-adv-x="2019" arabic-form="initial" 
d="M1761 1061q22 0 38 -15.5t16 -37.5v-545q0 -118 -30.5 -209t-84 -145.5t-121 -81.5t-145.5 -27q-111 0 -200 58.5t-136 166.5q-45 -113 -135.5 -169t-204.5 -56t-203.5 60.5t-136.5 172.5q-51 -114 -157 -173.5t-261 -59.5q-61 0 -61 49t61 49q177 0 266.5 92.5
t89.5 272.5v487q0 22 16 38t38 16t37.5 -16t15.5 -38v-487q0 -176 79 -270.5t216 -94.5q122 0 198 89.5t76 275.5v487q0 22 15.5 38t37.5 16t38 -16t16 -38v-487q0 -176 79 -270.5t216 -94.5q120 0 197 90t77 275v545q0 22 15.5 37.5t37.5 15.5z" />
    <glyph glyph-name="uniFEB4" unicode="&#x633;" horiz-adv-x="2170" arabic-form="medial" 
d="M1815 463q0 -180 89.5 -272.5t266.5 -92.5v-98q-142 0 -244 58.5t-153 168.5q-45 -114 -135.5 -170.5t-204.5 -56.5q-111 0 -200 58.5t-136 166.5q-45 -113 -135.5 -169t-204.5 -56t-203.5 60.5t-136.5 172.5q-51 -114 -157 -173.5t-261 -59.5q-61 0 -61 49t61 49
q177 0 266.5 92.5t89.5 272.5v487q0 22 16 38t38 16t37.5 -16t15.5 -38v-487q0 -176 79 -270.5t216 -94.5q122 0 198 89.5t76 275.5v487q0 22 15.5 38t37.5 16t38 -16t16 -38v-487q0 -176 79 -270.5t216 -94.5q120 0 197 90t77 275v545q0 22 15.5 37.5t37.5 15.5t38 -15.5
t16 -37.5v-545z" />
    <glyph glyph-name="uniFEB6" unicode="&#x634;" horiz-adv-x="3094" arabic-form="final" 
d="M2009 1534q-29 0 -48 19.5t-19 48.5v38q0 29 19 48.5t48 19.5t49.5 -19.5t20.5 -48.5v-38q0 -29 -20.5 -48.5t-49.5 -19.5zM1743 1268q-29 0 -48.5 19t-19.5 48v39q0 29 19.5 48.5t48.5 19.5t49 -19.5t20 -48.5v-39q0 -29 -20 -48t-49 -19zM2275 1268q-29 0 -48 19
t-19 48v39q0 29 19 48.5t48 19.5t49.5 -19.5t20.5 -48.5v-39q0 -29 -20 -48t-50 -19zM2738 463q0 -180 89.5 -272.5t267.5 -92.5v-98q-142 0 -244.5 58.5t-153.5 168.5q-45 -114 -135.5 -170.5t-204.5 -56.5q-111 0 -200 58.5t-136 166.5q-45 -113 -135.5 -169t-204.5 -56
q-186 0 -295 152v-5q0 -168 -43 -293.5t-123.5 -204t-191.5 -117t-252 -38.5q-290 0 -451 161t-161 492v267q0 22 15.5 37.5t37.5 15.5t37.5 -15.5t15.5 -37.5v-267q0 -555 506 -555q242 0 373 136t131 419v803q0 22 15.5 38t37.5 16t37.5 -16t15.5 -38v-487
q0 -176 79 -270.5t216 -94.5q122 0 198.5 89.5t76.5 275.5v487q0 22 15.5 38t37.5 16t37.5 -16t15.5 -38v-487q0 -176 79 -270.5t216 -94.5q120 0 197.5 90t77.5 275v545q0 22 15.5 37.5t37.5 15.5t37.5 -15.5t15.5 -37.5v-545z" />
    <glyph glyph-name="uniFEB7" unicode="&#x634;" horiz-adv-x="1978" arabic-form="initial" 
d="M1087 1534q-29 0 -48 19.5t-19 48.5v38q0 29 19 48.5t48 19.5t49.5 -19.5t20.5 -48.5v-38q0 -29 -20.5 -48.5t-49.5 -19.5zM821 1268q-29 0 -48 19t-19 48v39q0 29 19 48.5t48 19.5t49.5 -19.5t20.5 -48.5v-39q0 -29 -20 -48t-50 -19zM1354 1268q-29 0 -48.5 19t-19.5 48
v39q0 29 19.5 48.5t48.5 19.5t49 -19.5t20 -48.5v-39q0 -29 -20 -48t-49 -19zM1761 1061q22 0 38 -15.5t16 -37.5v-545q0 -118 -30.5 -209t-84 -145.5t-121 -81.5t-145.5 -27q-111 0 -200 58.5t-136 166.5q-45 -113 -135.5 -169t-204.5 -56t-203.5 60.5t-136.5 172.5
q-51 -114 -157 -173.5t-261 -59.5q-61 0 -61 49t61 49q177 0 266.5 92.5t89.5 272.5v487q0 22 16 38t38 16t37.5 -16t15.5 -38v-487q0 -176 79 -270.5t216 -94.5q122 0 198 89.5t76 275.5v487q0 22 15.5 38t37.5 16t38 -16t16 -38v-487q0 -176 79 -270.5t216 -94.5
q120 0 197 90t77 275v545q0 22 15.5 37.5t37.5 15.5z" />
    <glyph glyph-name="uniFEB8" unicode="&#x634;" horiz-adv-x="2170" arabic-form="medial" 
d="M1087 1534q-29 0 -48 19.5t-19 48.5v38q0 29 19 48.5t48 19.5t49.5 -19.5t20.5 -48.5v-38q0 -29 -20.5 -48.5t-49.5 -19.5zM821 1268q-29 0 -48 19t-19 48v39q0 29 19 48.5t48 19.5t49.5 -19.5t20.5 -48.5v-39q0 -29 -20 -48t-50 -19zM1354 1268q-29 0 -48.5 19t-19.5 48
v39q0 29 19.5 48.5t48.5 19.5t49 -19.5t20 -48.5v-39q0 -29 -20 -48t-49 -19zM1815 463q0 -180 89.5 -272.5t266.5 -92.5v-98q-142 0 -244 58.5t-153 168.5q-45 -114 -135.5 -170.5t-204.5 -56.5q-111 0 -200 58.5t-136 166.5q-45 -113 -135.5 -169t-204.5 -56t-203.5 60.5
t-136.5 172.5q-51 -114 -157 -173.5t-261 -59.5q-61 0 -61 49t61 49q177 0 266.5 92.5t89.5 272.5v487q0 22 16 38t38 16t37.5 -16t15.5 -38v-487q0 -176 79 -270.5t216 -94.5q122 0 198 89.5t76 275.5v487q0 22 15.5 38t37.5 16t38 -16t16 -38v-487q0 -176 79 -270.5
t216 -94.5q120 0 197 90t77 275v545q0 22 15.5 37.5t37.5 15.5t38 -15.5t16 -37.5v-545z" />
    <glyph glyph-name="uniFEBA" unicode="&#x635;" horiz-adv-x="3024" arabic-form="final" 
d="M2669 463q0 -180 89.5 -272.5t266.5 -92.5v-98q-144 0 -246.5 61t-152.5 175q-51 -115 -158.5 -175.5t-261.5 -60.5h-830q-23 -172 -104 -286t-205 -167t-291 -53q-290 0 -451 161t-161 492v267q0 22 15.5 37.5t37.5 15.5t37.5 -15.5t15.5 -37.5v-267q0 -555 506 -555
q242 0 373 136t131 419v861q0 22 15.5 37.5t37.5 15.5t37.5 -15.5t15.5 -37.5v-390q89 209 274.5 326t420.5 117q262 0 425 -164t163 -434zM2206 98q356 0 356 365q0 230 -129 360.5t-352 130.5q-137 0 -263 -49.5t-221.5 -137t-153 -217.5t-57.5 -280v-172h820z" />
    <glyph glyph-name="uniFEBB" unicode="&#x635;" horiz-adv-x="1757" arabic-form="initial" 
d="M1006 1061q262 0 424.5 -164t162.5 -434q0 -221 -121 -342t-342 -121h-1130q-61 0 -61 49t61 49h207v910q0 22 15.5 37.5t37.5 15.5t37.5 -15.5t15.5 -37.5v-385q89 206 274.5 322t418.5 116zM1130 98q357 0 357 365q0 230 -129 360.5t-352 130.5q-133 0 -256.5 -47.5
t-219 -131.5t-155 -208t-64.5 -268v-201h819z" />
    <glyph glyph-name="uniFEBC" unicode="&#x635;" horiz-adv-x="1949" arabic-form="medial" 
d="M1593 463q0 -180 89.5 -272.5t267.5 -92.5v-98q-144 0 -247 61t-153 175q-51 -115 -158.5 -175.5t-261.5 -60.5h-1130q-61 0 -61 49t61 49h207v910q0 22 15.5 37.5t37.5 15.5t37.5 -15.5t15.5 -37.5v-385q89 206 274.5 322t418.5 116q262 0 424.5 -164t162.5 -434z
M1130 98q357 0 357 365q0 230 -129 360.5t-352 130.5q-133 0 -256.5 -47.5t-219 -131.5t-155 -208t-64.5 -268v-201h819z" />
    <glyph glyph-name="uniFEBE" unicode="&#x636;" horiz-adv-x="3024" arabic-form="final" 
d="M1991 1307q-29 0 -48.5 19t-19.5 48v39q0 29 19.5 48.5t48.5 19.5t49 -19.5t20 -48.5v-39q0 -29 -20 -48t-49 -19zM2669 463q0 -180 89.5 -272.5t266.5 -92.5v-98q-144 0 -246.5 61t-152.5 175q-51 -115 -158.5 -175.5t-261.5 -60.5h-830q-23 -172 -104 -286t-205 -167
t-291 -53q-290 0 -451 161t-161 492v267q0 22 15.5 37.5t37.5 15.5t37.5 -15.5t15.5 -37.5v-267q0 -555 506 -555q242 0 373 136t131 419v861q0 22 15.5 37.5t37.5 15.5t37.5 -15.5t15.5 -37.5v-390q89 209 274.5 326t420.5 117q262 0 425 -164t163 -434zM2206 98
q356 0 356 365q0 230 -129 360.5t-352 130.5q-137 0 -263 -49.5t-221.5 -137t-153 -217.5t-57.5 -280v-172h820z" />
    <glyph glyph-name="uniFEBF" unicode="&#x636;" horiz-adv-x="1757" arabic-form="initial" 
d="M885 1251q-29 0 -48.5 19.5t-19.5 48.5v39q0 29 19.5 48t48.5 19t49 -19t20 -48v-39q0 -29 -20 -48.5t-49 -19.5zM1006 1061q262 0 424.5 -164t162.5 -434q0 -221 -121 -342t-342 -121h-1130q-61 0 -61 49t61 49h207v910q0 22 15.5 37.5t37.5 15.5t37.5 -15.5t15.5 -37.5
v-385q89 206 274.5 322t418.5 116zM1130 98q357 0 357 365q0 230 -129 360.5t-352 130.5q-133 0 -256.5 -47.5t-219 -131.5t-155 -208t-64.5 -268v-201h819z" />
    <glyph glyph-name="uniFEC0" unicode="&#x636;" horiz-adv-x="1949" arabic-form="medial" 
d="M885 1251q-29 0 -48.5 19.5t-19.5 48.5v39q0 29 19.5 48t48.5 19t49 -19t20 -48v-39q0 -29 -20 -48.5t-49 -19.5zM1593 463q0 -180 89.5 -272.5t267.5 -92.5v-98q-144 0 -247 61t-153 175q-51 -115 -158.5 -175.5t-261.5 -60.5h-1130q-61 0 -61 49t61 49h207v910
q0 22 15.5 37.5t37.5 15.5t37.5 -15.5t15.5 -37.5v-385q89 206 274.5 322t418.5 116q262 0 424.5 -164t162.5 -434zM1130 98q357 0 357 365q0 230 -129 360.5t-352 130.5q-133 0 -256.5 -47.5t-219 -131.5t-155 -208t-64.5 -268v-201h819z" />
    <glyph glyph-name="uniFEC2" unicode="&#x637;" horiz-adv-x="2172" arabic-form="final" 
d="M1817 463q0 -180 89.5 -272.5t266.5 -92.5v-98q-144 0 -246.5 61t-152.5 175q-51 -115 -158.5 -175.5t-261.5 -60.5h-1129q-61 0 -61 49t61 49h205v1352q0 22 15.5 37.5t37.5 15.5t38 -15.5t16 -37.5l-2 -829q88 207 274 323.5t420 116.5q262 0 425 -164t163 -434z
M1354 98q356 0 356 365q0 230 -129 360.5t-352 130.5q-134 0 -258 -48t-219 -132.5t-154 -209.5t-63 -271v-195h819z" />
    <glyph glyph-name="uniFEC3" unicode="&#x637;" horiz-adv-x="1755" arabic-form="initial" 
d="M1004 1061q262 0 424.5 -164t162.5 -434q0 -221 -121 -342t-342 -121h-1128q-61 0 -61 49t61 49h205v1352q0 22 15.5 37.5t37.5 15.5t37.5 -15.5t15.5 -37.5l-2 -829q88 207 274.5 323.5t420.5 116.5zM1128 98q357 0 357 365q0 230 -129 360.5t-352 130.5
q-134 0 -258 -48t-219.5 -132.5t-154.5 -209.5t-63 -271v-195h819z" />
    <glyph glyph-name="uniFEC4" unicode="&#x637;" horiz-adv-x="1947" arabic-form="medial" 
d="M1591 463q0 -180 89.5 -272.5t267.5 -92.5v-98q-144 0 -247 61t-153 175q-51 -115 -158.5 -175.5t-261.5 -60.5h-1128q-61 0 -61 49t61 49h205v1352q0 22 15.5 37.5t37.5 15.5t37.5 -15.5t15.5 -37.5l-2 -829q88 207 274.5 323.5t420.5 116.5q262 0 424.5 -164
t162.5 -434zM1128 98q357 0 357 365q0 230 -129 360.5t-352 130.5q-134 0 -258 -48t-219.5 -132.5t-154.5 -209.5t-63 -271v-195h819z" />
    <glyph glyph-name="uniFEC6" unicode="&#x638;" horiz-adv-x="2213" arabic-form="final" 
d="M1817 463q0 -180 89.5 -272.5t266.5 -92.5v-98q-144 0 -246.5 61t-152.5 175q-51 -115 -158.5 -175.5t-261.5 -60.5h-1129q-61 0 -61 49t61 49h205v1352q0 22 15.5 37.5t37.5 15.5t38 -15.5t16 -37.5l-2 -829q88 207 274 323.5t420 116.5q262 0 425 -164t163 -434z
M1130 1251q-29 0 -48 19.5t-19 48.5v39q0 29 19 48t48 19q30 0 50 -19t20 -48v-39q0 -29 -20.5 -48.5t-49.5 -19.5zM1354 98q356 0 356 365q0 230 -129 360.5t-352 130.5q-134 0 -258 -48t-219 -132.5t-154 -209.5t-63 -271v-195h819z" />
    <glyph glyph-name="uniFEC7" unicode="&#x638;" horiz-adv-x="1755" arabic-form="initial" 
d="M1004 1061q262 0 424.5 -164t162.5 -434q0 -221 -121 -342t-342 -121h-1128q-61 0 -61 49t61 49h205v1352q0 22 15.5 37.5t37.5 15.5t37.5 -15.5t15.5 -37.5l-2 -829q88 207 274.5 323.5t420.5 116.5zM905 1251q-29 0 -48 19.5t-19 48.5v39q0 29 19 48t48 19q30 0 50 -19
t20 -48v-39q0 -29 -20.5 -48.5t-49.5 -19.5zM1128 98q357 0 357 365q0 230 -129 360.5t-352 130.5q-134 0 -258 -48t-219.5 -132.5t-154.5 -209.5t-63 -271v-195h819z" />
    <glyph glyph-name="uniFEC8" unicode="&#x638;" horiz-adv-x="1947" arabic-form="medial" 
d="M1591 463q0 -180 89.5 -272.5t267.5 -92.5v-98q-144 0 -247 61t-153 175q-51 -115 -158.5 -175.5t-261.5 -60.5h-1128q-61 0 -61 49t61 49h205v1352q0 22 15.5 37.5t37.5 15.5t37.5 -15.5t15.5 -37.5l-2 -829q88 207 274.5 323.5t420.5 116.5q262 0 424.5 -164
t162.5 -434zM905 1251q-29 0 -48 19.5t-19 48.5v39q0 29 19 48t48 19q30 0 50 -19t20 -48v-39q0 -29 -20.5 -48.5t-49.5 -19.5zM1128 98q357 0 357 365q0 230 -129 360.5t-352 130.5q-134 0 -258 -48t-219.5 -132.5t-154.5 -209.5t-63 -271v-195h819z" />
    <glyph glyph-name="uniFECA" unicode="&#x639;" horiz-adv-x="1597" arabic-form="final" 
d="M684 0q-213 0 -313.5 -73.5t-100.5 -229.5q0 -155 101 -229t313 -74h125q61 0 61 -49q0 -23 -15.5 -36.5t-43.5 -13.5h-127q-256 0 -388 102t-132 300t131.5 299.5t388.5 101.5h27l-353 359q-30 30 -30 65q0 150 72.5 274.5t194.5 194.5t265 70q144 0 266 -70
t194.5 -194.5t72.5 -274.5q0 -34 -31 -65l-352 -359h587v-98h-630q-45 0 -76 31l-31 30l-31 -30q-31 -31 -75 -31h-70zM434 532l426 -434l426 434q-9 182 -131.5 302t-294.5 120t-294.5 -120t-131.5 -302z" />
    <glyph glyph-name="uniFECB" unicode="&#x639;" horiz-adv-x="1198" arabic-form="initial" 
d="M973 98q61 0 61 -49t-61 -49h-973q-29 0 -45 14.5t-16 34.5t16 34.5t45 14.5h365q-242 124 -242 430q0 122 43.5 224t117 168.5t168 103.5t197.5 37q140 0 283 -60q35 -14 35 -49q0 -21 -14 -37t-38 -16q-13 0 -28 6q-128 51 -236 51q-82 0 -157.5 -29t-134.5 -82
t-94.5 -135.5t-35.5 -181.5q0 -110 37.5 -195t101 -135t140 -75t162.5 -25h303z" />
    <glyph glyph-name="uniFECC" unicode="&#x639;" horiz-adv-x="1474" arabic-form="medial" 
d="M887 98h588v-98h-631q-72 0 -107 61q-22 -36 -46.5 -48.5t-59.5 -12.5h-631q-29 0 -45 14t-16 39q0 45 61 45h588l-352 359q-31 31 -31 65q0 150 72.5 274.5t194.5 194.5t265 70q144 0 266 -70t194.5 -194.5t72.5 -274.5q0 -34 -31 -65zM311 532l426 -434l426 434
q-9 182 -131.5 302t-294.5 120t-294.5 -120t-131.5 -302z" />
    <glyph glyph-name="uniFECE" unicode="&#x63a;" horiz-adv-x="1597" arabic-form="final" 
d="M795 1413q0 29 19 48.5t48 19.5t49.5 -19.5t20.5 -48.5v-39q0 -29 -20 -48t-50 -19q-29 0 -48 19t-19 48v39zM684 0q-213 0 -313.5 -73.5t-100.5 -229.5q0 -155 101 -229t313 -74h125q61 0 61 -49q0 -23 -15.5 -36.5t-43.5 -13.5h-127q-256 0 -388 102t-132 300
t131.5 299.5t388.5 101.5h27l-353 359q-30 30 -30 65q0 150 72.5 274.5t194.5 194.5t265 70q144 0 266 -70t194.5 -194.5t72.5 -274.5q0 -34 -31 -65l-352 -359h587v-98h-630q-45 0 -76 31l-31 30l-31 -30q-31 -31 -75 -31h-70zM434 532l426 -434l426 434q-9 182 -131.5 302
t-294.5 120t-294.5 -120t-131.5 -302z" />
    <glyph glyph-name="uniFECF" unicode="&#x63a;" horiz-adv-x="1198" arabic-form="initial" 
d="M618 1307q-29 0 -48 19t-19 48v39q0 29 19 48.5t48 19.5t49.5 -19.5t20.5 -48.5v-39q0 -29 -20 -48t-50 -19zM973 98q61 0 61 -49t-61 -49h-973q-29 0 -45 14.5t-16 34.5t16 34.5t45 14.5h365q-242 124 -242 430q0 122 43.5 224t117 168.5t168 103.5t197.5 37
q140 0 283 -60q35 -14 35 -49q0 -21 -14 -37t-38 -16q-13 0 -28 6q-128 51 -236 51q-82 0 -157.5 -29t-134.5 -82t-94.5 -135.5t-35.5 -181.5q0 -110 37.5 -195t101 -135t140 -75t162.5 -25h303z" />
    <glyph glyph-name="uniFED0" unicode="&#x63a;" horiz-adv-x="1474" arabic-form="medial" 
d="M668 1413q0 29 19 48.5t48 19.5t49.5 -19.5t20.5 -48.5v-39q0 -29 -20 -48t-50 -19q-29 0 -48 19t-19 48v39zM887 98h588v-98h-631q-72 0 -107 61q-22 -36 -46.5 -48.5t-59.5 -12.5h-631q-29 0 -45 14t-16 39q0 45 61 45h588l-352 359q-31 31 -31 65q0 150 72.5 274.5
t194.5 194.5t265 70q144 0 266 -70t194.5 -194.5t72.5 -274.5q0 -34 -31 -65zM311 532l426 -434l426 434q-9 182 -131.5 302t-294.5 120t-294.5 -120t-131.5 -302z" />
    <glyph glyph-name="uniFED2" unicode="&#x641;" horiz-adv-x="2390" arabic-form="final" 
d="M1655 1307q-29 0 -48.5 19t-19.5 48v39q0 29 19.5 48.5t48.5 19.5t49 -19.5t20 -48.5v-39q0 -29 -20 -48t-49 -19zM1939 98h451v-98h-1612q-299 0 -456.5 157.5t-157.5 456.5v152q0 22 15.5 37.5t37.5 15.5t37.5 -15.5t15.5 -37.5v-152q0 -248 130.5 -382t377.5 -134h576
q-90 73 -136.5 185.5t-46.5 238.5q0 102 31.5 197.5t90 172.5t151.5 123t207 46q92 0 170 -30t133.5 -81t94.5 -119.5t58 -145t19 -157.5q0 -127 -48 -242t-139 -188zM1278 524q0 -82 23.5 -157t68.5 -135.5t118 -97t163 -36.5t161.5 35.5t116 95t67.5 133t23 154.5
q0 66 -15 129t-45.5 119t-74 98.5t-104.5 67t-133 24.5q-88 0 -160 -36.5t-116.5 -98t-68.5 -137.5t-24 -158z" />
    <glyph glyph-name="uniFED3" unicode="&#x641;" horiz-adv-x="1339" arabic-form="initial" 
d="M700 1307q-29 0 -48 19t-19 48v39q0 29 19 48.5t48 19.5t49.5 -19.5t20.5 -48.5v-39q0 -29 -20 -48t-50 -19zM700 1061q114 0 206.5 -45.5t150 -121.5t88.5 -170t31 -196q0 -101 -31 -194t-89 -168.5t-151.5 -120.5t-208.5 -45h-20h-676q-61 0 -61 47q0 26 13.5 38.5
t47.5 12.5h403q-89 73 -135.5 185.5t-46.5 238.5q0 81 19 159t59 146.5t96 120.5t134.5 82.5t170.5 30.5zM700 98q90 0 162 35.5t116 95t67.5 133t23.5 154.5q0 66 -15 129t-46 119t-74.5 98.5t-104.5 67t-133 24.5q-117 0 -202.5 -63.5t-125.5 -159.5t-40 -207
q0 -82 23.5 -157t68 -135.5t117.5 -97t163 -36.5z" />
    <glyph glyph-name="uniFED4" unicode="&#x641;" horiz-adv-x="1394" arabic-form="medial" 
d="M705 1307q-29 0 -48.5 19t-19.5 48v39q0 29 19.5 48.5t48.5 19.5t49 -19.5t20 -48.5v-39q0 -29 -20 -48t-49 -19zM989 98h406v-98h-1395q-61 0 -61 47q0 26 13.5 38.5t47.5 12.5h403q-89 73 -135.5 185.5t-46.5 238.5q0 81 19 159t59 146.5t96 120.5t134.5 82.5
t170.5 30.5q114 0 206.5 -45.5t150 -121.5t88.5 -170t31 -196q0 -127 -48 -242t-139 -188zM328 524q0 -82 23.5 -157t68 -135.5t117.5 -97t163 -36.5t162 35.5t116 95t67.5 133t23.5 154.5q0 66 -15 129t-46 119t-74.5 98.5t-104.5 67t-133 24.5q-117 0 -202.5 -63.5
t-125.5 -159.5t-40 -207z" />
    <glyph glyph-name="uniFED6" unicode="&#x642;" horiz-adv-x="1857" arabic-form="final" 
d="M1014 1303q-29 0 -48.5 19t-19.5 48v39q0 29 19.5 48.5t48.5 19.5t49 -19.5t20 -48.5v-39q0 -29 -20 -48t-49 -19zM1341 1303q-29 0 -48 19t-19 48v39q0 29 19 48.5t48 19.5t49.5 -19.5t20.5 -48.5v-39q0 -29 -20 -48t-50 -19zM1653 98h205v-98h-205q0 -308 -184 -458
t-549 -150q-382 0 -569 172t-187 502v348q0 22 15.5 37.5t37.5 15.5t37.5 -15.5t15.5 -37.5v-348q0 -286 156 -427t494 -141q328 0 477 117t149 385h-366q-112 0 -203 44.5t-148 118.5t-87.5 166.5t-30.5 192.5q0 102 31.5 197.5t90 172t150 123t201.5 46.5q148 0 256 -76
t160.5 -200.5t52.5 -280.5v-406zM1184 98h362v410q0 193 -97.5 319.5t-268.5 126.5q-113 0 -198 -63.5t-126 -159.5t-41 -207q0 -110 41 -205t127 -158t201 -63z" />
    <glyph glyph-name="uniFED7" unicode="&#x642;" horiz-adv-x="1339" arabic-form="initial" 
d="M535 1307q-29 0 -48.5 19t-19.5 48v39q0 29 19.5 48.5t48.5 19.5t49 -19.5t20 -48.5v-39q0 -29 -20 -48t-49 -19zM862 1307q-29 0 -48 19t-19 48v39q0 29 19 48.5t48 19.5t49.5 -19.5t20.5 -48.5v-39q0 -29 -20 -48t-50 -19zM700 1061q114 0 206.5 -45.5t150 -121.5
t88.5 -170t31 -196q0 -101 -31 -194t-89 -168.5t-151.5 -120.5t-208.5 -45h-20h-676q-61 0 -61 47q0 26 13.5 38.5t47.5 12.5h403q-89 73 -135.5 185.5t-46.5 238.5q0 81 19 159t59 146.5t96 120.5t134.5 82.5t170.5 30.5zM700 98q90 0 162 35.5t116 95t67.5 133t23.5 154.5
q0 66 -15 129t-46 119t-74.5 98.5t-104.5 67t-133 24.5q-117 0 -202.5 -63.5t-125.5 -159.5t-40 -207q0 -82 23.5 -157t68 -135.5t117.5 -97t163 -36.5z" />
    <glyph glyph-name="uniFED8" unicode="&#x642;" horiz-adv-x="1394" arabic-form="medial" 
d="M537 1307q-29 0 -48.5 19t-19.5 48v39q0 29 19.5 48.5t48.5 19.5t49 -19.5t20 -48.5v-39q0 -29 -20 -48t-49 -19zM864 1307q-29 0 -48 19t-19 48v39q0 29 19 48.5t48 19.5t49.5 -19.5t20.5 -48.5v-39q0 -29 -20 -48t-50 -19zM989 98h406v-98h-1395q-61 0 -61 47
q0 26 13.5 38.5t47.5 12.5h403q-89 73 -135.5 185.5t-46.5 238.5q0 81 19 159t59 146.5t96 120.5t134.5 82.5t170.5 30.5q114 0 206.5 -45.5t150 -121.5t88.5 -170t31 -196q0 -127 -48 -242t-139 -188zM328 524q0 -82 23.5 -157t68 -135.5t117.5 -97t163 -36.5t162 35.5
t116 95t67.5 133t23.5 154.5q0 66 -15 129t-46 119t-74.5 98.5t-104.5 67t-133 24.5q-117 0 -202.5 -63.5t-125.5 -159.5t-40 -207z" />
    <glyph glyph-name="uniFEDA" unicode="&#x643;" horiz-adv-x="2146" arabic-form="final" 
d="M1790 463q0 -180 89.5 -272.5t266.5 -92.5v-98q-144 0 -246.5 61t-152.5 175q-51 -115 -158.5 -175.5t-261.5 -60.5h-549q-299 0 -456.5 157.5t-157.5 456.5v152q0 22 15.5 37.5t37.5 15.5t37.5 -15.5t15.5 -37.5v-152q0 -248 130.5 -382t377.5 -134h549
q177 0 266.5 92.5t89.5 272.5v987q0 22 16 37.5t38 15.5t37.5 -15.5t15.5 -37.5v-987zM840 905q-103 60 -103 182q0 101 71.5 166.5t178.5 65.5q73 0 158 -39q33 -17 33 -47q0 -21 -16 -35t-40 -14q-14 0 -26 6q-58 24 -109 24q-63 0 -101 -35t-38 -92q0 -63 44.5 -105.5
t108.5 -41.5q65 8 156 8q60 0 60 -49q0 -23 -16.5 -36t-45.5 -13q-178 0 -338 -59q-15 -5 -22 -5q-22 0 -36 16t-14 36q0 39 39 47q12 5 56 20z" />
    <glyph glyph-name="uniFEDB" unicode="&#x643;" horiz-adv-x="1144" arabic-form="initial" 
d="M567 930q195 -83 299.5 -213t104.5 -297q0 -198 -130.5 -309t-363.5 -111h-477q-25 0 -39 14.5t-14 34.5t14 34.5t39 14.5h477q187 0 287 83.5t100 238.5q0 136 -89 242.5t-259 177.5q-178 71 -414 100q-39 6 -61.5 31.5t-22.5 58.5q0 46 41 84q141 110 377 215t469 160
q6 2 21 2q24 0 39.5 -13t15.5 -36q0 -40 -53 -53q-479 -109 -801 -351q259 -30 440 -108z" />
    <glyph glyph-name="uniFEDC" unicode="&#x643;" horiz-adv-x="1325" arabic-form="medial" 
d="M971 408q14 -153 103 -232t251 -78v-98q-142 0 -243 58t-152 167q-53 -108 -169.5 -166.5t-283.5 -58.5h-477q-25 0 -39 14.5t-14 34.5t14 34.5t39 14.5h477q187 0 287 83.5t100 238.5q0 136 -89 242.5t-259 177.5q-178 71 -414 100q-39 6 -61.5 31.5t-22.5 58.5
q0 46 41 84q141 110 377 215t469 160q6 2 21 2q24 0 39.5 -13t15.5 -36q0 -40 -53 -53q-479 -109 -801 -351q259 -30 440 -108q195 -83 299.5 -213t104.5 -297v-12z" />
    <glyph glyph-name="uniFEDE" unicode="&#x644;" horiz-adv-x="1742" arabic-form="final" 
d="M1386 463q0 -180 89.5 -272.5t267.5 -92.5v-98q-240 0 -357 160v-13q0 -168 -43 -293.5t-123.5 -204t-191.5 -117t-252 -38.5q-290 0 -451 161t-161 492v267q0 22 15.5 37.5t37.5 15.5t37.5 -15.5t15.5 -37.5v-267q0 -555 506 -555q242 0 373 136t131 419v1303
q0 22 15.5 37.5t37.5 15.5t37.5 -15.5t15.5 -37.5v-987z" />
    <glyph glyph-name="uniFEDF" unicode="&#x644;" horiz-adv-x="626" arabic-form="initial" 
d="M356 463v987q0 22 16 37.5t38 15.5t37.5 -15.5t15.5 -37.5v-987q0 -221 -121 -342t-342 -121q-61 0 -61 49t61 49q177 0 266.5 92.5t89.5 272.5z" />
    <glyph glyph-name="uniFEE0" unicode="&#x644;" horiz-adv-x="819" arabic-form="medial" 
d="M463 463q0 -180 89.5 -272.5t266.5 -92.5v-98q-144 0 -246.5 61t-152.5 175q-51 -115 -158.5 -175.5t-261.5 -60.5q-61 0 -61 49t61 49q177 0 266.5 92.5t89.5 272.5v987q0 22 16 37.5t38 15.5t37.5 -15.5t15.5 -37.5v-987z" />
    <glyph glyph-name="uniFEE2" unicode="&#x645;" horiz-adv-x="1816" arabic-form="final" 
d="M1460 453q3 -174 93 -264.5t264 -90.5v-98q-154 0 -260 67.5t-150 194.5q-62 -124 -175.5 -193t-246.5 -69q-203 0 -360 154v-166q-2 -263 -92.5 -378.5t-307.5 -115.5q-61 0 -61 49t61 49q87 0 144 23t90 74.5t46 122t13 176.5v518q0 157 56 281.5t164.5 197t252.5 72.5
q143 0 252 -72.5t165 -192t56 -266.5q0 -27 -4 -73zM981 98q157 0 267 116.5t110 311.5q0 117 -41.5 212t-126.5 153.5t-199 58.5q-173 0 -270.5 -123.5t-95.5 -320.5v-232q78 -87 170.5 -131.5t185.5 -44.5z" />
    <glyph glyph-name="uniFEE3" unicode="&#x645;" horiz-adv-x="1402" arabic-form="initial" 
d="M766 1057q143 0 252 -72.5t165 -192t56 -266.5q0 -121 -39.5 -221.5t-106.5 -166.5t-153 -102t-180 -36q-117 0 -227 55.5t-193 167.5l-18 -41q-47 -94 -132 -138t-190 -44q-29 0 -45 14t-16 39q0 45 61 45q78 0 146 37t98 111q23 58 41 197t34 200q106 414 447 414z
M756 98q76 0 144 29t120 82.5t82.5 135.5t30.5 181q0 117 -41.5 212t-126.5 153.5t-199 58.5q-133 0 -215 -78.5t-125 -232.5q-20 -72 -38 -185t-23 -137q82 -110 184 -164.5t207 -54.5z" />
    <glyph glyph-name="uniFEE4" unicode="&#x645;" horiz-adv-x="1591" arabic-form="medial" 
d="M1235 453q3 -174 92.5 -264.5t263.5 -90.5v-98q-154 0 -259.5 67.5t-149.5 194.5q-62 -124 -175.5 -193t-246.5 -69q-117 0 -227 55.5t-193 167.5l-18 -41q-47 -94 -132 -138t-190 -44q-29 0 -45 14t-16 39q0 45 61 45q78 0 146 37t98 111q23 58 41 197t34 200
q106 414 447 414q143 0 252 -72.5t165 -192t56 -266.5q0 -27 -4 -73zM756 98q76 0 144 29t120 82.5t82.5 135.5t30.5 181q0 117 -41.5 212t-126.5 153.5t-199 58.5q-133 0 -215 -78.5t-125 -232.5q-20 -72 -38 -185t-23 -137q82 -110 184 -164.5t207 -54.5z" />
    <glyph glyph-name="uniFEE6" unicode="&#x646;" horiz-adv-x="1742" arabic-form="final" 
d="M774 791q-29 0 -48 19t-19 48v39q0 29 19 48.5t48 19.5t49.5 -19.5t20.5 -48.5v-39q0 -29 -20 -48t-50 -19zM1386 463q0 -180 89.5 -272.5t267.5 -92.5v-98q-240 0 -357 160v-13q0 -168 -43 -293.5t-123.5 -204t-191.5 -117t-252 -38.5q-290 0 -451 161t-161 492v267
q0 22 15.5 37.5t37.5 15.5t37.5 -15.5t15.5 -37.5v-267q0 -555 506 -555q242 0 373 136t131 419v619q0 22 15.5 37.5t37.5 15.5t37.5 -15.5t15.5 -37.5v-303z" />
    <glyph glyph-name="uniFEE7" unicode="&#x646;" horiz-adv-x="643" arabic-form="initial" 
d="M342 1274q0 29 19.5 48t48.5 19t49 -19t20 -48v-39q0 -29 -20 -48.5t-49 -19.5t-48.5 19.5t-19.5 48.5v39zM356 463v405q0 22 16 38t38 16t37.5 -16t15.5 -38v-405q0 -221 -121 -342t-342 -121q-29 0 -45 14t-16 39q0 45 61 45q177 0 266.5 92.5t89.5 272.5z" />
    <glyph glyph-name="uniFEE8" unicode="&#x646;" horiz-adv-x="819" arabic-form="medial" 
d="M410 1167q-29 0 -48.5 19.5t-19.5 48.5v39q0 29 19.5 48t48.5 19t49 -19t20 -48v-39q0 -29 -20 -48.5t-49 -19.5zM463 463q0 -180 89.5 -272.5t266.5 -92.5v-98q-144 0 -246.5 61t-152.5 175q-51 -115 -158.5 -175.5t-261.5 -60.5q-29 0 -45 14t-16 39q0 45 61 45
q177 0 266.5 92.5t89.5 272.5v405q0 22 16 38t38 16t37.5 -16t15.5 -38v-405z" />
    <glyph glyph-name="uniFEEA" unicode="&#x647;" horiz-adv-x="1464" arabic-form="final" 
d="M1108 463q0 -180 89.5 -272.5t266.5 -92.5v-98q-179 0 -293.5 80t-152.5 231q-53 -131 -164 -201.5t-274 -70.5q-187 0 -301.5 128.5t-114.5 340.5q0 247 173 396t456 149q97 0 208 -21v62q0 29 14.5 45t39.5 16t39 -16t14 -45v-631zM600 135q183 0 292 126t109 327v352
q-115 23 -198 23q-238 0 -385.5 -127t-147.5 -332q0 -176 87.5 -272.5t242.5 -96.5z" />
    <glyph glyph-name="uniFEEB" unicode="&#x647;" horiz-adv-x="1589" arabic-form="initial" 
d="M633 1292q166 0 311.5 -49.5t252 -138t167.5 -218t61 -282.5q0 -267 -147.5 -435.5t-382.5 -168.5h-895q-22 0 -37.5 15.5t-15.5 37.5q0 21 15 33t38 12h289q-57 59 -87 141.5t-30 172.5q0 105 39 195.5t123.5 151t200.5 60.5q88 0 158.5 -35t114 -93t66.5 -130t23 -151
q0 -90 -30 -172.5t-87 -139.5h115q186 0 305 142.5t119 363.5q0 173 -94 308t-252 206.5t-350 71.5q-166 0 -334 -55q-21 -7 -31 -7q-23 0 -36 14t-13 34q0 40 45 55q186 61 379 61zM272 410q0 -126 70 -219t193 -93t191.5 91.5t68.5 216.5q0 81 -28.5 150.5t-90.5 116
t-146 46.5q-122 0 -190 -91.5t-68 -217.5z" />
    <glyph glyph-name="uniFEEC" unicode="&#x647;" horiz-adv-x="1767" arabic-form="medial" 
d="M1413 463q0 -180 89.5 -272.5t266.5 -92.5v-98q-158 0 -266 73t-149 208q-68 -132 -187.5 -206.5t-271.5 -74.5h-895q-22 0 -37.5 15.5t-15.5 37.5q0 21 15 33t38 12h289q-57 59 -87 141.5t-30 172.5q0 105 39 195.5t123.5 151t200.5 60.5q88 0 158.5 -35t114 -93
t66.5 -130t23 -151q0 -90 -30 -172.5t-87 -139.5h115q186 0 305 142.5t119 363.5q0 173 -94 308t-252 206.5t-350 71.5q-166 0 -334 -55q-21 -7 -31 -7q-23 0 -36 14t-13 34q0 40 45 55q186 61 379 61q166 0 311.5 -49.5t252 -138t167.5 -218t61 -282.5q0 -74 -12 -141z
M272 410q0 -126 70 -219t193 -93t191.5 91.5t68.5 216.5q0 81 -28.5 150.5t-90.5 116t-146 46.5q-122 0 -190 -91.5t-68 -217.5z" />
    <glyph glyph-name="uniFEEE" unicode="&#x648;" horiz-adv-x="1310" arabic-form="final" 
d="M1311 98v-98h-217q-32 -252 -160.5 -380t-384.5 -128q-28 0 -90 4q-23 2 -38 15t-15 34q0 20 14.5 34.5t34.5 14.5q16 0 43.5 -1t40.5 -1q73 0 129 9t111.5 35t94 70t69 118t44.5 176h-354q-112 0 -203 44.5t-148 118.5t-87.5 166.5t-30.5 192.5q0 102 31.5 197.5t90 172
t150 123t201.5 46.5q148 0 256 -76t160.5 -200.5t52.5 -280.5v-283q0 -45 -4 -123h209zM637 98h358q4 74 4 121v289q0 193 -97.5 319.5t-268.5 126.5q-113 0 -198 -63.5t-126 -159.5t-41 -207q0 -110 41 -205t127 -158t201 -63z" />
    <glyph glyph-name="uniFEF0" unicode="&#x649;" horiz-adv-x="1720" arabic-form="final" 
d="M1720 98v-98q-49 0 -131 4q53 -73 53 -201q0 -220 -156 -313.5t-493 -93.5h-121q-359 0 -533.5 174t-174.5 553v283q0 29 14 45t39 16t39 -16t14 -45v-283q0 -336 145.5 -482.5t456.5 -146.5h121q298 0 420.5 65.5t122.5 243.5q0 103 -44 159t-163 87q-126 32 -205 49
q-45 9 -45 52q0 23 18.5 39t47.5 10q63 -12 175 -41t203 -44.5t197 -15.5z" />
    <glyph glyph-name="uniFEF2" unicode="&#x64a;" horiz-adv-x="1720" arabic-form="final" 
d="M1720 98v-98q-49 0 -131 4q53 -73 53 -201q0 -220 -156 -313.5t-493 -93.5h-121q-359 0 -533.5 174t-174.5 553v283q0 29 14 45t39 16t39 -16t14 -45v-283q0 -336 145.5 -482.5t456.5 -146.5h121q298 0 420.5 65.5t122.5 243.5q0 103 -44 159t-163 87q-126 32 -205 49
q-45 9 -45 52q0 23 18.5 39t47.5 10q63 -12 175 -41t203 -44.5t197 -15.5zM711 -897q0 29 19 48.5t48 19.5t49.5 -19.5t20.5 -48.5v-39q0 -29 -20.5 -48.5t-49.5 -19.5t-48 19.5t-19 48.5v39zM1038 -897q0 29 19.5 48.5t48.5 19.5t49.5 -19.5t20.5 -48.5v-39
q0 -29 -20.5 -48.5t-49.5 -19.5t-48.5 19.5t-19.5 48.5v39z" />
    <glyph glyph-name="uniFEF3" unicode="&#x64a;" horiz-adv-x="626" arabic-form="initial" 
d="M356 463v405q0 22 16 38t38 16t37.5 -16t15.5 -38v-405q0 -221 -121 -342t-342 -121q-29 0 -45 14t-16 39q0 45 61 45q177 0 266.5 92.5t89.5 272.5zM80 -313q0 29 19 48t48 19q30 0 50 -19t20 -48v-39q0 -29 -20.5 -48.5t-49.5 -19.5t-48 19.5t-19 48.5v39zM408 -313
q0 29 19 48t48 19q30 0 50 -19t20 -48v-39q0 -29 -20.5 -48.5t-49.5 -19.5t-48 19.5t-19 48.5v39z" />
    <glyph glyph-name="uniFEF4" unicode="&#x64a;" horiz-adv-x="819" arabic-form="medial" 
d="M463 463q0 -180 89.5 -272.5t266.5 -92.5v-98q-144 0 -246.5 61t-152.5 175q-51 -115 -158.5 -175.5t-261.5 -60.5q-29 0 -45 14t-16 39q0 45 61 45q177 0 266.5 92.5t89.5 272.5v405q0 22 16 38t38 16t37.5 -16t15.5 -38v-405zM244 -246q29 0 49 -19t20 -48v-39
q0 -29 -20 -48.5t-49 -19.5t-48.5 19.5t-19.5 48.5v39q0 29 19.5 48t48.5 19zM571 -246q30 0 50 -19t20 -48v-39q0 -29 -20.5 -48.5t-49.5 -19.5t-48 19.5t-19 48.5v39q0 29 19 48t48 19z" />
    <glyph glyph-name=".notdef" horiz-adv-x="1024" 
d="M0 1638h1024v-2048h-1024v2048zM512 737l367 799h-734zM455 614l-353 770v-1540zM569 614l353 -770v1540zM145 -307h734l-367 799z" />
    <glyph glyph-name=".null" 
 />
    <glyph glyph-name="nonmarkingreturn" horiz-adv-x="682" 
 />
    <glyph glyph-name="space" unicode=" " horiz-adv-x="409" 
 />
    <glyph glyph-name="exclam" unicode="!" horiz-adv-x="516" 
d="M195 1389q0 22 14.5 36.5t36.5 14.5h24q22 0 37 -14.5t15 -36.5l-33 -990q0 -12 -9.5 -21t-21.5 -9t-21.5 9t-9.5 21zM190 115q0 29 19.5 48t48.5 19t48.5 -19t19.5 -48v-56q0 -29 -19.5 -48t-48.5 -19t-48.5 19t-19.5 48v56z" />
    <glyph glyph-name="quotedbl" unicode="&#x22;" horiz-adv-x="839" 
d="M205 1384q9 54 57 54h39q33 0 33 -35q0 -4 -10 -49l-117 -412q-6 -20 -14 -28.5t-21 -8.5q-34 0 -29 39zM573 1384q9 54 58 54h39q32 0 32 -35q0 -4 -10 -49l-117 -412q-6 -21 -13.5 -29t-20.5 -8q-34 0 -29 39z" />
    <glyph glyph-name="numbersign" unicode="#" horiz-adv-x="1433" 
d="M348 383h-207q-20 0 -34.5 13.5t-14.5 33.5t14.5 34.5t34.5 14.5h224l84 484h-226q-20 0 -34.5 13.5t-14.5 33.5t14.5 34.5t34.5 14.5h242l57 338q3 20 17 32.5t34 12.5q25 0 36.5 -18t8.5 -42l-55 -323h424l57 338q3 20 17.5 32.5t34.5 12.5q25 0 36.5 -18t8.5 -42
l-56 -323h205q20 0 34.5 -13.5t14.5 -33.5t-14.5 -34.5t-34.5 -14.5h-221l-84 -484h223q20 0 34.5 -13.5t14.5 -33.5t-14.5 -34.5t-34.5 -14.5h-239l-60 -346q-3 -20 -17 -32.5t-34 -12.5q-25 0 -36.5 17.5t-8.5 41.5l57 332h-424l-59 -346q-3 -20 -17 -32.5t-34 -12.5
q-25 0 -36.5 17.5t-8.5 41.5zM887 479l84 484h-424l-84 -484h424z" />
    <glyph glyph-name="dollar" unicode="$" horiz-adv-x="1294" 
d="M608 1511q0 20 14.5 35t34.5 15t35 -15t15 -35v-81q106 -9 191 -44t173 -100q29 -23 29 -47q0 -22 -15.5 -36.5t-37.5 -14.5q-21 0 -37 14q-144 115 -308 133v-573q233 -49 338 -140.5t105 -242.5q0 -162 -122.5 -267.5t-315.5 -111.5v-160q0 -20 -15 -34.5t-35 -14.5
t-34.5 14.5t-14.5 34.5v162q-255 20 -461 199q-22 19 -22 43q0 20 15.5 35.5t35.5 15.5q23 0 37 -14q179 -165 399 -187v584q-230 51 -332 141t-102 244q0 156 121.5 261.5t308.5 109.5v77zM283 1071q0 -55 14.5 -95.5t51 -77t101 -65t162.5 -51.5v559q-147 -3 -238 -80.5
t-91 -189.5zM1040 371q0 111 -73 177t-265 109v-565q152 3 245 81.5t93 197.5z" />
    <glyph glyph-name="percent" unicode="%" horiz-adv-x="1687" 
d="M426 717q-137 0 -225 107.5t-88 254.5v4q0 97 39 180.5t112.5 135t165.5 51.5q91 0 163.5 -51.5t111 -134t38.5 -177.5v-4q0 -149 -89 -257.5t-228 -108.5zM299 35q0 15 8 26l998 1358q16 23 38 23q19 0 32.5 -12.5t13.5 -30.5q0 -15 -9 -27l-997 -1358q-16 -22 -39 -22
q-19 0 -32 12t-13 31zM430 805q90 0 148.5 78.5t58.5 195.5v4q0 119 -62 199t-149 80q-89 0 -148 -80.5t-59 -194.5v-4q0 -120 61.5 -199t149.5 -79zM1257 -16q-137 0 -225 107.5t-88 254.5v4q0 149 89.5 258t228.5 109q91 0 163.5 -51.5t111 -134t38.5 -177.5v-4
q0 -149 -89.5 -257.5t-228.5 -108.5zM1262 72q90 0 148 78.5t58 195.5v4q0 119 -62 199t-149 80q-89 0 -147.5 -80t-58.5 -195v-4q0 -120 61.5 -199t149.5 -79z" />
    <glyph glyph-name="ampersand" unicode="&#x26;" horiz-adv-x="1228" 
 />
    <glyph glyph-name="quotesingle" unicode="'" horiz-adv-x="471" 
d="M205 1384q9 54 57 54h39q33 0 33 -35q0 -4 -10 -49l-117 -412q-6 -20 -14 -28.5t-21 -8.5q-34 0 -29 39z" />
    <glyph glyph-name="parenleft" unicode="(" horiz-adv-x="880" 
d="M719 -285q-13 0 -25 6q-264 155 -406.5 375.5t-142.5 491.5t142.5 491t406.5 375q12 6 25 6q17 0 28 -11t11 -28q0 -24 -23 -37q-483 -308 -483 -796q0 -489 483 -797q23 -13 23 -37q0 -17 -11 -28t-28 -11z" />
    <glyph glyph-name="parenright" unicode=")" horiz-adv-x="880" 
d="M162 -285q-17 0 -28 11t-11 28q0 24 22 37q484 309 484 797q0 487 -484 796q-22 13 -22 37q0 17 11 28t28 11q12 0 24 -6q264 -155 406.5 -375t142.5 -491t-142.5 -491.5t-406.5 -375.5q-12 -6 -24 -6z" />
    <glyph glyph-name="asterisk" unicode="*" horiz-adv-x="880" 
d="M416 1092l-187 -127q-20 -13 -32 -13q-17 0 -29 13t-12 30q0 27 28 39l211 101l-211 100q-28 14 -28 39q0 17 12 29t29 14q14 0 32 -12l187 -127l-17 223v4q0 17 12 29t29 12q19 0 31 -13t10 -32l-16 -223l186 127q18 12 33 12q17 0 29 -13t12 -30q0 -27 -29 -39
l-211 -100l211 -101q29 -12 29 -39q0 -17 -12 -30t-29 -13q-14 0 -33 13l-186 127l16 -224v-4q0 -17 -12 -29t-29 -12q-19 0 -31 13t-10 32z" />
    <glyph glyph-name="plus" unicode="+" horiz-adv-x="1269" 
d="M584 672h-404q-20 0 -34.5 14.5t-14.5 34.5t14.5 34.5t34.5 14.5h404v397q0 22 14.5 37t36.5 15t36.5 -15t14.5 -37v-397h404q20 0 34.5 -14.5t14.5 -34.5t-14.5 -34.5t-34.5 -14.5h-404v-398q0 -22 -14.5 -36.5t-36.5 -14.5t-36.5 14.5t-14.5 36.5v398z" />
    <glyph glyph-name="comma" unicode="," horiz-adv-x="471" 
d="M111 -184q0 16 16 26q56 31 78 67.5t18 90.5q-55 14 -55 72v43q0 29 19.5 48t48.5 19t48 -19t19 -48v-52q0 -158 -55 -213q-26 -26 -59 -45.5t-48 -19.5q-11 0 -20.5 8.5t-9.5 22.5z" />
    <glyph glyph-name="hyphen" unicode="-" horiz-adv-x="835" 
d="M193 551q-23 0 -40.5 17t-17.5 40t17.5 40.5t40.5 17.5h450q23 0 40 -17.5t17 -40.5t-17 -40t-40 -17h-450z" />
    <glyph glyph-name="period" unicode="." horiz-adv-x="471" 
d="M168 115q0 29 19.5 48t48.5 19t48 -19t19 -48v-56q0 -29 -19 -48t-48 -19t-48.5 19t-19.5 48v56z" />
    <glyph glyph-name="slash" unicode="/" horiz-adv-x="1024" 
d="M-12 -227q0 14 6 26l926 1815q14 28 43 28q19 0 31 -12t12 -31q0 -12 -7 -26l-925 -1815q-14 -28 -43 -28q-19 0 -31 12t-12 31z" />
    <glyph glyph-name="zero" unicode="0" horiz-adv-x="1454" 
d="M725 -25q-133 0 -246 60t-187.5 161t-116.5 235t-42 282v4q0 148 42.5 282.5t118 236t189 162t246.5 60.5t245.5 -59.5t187.5 -161t117 -235t42 -281.5v-4q0 -148 -42.5 -282.5t-118 -236.5t-189 -162.5t-246.5 -60.5zM729 72q108 0 200 53.5t152.5 142.5t94.5 204.5
t34 240.5v4q0 125 -34.5 241.5t-96 206t-154 143.5t-200.5 54q-87 0 -164 -34.5t-134 -95t-99 -141.5t-63 -175.5t-21 -194.5v-4q0 -125 34.5 -241t96 -206t154 -144t200.5 -54z" />
    <glyph glyph-name="one" unicode="1" horiz-adv-x="686" 
d="M367 1337l-234 -80q-15 -6 -27 -6q-19 0 -32 13t-13 32q0 31 39 45l250 93q40 14 66 14h4q24 0 37.5 -15t13.5 -36v-1352q0 -22 -14.5 -37.5t-36.5 -15.5t-37.5 15.5t-15.5 37.5v1292z" />
    <glyph glyph-name="two" unicode="2" horiz-adv-x="1208" 
d="M90 49q0 23 25 45l518 469q178 161 247.5 268.5t69.5 221.5q0 136 -95 221.5t-228 85.5q-126 0 -220.5 -59.5t-181.5 -180.5q-16 -22 -41 -22q-20 0 -34.5 13.5t-14.5 33.5q0 15 8 26q65 94 129 153t156 94.5t209 35.5q183 0 304.5 -112.5t121.5 -280.5v-4
q0 -74 -19.5 -137t-66.5 -130.5t-109 -132.5t-163 -157l-439 -398h768q22 0 36.5 -14.5t14.5 -36.5t-14.5 -36.5t-36.5 -14.5h-893q-22 0 -36.5 13.5t-14.5 35.5z" />
    <glyph glyph-name="three" unicode="3" horiz-adv-x="1249" 
d="M637 -25q-160 0 -289.5 64t-220.5 174q-14 19 -14 37q0 22 15.5 37.5t37.5 15.5q27 0 43 -20q177 -211 430 -211q148 0 251 89.5t103 227.5v4q0 147 -123.5 229.5t-322.5 82.5h-51q-21 0 -35.5 13.5t-14.5 33.5q0 17 19 39l471 542h-709q-22 0 -36.5 13.5t-14.5 35.5
t14.5 37t36.5 15h815q21 0 34.5 -12.5t13.5 -32.5t-19 -43l-475 -543q105 -6 194.5 -34t161 -76.5t112 -124.5t40.5 -171v-4q0 -121 -65 -218t-171.5 -148.5t-230.5 -51.5z" />
    <glyph glyph-name="four" unicode="4" horiz-adv-x="1359" 
d="M911 350h-759q-25 0 -40.5 15.5t-15.5 40.5q0 20 17 43l790 976q20 27 51 27q26 0 43 -16.5t17 -42.5v-951h194q19 0 33 -14t14 -33t-14 -32t-33 -13h-194v-307q0 -22 -14.5 -36.5t-36.5 -14.5t-37 14.5t-15 36.5v307zM911 442v848l-684 -848h684z" />
    <glyph glyph-name="five" unicode="5" horiz-adv-x="1239" 
d="M618 -25q-130 0 -254.5 57t-218.5 148q-22 22 -22 47q0 19 15 34t36 15q27 0 45 -18q196 -186 404 -186q169 0 277 102t108 258v4q0 152 -110 246t-284 94q-64 0 -123 -12.5t-93 -27.5t-62.5 -27.5t-38.5 -12.5q-29 0 -59 19q-30 21 -27 71l35 590q1 28 16.5 43t38.5 15
h711q22 0 36.5 -15t14.5 -37t-14.5 -36.5t-36.5 -14.5h-668l-35 -536q157 77 318 77q137 0 249 -54t177 -153.5t65 -224.5v-4q0 -198 -142 -329.5t-358 -131.5z" />
    <glyph glyph-name="six" unicode="6" horiz-adv-x="1314" 
d="M678 -25q-108 0 -203.5 39t-161.5 105q-94 94 -138 220t-44 339v4q0 216 71 392t205 280t308 104q110 0 201.5 -35t181.5 -106q22 -19 22 -43q0 -22 -15.5 -37.5t-37.5 -15.5q-18 0 -33 12q-157 129 -327 129q-144 0 -252.5 -94.5t-165 -263.5t-51.5 -386
q158 267 448 267q130 0 242.5 -54t182 -155t69.5 -225v-5q0 -133 -66 -241t-181 -169t-255 -61zM686 72q170 0 276.5 107t106.5 263v4q0 149 -110 247t-279 98q-86 0 -161.5 -30.5t-127 -80.5t-81 -114t-29.5 -130v-4q0 -154 116 -257t289 -103z" />
    <glyph glyph-name="seven" unicode="7" horiz-adv-x="1202" 
d="M346 41q0 15 8 31l617 1259h-789q-22 0 -36.5 14.5t-14.5 36.5t14.5 37t36.5 15h865q22 0 36.5 -13.5t14.5 -34.5q0 -14 -13 -40l-634 -1317q-7 -15 -21 -26t-31 -11q-22 0 -37.5 14t-15.5 35z" />
    <glyph glyph-name="eight" unicode="8" horiz-adv-x="1290" 
d="M645 -20q-149 0 -270.5 50.5t-191.5 143t-70 209.5v4q0 121 88 214.5t229 139.5q-118 48 -193 131.5t-75 202.5v4q0 108 69 195t179 133.5t235 46.5t235 -46.5t179 -133.5t69 -195v-4q0 -119 -75 -202.5t-193 -131.5q141 -46 229.5 -139.5t88.5 -214.5v-4
q0 -117 -70.5 -209.5t-192 -143t-270.5 -50.5zM645 780q156 0 264.5 83t108.5 212v4q0 121 -107.5 200t-265.5 79t-265.5 -79t-107.5 -200v-4q0 -129 108.5 -212t264.5 -83zM645 76q191 0 306.5 88t115.5 215v4q0 132 -122.5 219.5t-299.5 87.5t-299.5 -87.5t-122.5 -219.5
v-4q0 -127 115.5 -215t306.5 -88z" />
    <glyph glyph-name="nine" unicode="9" horiz-adv-x="1314" 
d="M600 -25q-211 0 -407 158q-23 20 -23 43q0 22 14.5 37.5t36.5 15.5t39 -14q169 -143 342 -143q143 0 254 94.5t170 263.5t51 381q-154 -276 -446 -276q-215 0 -355.5 126t-140.5 312v4q0 202 142 341.5t362 139.5t365 -145q88 -88 134 -220.5t46 -338.5v-4
q0 -222 -76 -399.5t-209.5 -276.5t-298.5 -99zM635 629q88 0 164.5 31.5t127 83t79 116.5t28.5 133v4q0 154 -115.5 259.5t-291.5 105.5q-114 0 -202.5 -54t-133.5 -140t-45 -187v-4q0 -151 109.5 -249.5t279.5 -98.5z" />
    <glyph glyph-name="colon" unicode=":" horiz-adv-x="491" 
d="M178 985q0 29 19.5 48.5t48.5 19.5t48 -19.5t19 -48.5v-55q0 -29 -19 -48.5t-48 -19.5t-48.5 19.5t-19.5 48.5v55zM178 115q0 29 19.5 48t48.5 19t48 -19t19 -48v-56q0 -29 -19 -48t-48 -19t-48.5 19t-19.5 48v56z" />
    <glyph glyph-name="semicolon" unicode=";" horiz-adv-x="491" 
d="M178 985q0 29 19.5 48.5t48.5 19.5t48 -19.5t19 -48.5v-55q0 -29 -19 -48.5t-48 -19.5t-48.5 19.5t-19.5 48.5v55zM121 -184q0 16 16 26q56 31 78 67.5t18 90.5q-55 14 -55 72v43q0 29 19.5 48t48.5 19t48 -19t19 -48v-52q0 -158 -55 -213q-26 -26 -59 -45.5t-47 -19.5
q-12 0 -21.5 8.5t-9.5 22.5z" />
    <glyph glyph-name="less" unicode="&#x3c;" horiz-adv-x="1269" 
d="M1042 213q-14 0 -30 8l-852 443q-37 19 -37 55v4q0 36 37 55l852 443q16 8 30 8q20 0 32.5 -14t12.5 -35q0 -29 -32 -47l-801 -410l801 -414q32 -18 32 -47q0 -21 -12.5 -35t-32.5 -14z" />
    <glyph glyph-name="equal" unicode="=" horiz-adv-x="1269" 
d="M215 899q-22 0 -37.5 14.5t-15.5 36.5t15.5 38t37.5 16h840q22 0 37.5 -16t15.5 -38t-15.5 -36.5t-37.5 -14.5h-840zM215 438q-22 0 -37.5 14.5t-15.5 36.5t15.5 38t37.5 16h840q22 0 37.5 -16t15.5 -38t-15.5 -36.5t-37.5 -14.5h-840z" />
    <glyph glyph-name="greater" unicode="&#x3e;" horiz-adv-x="1269" 
d="M227 1229q15 0 31 -8l852 -443q37 -19 37 -55v-4q0 -36 -37 -55l-852 -443q-16 -8 -31 -8q-20 0 -32.5 14t-12.5 35q0 29 33 47l801 410l-801 414q-33 18 -33 47q0 21 12.5 35t32.5 14z" />
    <glyph glyph-name="question" unicode="?" horiz-adv-x="1093" 
d="M500 367q-30 0 -33 36l-23 265q-2 21 11.5 35.5t36.5 15.5q177 11 282 95t105 230v5q0 130 -93.5 219.5t-246.5 89.5q-212 0 -375 -187q-17 -20 -41 -20q-20 0 -33.5 12.5t-13.5 32.5t12 35q187 221 455 221q198 0 321 -115.5t123 -283.5v-4q0 -92 -34 -167.5t-94 -126
t-137.5 -82t-168.5 -42.5l-16 -228q-3 -36 -33 -36h-4zM434 115q0 29 19.5 48t48.5 19t48 -19t19 -48v-56q0 -29 -19 -48t-48 -19t-48.5 19t-19.5 48v56z" />
    <glyph glyph-name="at" unicode="@" horiz-adv-x="2007" 
d="M1022 -332q-129 0 -249.5 32.5t-220.5 90.5t-183 140.5t-140 180.5t-88.5 213t-31.5 236q0 181 70 346t189.5 286t286 193t351.5 72q184 0 350.5 -66.5t284.5 -177t187.5 -259t69.5 -308.5q0 -126 -33 -224.5t-88 -156t-119 -87t-132 -29.5q-106 0 -179 50.5t-100 139.5
q-72 -89 -155 -139.5t-195 -50.5q-152 0 -257 102t-105 262q0 106 42.5 202.5t110 163t153 105.5t171.5 39q114 0 189 -51.5t116 -130.5l22 121q9 49 52 49q24 0 38 -19.5t9 -44.5l-70 -397q-18 -108 -18 -148q0 -87 48 -133.5t136 -46.5q56 0 107 25t94 74.5t68.5 133.5
t25.5 191q0 140 -63 275t-171 239t-263 168t-326 64q-174 0 -328.5 -66t-263.5 -178t-172.5 -265.5t-63.5 -322.5q0 -170 63 -322.5t173 -263.5t268 -176t340 -65q146 0 262.5 32t235.5 99q8 4 20 4q10 0 18.5 -9t8.5 -20q0 -16 -15 -26q-247 -146 -530 -146zM913 246
q94 0 180 56.5t137.5 148t51.5 190.5q0 122 -76.5 203.5t-193.5 81.5q-144 0 -257.5 -118.5t-113.5 -285.5q0 -128 75 -202t197 -74z" />
    <glyph glyph-name="bracketleft" unicode="[" horiz-adv-x="880" 
d="M201 1380q0 22 15.5 38t37.5 16h475q15 0 27 -12t12 -27t-12 -27t-27 -12h-434v-1544h434q15 0 27 -12t12 -27t-12 -27t-27 -12h-475q-22 0 -37.5 15.5t-15.5 37.5v1593z" />
    <glyph glyph-name="backslash" unicode="\" horiz-adv-x="1024" 
d="M1036 -227q0 -19 -12 -31t-31 -12q-29 0 -43 28l-925 1815q-7 14 -7 26q0 19 12 31t31 12q29 0 43 -28l926 -1815q6 -12 6 -26z" />
    <glyph glyph-name="bracketright" unicode="]" horiz-adv-x="880" 
d="M680 -213q0 -22 -15.5 -37.5t-37.5 -15.5h-475q-15 0 -27 12t-12 27t12 27t27 12h434v1544h-434q-15 0 -27 12t-12 27t12 27t27 12h475q22 0 37.5 -16t15.5 -38v-1593z" />
    <glyph glyph-name="asciicircum" unicode="^" horiz-adv-x="1024" 
d="M264 1030q-20 -29 -71 -29q-13 0 -21 7.5t-8 15.5q0 12 10 27l272 360q29 37 58 37h16q29 0 58 -37l272 -360q10 -15 10 -27q0 -8 -8.5 -15.5t-22.5 -7.5q-53 0 -73 29l-246 322z" />
    <glyph glyph-name="underscore" unicode="_" horiz-adv-x="1327" 
d="M45 -328q-19 0 -32 13t-13 32t13 32t32 13h1237q19 0 32 -13t13 -32t-13 -32t-32 -13h-1237z" />
    <glyph glyph-name="braceleft" unicode="{" horiz-adv-x="983" 
d="M831 -285q-127 26 -209.5 63t-126 91t-59.5 113.5t-16 144.5v162q0 64 -11 109t-38.5 80.5t-79.5 53t-129 17.5q-49 0 -49 39t49 39q77 0 129 17.5t79.5 53t38.5 80.5t11 109v162q0 85 16 144.5t59.5 113t126 90.5t209.5 63h9q14 0 24 -9t10 -24q0 -24 -24 -32
q-90 -24 -148.5 -49t-95.5 -52t-55.5 -67.5t-24.5 -82t-6 -108.5v-153q0 -129 -54 -196t-159 -99q110 -36 161.5 -100.5t51.5 -194.5v-154q0 -56 3.5 -92.5t16 -73t34 -61t59 -49t90 -43.5t127.5 -39q24 -8 24 -33q0 -18 -12.5 -27t-30.5 -6z" />
    <glyph glyph-name="bar" unicode="|" horiz-adv-x="585" 
d="M248 1597q0 19 13 32t32 13t32 -13t13 -32v-1822q0 -19 -13 -32t-32 -13t-32 13t-13 32v1822z" />
    <glyph glyph-name="braceright" unicode="}" horiz-adv-x="983" 
d="M152 1460q127 -26 209.5 -63t126 -90.5t59.5 -113t16 -144.5v-162q0 -64 11 -109t38.5 -80.5t79.5 -53t129 -17.5q49 0 49 -39t-49 -39q-77 0 -129 -17.5t-79.5 -53t-38.5 -80.5t-11 -109v-162q0 -85 -16 -144.5t-59.5 -113.5t-126 -91t-209.5 -63h-9q-14 0 -24 9t-10 24
q0 25 24 33q75 20 127.5 39t90 43.5t59 49t34 61t16 73t3.5 92.5v154q0 129 54 196t159 99q-110 36 -161.5 100.5t-51.5 194.5v153q0 67 -6 108.5t-24.5 82t-55.5 67.5t-95.5 52t-148.5 49q-24 8 -24 32q0 18 12.5 27t30.5 6z" />
    <glyph glyph-name="asciitilde" unicode="~" horiz-adv-x="942" 
d="M248 520q-14 -28 -37 -28q-15 0 -26 9.5t-11 24.5q0 13 4 25q28 86 66 120t96 34q40 0 134 -42t128 -42q33 0 53 17.5t39 59.5q14 29 37 29q15 0 26 -10t11 -25q0 -12 -4 -24q-28 -86 -66 -120t-96 -34q-40 0 -134 42t-128 42q-33 0 -53 -17.5t-39 -60.5z" />
    <glyph glyph-name="exclamdown" unicode="&#xa1;" horiz-adv-x="1228" 
 />
    <glyph glyph-name="cent" unicode="&#xa2;" horiz-adv-x="1228" 
 />
    <glyph glyph-name="sterling" unicode="&#xa3;" horiz-adv-x="1228" 
 />
    <glyph glyph-name="currency" unicode="&#xa4;" horiz-adv-x="1228" 
 />
    <glyph glyph-name="yen" unicode="&#xa5;" horiz-adv-x="1228" 
 />
    <glyph glyph-name="brokenbar" unicode="&#xa6;" horiz-adv-x="1228" 
 />
    <glyph glyph-name="section" unicode="&#xa7;" horiz-adv-x="1228" 
 />
    <glyph glyph-name="copyright" unicode="&#xa9;" horiz-adv-x="1228" 
 />
    <glyph glyph-name="guillemotleft" unicode="&#xab;" horiz-adv-x="1054" 
d="M453 88q-23 0 -39 23l-281 366q-20 26 -20 45t20 45l281 367q16 22 39 22q19 0 32 -12t13 -31q0 -18 -13 -34l-258 -355l258 -358q13 -16 13 -35t-13 -31t-32 -12zM870 88q-23 0 -39 23l-280 366q-21 27 -21 45t21 45l280 367q16 22 39 22q19 0 32 -12t13 -31t-12 -34
l-258 -355l258 -358q12 -18 12 -35q-2 -19 -14 -31t-31 -12z" />
    <glyph glyph-name="logicalnot" unicode="&#xac;" horiz-adv-x="1228" 
 />
    <glyph glyph-name="registered" unicode="&#xae;" horiz-adv-x="1228" 
 />
    <glyph glyph-name="degree" unicode="&#xb0;" horiz-adv-x="1228" 
 />
    <glyph glyph-name="plusminus" unicode="&#xb1;" horiz-adv-x="1269" 
d="M584 733h-383q-20 0 -34.5 14.5t-14.5 34.5t14.5 34.5t34.5 14.5h383v373q0 22 14.5 36.5t36.5 14.5t36.5 -14.5t14.5 -36.5v-373h383q20 0 34.5 -14.5t14.5 -34.5t-14.5 -34.5t-34.5 -14.5h-383v-373q0 -22 -14.5 -36.5t-36.5 -14.5t-36.5 14.5t-14.5 36.5v373zM201 0
q-20 0 -34.5 14.5t-14.5 34.5t14.5 34.5t34.5 14.5h868q20 0 34.5 -14.5t14.5 -34.5t-14.5 -34.5t-34.5 -14.5h-868z" />
    <glyph glyph-name="paragraph" unicode="&#xb6;" horiz-adv-x="1228" 
 />
    <glyph glyph-name="periodcentered" unicode="&#xb7;" horiz-adv-x="1228" 
 />
    <glyph glyph-name="guillemotright" unicode="&#xbb;" horiz-adv-x="1054" 
d="M184 956q23 0 39 -22l281 -367q20 -26 20 -45t-20 -45l-281 -366q-16 -23 -39 -23q-19 0 -32 12t-13 31t13 35l258 354l-258 359q-15 22 -13 34q2 19 14 31t31 12zM602 956q23 0 39 -22l281 -367q20 -26 20 -45t-20 -45l-281 -366q-16 -23 -39 -23q-19 0 -32 12t-13 31
q0 20 12 35l258 354l-258 359q-12 15 -12 34t13 31t32 12z" />
    <glyph glyph-name="questiondown" unicode="&#xbf;" horiz-adv-x="1228" 
 />
    <glyph glyph-name="multiply" unicode="&#xd7;" horiz-adv-x="1269" 
d="M702 723l345 -340q18 -18 18 -41q0 -22 -14.5 -36.5t-36.5 -14.5q-23 0 -41 18l-340 344l-342 -346q-16 -16 -37 -16q-20 0 -34.5 14.5t-14.5 34.5q0 21 16 37l346 342l-344 340q-18 18 -18 41q0 22 14.5 36.5t36.5 14.5q23 0 41 -18l340 -345l342 347q16 16 37 16
q20 0 34.5 -14.5t14.5 -34.5q0 -21 -16 -37z" />
    <glyph glyph-name="divide" unicode="&#xf7;" horiz-adv-x="1269" 
d="M635 1214q34 0 58 -23.5t24 -57.5v-35q0 -34 -24 -58t-58 -24t-58 24t-24 58v35q0 34 24 57.5t58 23.5zM1090 672q20 0 34.5 14.5t14.5 34.5t-14.5 34.5t-34.5 14.5h-910q-20 0 -34.5 -14.5t-14.5 -34.5t14.5 -34.5t34.5 -14.5h910zM635 426q34 0 58 -24t24 -58v-35
q0 -34 -24 -58t-58 -24t-58 24t-24 58v35q0 34 24 58t58 24z" />
    <glyph glyph-name="ring" unicode="&#x2da;" horiz-adv-x="1024" 
d="M512 1214q-80 0 -140.5 57t-60.5 134v4q0 77 60.5 133.5t140.5 56.5t140.5 -56.5t60.5 -133.5v-4q0 -77 -60.5 -134t-140.5 -57zM512 1280q51 0 89 37t38 88v4q0 51 -37.5 88t-89.5 37t-89.5 -37t-37.5 -88v-4q0 -51 38 -88t89 -37z" />
    <glyph glyph-name="gravecomb" unicode="&#x300;" 
 />
    <glyph glyph-name="acutecomb" unicode="&#x301;" 
 />
    <glyph glyph-name="uni0302" unicode="&#x302;" 
 />
    <glyph glyph-name="tildecomb" unicode="&#x303;" 
 />
    <glyph glyph-name="uni0307" unicode="&#x307;" 
 />
    <glyph glyph-name="uni0308" unicode="&#x308;" 
 />
    <glyph glyph-name="uni030A" unicode="&#x30a;" 
 />
    <glyph glyph-name="uni0326" unicode="&#x326;" 
d="M-520 -301q-66 14 -66 72v12q0 31 21.5 52.5t52.5 21.5q32 0 53 -22.5t21 -59.5v-13q0 -63 -10.5 -99t-38.5 -64q-25 -25 -65 -41.5t-66 -16.5q-12 0 -19.5 7t-7.5 16q0 20 27 28q55 15 76.5 38.5t21.5 68.5z" />
    <glyph glyph-name="uni0327" unicode="&#x327;" 
 />
    <glyph glyph-name="uni060C" unicode="&#x60c;" horiz-adv-x="520" 
d="M356 367q0 -17 -16 -27q-56 -31 -78 -67.5t-18 -90.5q55 -14 55 -71v-43q0 -29 -19.5 -48.5t-48.5 -19.5t-48 19.5t-19 48.5v51q0 158 55 213q26 26 59 45.5t48 19.5q12 0 21 -8t9 -22z" />
    <glyph glyph-name="uni061B" unicode="&#x61b;" horiz-adv-x="520" 
d="M356 1186q0 -17 -16 -27q-56 -31 -78 -67.5t-18 -90.5q55 -14 55 -71v-43q0 -29 -19.5 -48.5t-48.5 -19.5t-48 19.5t-19 48.5v51q0 158 55 213q26 26 59.5 46t47.5 20q11 0 20.5 -8.5t9.5 -22.5zM299 16q0 -29 -19.5 -48t-48.5 -19t-48 19t-19 48v56q0 29 19 48t48 19
t48.5 -19t19.5 -48v-56z" />
    <glyph glyph-name="uni061F" unicode="&#x61f;" horiz-adv-x="1239" 
d="M651 367h-4q-30 0 -33 36l-16 228q-91 11 -168.5 42.5t-137.5 82t-94 126t-34 167.5v4q0 168 123 283.5t321 115.5q268 0 455 -221q12 -15 12 -35t-13.5 -32.5t-33.5 -12.5q-24 0 -41 20q-163 187 -375 187q-153 0 -246.5 -89.5t-93.5 -219.5v-5q0 -146 105 -230t282 -95
q23 -1 36.5 -15.5t11.5 -35.5l-23 -265q-3 -36 -33 -36zM717 115v-56q0 -29 -19.5 -48t-48.5 -19t-48 19t-19 48v56q0 29 19 48t48 19t48.5 -19t19.5 -48z" />
    <glyph glyph-name="uni0621" unicode="&#x621;" horiz-adv-x="1247" 
d="M1022 129q61 0 61 -45q0 -22 -16 -34.5t-45 -12.5q-220 0 -373.5 -26t-365.5 -99q-18 -6 -33 -6q-43 0 -43 43q0 40 47 55q139 48 215 66q-143 47 -224 157.5t-81 259.5q0 190 131 312.5t328 122.5q127 0 251 -52q37 -14 37 -49q0 -21 -15 -36t-40 -15q-14 0 -29 6
q-102 41 -204 41q-153 0 -253 -92.5t-100 -237.5q0 -86 45.5 -178t117 -152.5t140.5 -60.5q19 0 27 2q162 31 422 31z" />
    <glyph glyph-name="uni0622" unicode="&#x622;" horiz-adv-x="475" 
d="M-20 1710q-15 0 -27 12t-12 27q0 83 37.5 127.5t101.5 44.5q17 0 34 -4t27.5 -7t29 -13.5t23.5 -13.5t25.5 -18t22.5 -16q29 -20 46.5 -30.5t43.5 -19.5t53 -9q74 0 74 96q0 15 12 28t27 13q17 0 29 -12t12 -29q0 -84 -41.5 -130t-112.5 -46q-14 0 -27 1.5t-26 4.5
t-22.5 6t-22.5 9l-19.5 9t-20 11t-17.5 10.5t-17.5 12t-15.5 10.5q-9 6 -25.5 17.5t-24.5 16.5t-20 11.5t-23.5 9t-23.5 2.5q-31 0 -45.5 -20t-14.5 -72q0 -15 -12.5 -27t-27.5 -12zM238 0q-22 0 -38 15.5t-16 37.5v1397q0 22 16 37.5t38 15.5t37.5 -15.5t15.5 -37.5v-1397
q0 -22 -15.5 -37.5t-37.5 -15.5z" />
    <glyph glyph-name="uni0623" unicode="&#x623;" horiz-adv-x="481" 
d="M399 1657q52 0 52 -43q0 -20 -14.5 -31.5t-39.5 -11.5q-152 0 -297 -51q-12 -4 -20 -4q-19 0 -31 13.5t-12 31.5q0 33 35 41q30 11 49 16q-90 57 -90 162q0 89 62.5 145.5t156.5 56.5q68 0 137 -34q29 -14 29 -41q0 -18 -13 -30.5t-34 -12.5q-13 0 -25 6q-47 20 -94 20
q-55 0 -89 -30t-34 -80q0 -57 40.5 -94.5t98.5 -34.5h8q59 6 125 6zM238 1339q22 0 37.5 -15.5t15.5 -37.5v-1233q0 -22 -15.5 -37.5t-37.5 -15.5t-38 15.5t-16 37.5v1233q0 22 16 37.5t38 15.5z" />
    <glyph glyph-name="uni0624" unicode="&#x624;" horiz-adv-x="1269" 
d="M535 1339q-91 58 -91 162q0 89 63 146t157 57q66 0 137 -35q28 -14 28 -41q0 -18 -13 -30.5t-34 -12.5q-12 0 -24 6q-50 21 -94 21q-55 0 -89 -30.5t-34 -80.5q0 -57 40.5 -94.5t98.5 -34.5h8q58 6 125 6q51 0 51 -43q0 -20 -14 -31.5t-39 -11.5q-152 0 -297 -51
q-12 -4 -20 -4q-19 0 -31 13.5t-12 31.5q0 33 34 41q28 10 50 16zM637 1061q148 0 256 -76t160.5 -200.5t52.5 -280.5v-283q0 -141 -16.5 -251t-56 -201.5t-102.5 -151.5t-159 -92.5t-223 -32.5q-59 0 -90 4q-23 3 -38 15.5t-15 33.5q0 20 14.5 34.5t34.5 14.5q16 0 43.5 -1
t40.5 -1q72 0 127 9t110 32.5t93.5 68t69 112.5t45.5 169.5t15 235.5v27q-59 -111 -163.5 -178.5t-243.5 -67.5q-129 0 -228.5 76.5t-149.5 194t-50 251.5q0 102 31.5 197.5t90 172t150 123t201.5 46.5zM637 98q86 0 156.5 37t114.5 97t67.5 131.5t23.5 144.5
q0 193 -97.5 319.5t-268.5 126.5q-112 0 -197 -63.5t-126.5 -160t-41.5 -206.5t41 -205t127 -158t201 -63z" />
    <glyph glyph-name="uni0625" unicode="&#x625;" horiz-adv-x="481" 
d="M238 0q-22 0 -38 15.5t-16 37.5v1397q0 22 16 37.5t38 15.5t37.5 -15.5t15.5 -37.5v-1397q0 -22 -15.5 -37.5t-37.5 -15.5zM403 -514q52 0 52 -43q0 -20 -14.5 -31.5t-39.5 -11.5q-152 0 -297 -51q-12 -4 -20 -4q-19 0 -31 13.5t-12 31.5q0 33 35 41q30 11 49 16
q-90 57 -90 162q0 89 62.5 146t156.5 57q66 0 137 -35q29 -15 29 -41q0 -18 -13 -30.5t-34 -12.5q-13 0 -25 6q-47 20 -94 20q-55 0 -89 -30t-34 -80q0 -57 40.5 -94.5t98.5 -34.5h9q59 6 124 6z" />
    <glyph glyph-name="uni0626" unicode="&#x626;" horiz-adv-x="1806" 
d="M258 745q-90 57 -90 162q0 89 62.5 146t156.5 57q66 0 137 -35q29 -15 29 -41q0 -18 -13 -30.5t-34 -12.5q-13 0 -25 6q-50 21 -94 21q-55 0 -89 -30.5t-34 -80.5q0 -57 40.5 -94.5t98.5 -34.5h9q59 6 125 6q51 0 51 -43q0 -20 -14 -31.5t-39 -11.5q-152 0 -297 -51
q-12 -4 -21 -4q-19 0 -31 13.5t-12 31.5q0 33 35 41q30 11 49 16zM1278 281q55 -15 92.5 -28t83.5 -34t76.5 -48t58 -64t40.5 -87.5t13 -113.5q0 -208 -146.5 -310t-420.5 -102h-203q-352 0 -530 159t-178 470v283q0 29 14 45t39 16t39 -16t14 -45v-283q0 -268 148.5 -399.5
t453.5 -131.5h203q461 0 461 314q0 70 -27.5 120.5t-70.5 78.5t-105.5 51t-122.5 36.5t-133 36.5t-125 50q-102 54 -155.5 141.5t-53.5 200.5q0 203 152.5 322.5t398.5 119.5q150 0 308 -45q40 -11 40 -49q0 -25 -19.5 -43t-47.5 -11q-165 43 -301 43q-198 0 -311 -87
t-113 -250q0 -89 37 -145.5t127.5 -102t263.5 -92.5z" />
    <glyph glyph-name="uni0627" unicode="&#x627;" horiz-adv-x="475" 
d="M238 0q-22 0 -38 15.5t-16 37.5v1397q0 22 16 37.5t38 15.5t37.5 -15.5t15.5 -37.5v-1397q0 -22 -15.5 -37.5t-37.5 -15.5z" />
    <glyph glyph-name="uni0628" unicode="&#x628;" horiz-adv-x="1953" 
d="M778 0q-315 0 -467 168q-147 159 -147 446v152q0 22 15.5 37.5t37.5 15.5t37.5 -15.5t15.5 -37.5v-152q0 -245 127 -378q132 -138 381 -138h549q174 0 264 90q92 92 92 275v405q0 22 16 38t38 16t37.5 -16t15.5 -38v-405q0 -241 -143 -363q-118 -100 -320 -100h-549z
M909 -313q0 29 19.5 48t48.5 19q30 0 50 -19t20 -48v-39q0 -29 -20.5 -48.5t-49.5 -19.5t-48.5 19.5t-19.5 48.5v39z" />
    <glyph glyph-name="uni0629" unicode="&#x629;" horiz-adv-x="1282" 
d="M422 1413q0 29 19 48.5t48 19.5t49.5 -19.5t20.5 -48.5v-39q0 -29 -20 -48t-50 -19q-29 0 -48 19t-19 48v39zM750 1413q0 29 19 48.5t48 19.5t49.5 -19.5t20.5 -48.5v-39q0 -29 -20 -48t-50 -19q-29 0 -48 19t-19 48v39zM639 0q-115 0 -208 44.5t-150 119t-87 166.5
t-30 192q0 81 19 159t59 146.5t96 120.5t134.5 82.5t170.5 30.5t170 -30t133.5 -81t94.5 -119.5t58 -145t19 -157.5q0 -101 -30.5 -194t-88.5 -168.5t-151.5 -120.5t-208.5 -45zM643 98q90 0 162 35.5t116 95t67.5 133t23.5 154.5q0 66 -15 129t-46 119t-74.5 98.5
t-104.5 67t-133 24.5q-88 0 -160 -36.5t-116.5 -98t-68.5 -137.5t-24 -158t23.5 -157t68.5 -135.5t118 -97t163 -36.5z" />
    <glyph glyph-name="uni062A" unicode="&#x62a;" horiz-adv-x="1953" 
d="M745 1192q0 29 19.5 48.5t48.5 19.5t49.5 -19.5t20.5 -48.5v-39q0 -29 -20.5 -48.5t-49.5 -19.5t-48.5 19.5t-19.5 48.5v39zM1073 1192q0 29 19.5 48.5t48.5 19.5t49 -19.5t20 -48.5v-39q0 -29 -20 -48.5t-49 -19.5t-48.5 19.5t-19.5 48.5v39zM778 0q-315 0 -467 168
q-147 159 -147 446v152q0 22 15.5 37.5t37.5 15.5t37.5 -15.5t15.5 -37.5v-152q0 -245 127 -378q132 -138 381 -138h549q174 0 264 90q92 92 92 275v405q0 22 16 38t38 16t37.5 -16t15.5 -38v-405q0 -241 -143 -363q-118 -100 -320 -100h-549z" />
    <glyph glyph-name="uni062B" unicode="&#x62b;" horiz-adv-x="1953" 
d="M909 1417q0 29 19.5 48.5t48.5 19.5t49.5 -19.5t20.5 -48.5v-39q0 -29 -20 -48t-50 -19q-29 0 -48.5 19t-19.5 48v39zM745 1192q0 29 19.5 48.5t48.5 19.5t49.5 -19.5t20.5 -48.5v-39q0 -29 -20.5 -48.5t-49.5 -19.5t-48.5 19.5t-19.5 48.5v39zM1073 1192q0 29 19.5 48.5
t48.5 19.5t49 -19.5t20 -48.5v-39q0 -29 -20 -48.5t-49 -19.5t-48.5 19.5t-19.5 48.5v39zM778 0q-315 0 -467 168q-147 159 -147 446v152q0 22 15.5 37.5t37.5 15.5t37.5 -15.5t15.5 -37.5v-152q0 -245 127 -378q132 -138 381 -138h549q174 0 264 90q92 92 92 275v405
q0 22 16 38t38 16t37.5 -16t15.5 -38v-405q0 -241 -143 -363q-118 -100 -320 -100h-549z" />
    <glyph glyph-name="uni062C" unicode="&#x62c;" horiz-adv-x="1605" 
d="M1401 98q15 0 28 -13t13 -36q0 -49 -62 -49h-655q-212 0 -313 -74t-101 -229t101 -229t313 -74h125q61 0 61 -49q0 -23 -15.5 -36.5t-43.5 -13.5h-127q-256 0 -388 102t-132 300t131.5 299.5t388.5 101.5h504q-16 32 -27 79.5t-23 129.5t-14 94q-32 178 -85 286.5
t-144 168.5q-148 98 -356 98q-65 0 -140 -10q-3 0 -8.5 -1t-7.5 -1q-55 0 -55 57q0 41 53 50q77 12 156 12q249 0 426 -121q106 -72 170.5 -200.5t97.5 -321.5q34 -198 53 -248q28 -70 76 -72zM750 -311q0 29 19 48t48 19q30 0 50 -19t20 -48v-39q0 -29 -20.5 -48.5
t-49.5 -19.5t-48 19.5t-19 48.5v39z" />
    <glyph glyph-name="uni062D" unicode="&#x62d;" horiz-adv-x="1605" 
d="M1401 98q15 0 28 -13t13 -36q0 -49 -62 -49h-655q-212 0 -313 -74t-101 -229t101 -229t313 -74h125q61 0 61 -49q0 -23 -15.5 -36.5t-43.5 -13.5h-127q-256 0 -388 102t-132 300t131.5 299.5t388.5 101.5h504q-16 32 -27 79.5t-23 129.5t-14 94q-32 178 -85 286.5
t-144 168.5q-148 98 -356 98q-65 0 -140 -10q-3 0 -8.5 -1t-7.5 -1q-55 0 -55 57q0 41 53 50q77 12 156 12q249 0 426 -121q106 -72 170.5 -200.5t97.5 -321.5q34 -198 53 -248q28 -70 76 -72z" />
    <glyph glyph-name="uni062E" unicode="&#x62e;" horiz-adv-x="1605" 
d="M803 1307q-29 0 -48.5 19t-19.5 48v39q0 29 19.5 48.5t48.5 19.5t49 -19.5t20 -48.5v-39q0 -29 -20 -48t-49 -19zM1401 98q15 0 28 -13t13 -36q0 -49 -62 -49h-655q-212 0 -313 -74t-101 -229t101 -229t313 -74h125q61 0 61 -49q0 -23 -15.5 -36.5t-43.5 -13.5h-127
q-256 0 -388 102t-132 300t131.5 299.5t388.5 101.5h504q-16 32 -27 79.5t-23 129.5t-14 94q-32 178 -85 286.5t-144 168.5q-148 98 -356 98q-65 0 -140 -10q-3 0 -8.5 -1t-7.5 -1q-55 0 -55 57q0 41 53 50q77 12 156 12q249 0 426 -121q106 -72 170.5 -200.5t97.5 -321.5
q34 -198 53 -248q28 -70 76 -72z" />
    <glyph glyph-name="uni062F" unicode="&#x62f;" horiz-adv-x="1204" 
d="M217 0q-22 0 -37.5 15.5t-15.5 37.5q0 21 15 33t38 12h342q199 0 287 78.5t88 257.5q0 230 -168 375t-438 145q-20 0 -34.5 15.5t-14.5 38.5t15 38t38 15q206 0 368 -79.5t251 -221t89 -320.5q0 -224 -118 -332t-361 -108h-344z" />
    <glyph glyph-name="uni0630" unicode="&#x630;" horiz-adv-x="1204" 
d="M535 1413q0 29 19 48.5t48 19.5t49.5 -19.5t20.5 -48.5v-39q0 -29 -20 -48t-50 -19q-29 0 -48 19t-19 48v39zM217 0q-22 0 -37.5 15.5t-15.5 37.5q0 21 15 33t38 12h342q199 0 287 78.5t88 257.5q0 230 -168 375t-438 145q-20 0 -34.5 15.5t-14.5 38.5t15 38t38 15
q206 0 368 -79.5t251 -221t89 -320.5q0 -224 -118 -332t-361 -108h-344z" />
    <glyph glyph-name="uni0631" unicode="&#x631;" horiz-adv-x="579" 
d="M43 -430q-41 14 -41 51q0 22 16.5 35.5t42.5 9.5q62 -12 93 -12q89 0 129 82q26 67 26 170v960q0 24 15 40t38 16q22 0 38 -16t16 -40v-960q0 -153 -49 -238q-70 -117 -211 -117q-46 0 -113 19z" />
    <glyph glyph-name="uni0632" unicode="&#x632;" horiz-adv-x="591" 
d="M291 1270q0 29 19 48t48 19q30 0 50 -19t20 -48v-39q0 -29 -20.5 -48.5t-49.5 -19.5t-48 19.5t-19 48.5v39zM43 -430q-41 14 -41 51q0 22 16.5 35.5t42.5 9.5q62 -12 93 -12q89 0 129 82q26 67 26 170v960q0 24 15 40t38 16q22 0 38 -16t16 -40v-960q0 -153 -49 -238
q-70 -117 -211 -117q-46 0 -113 19z" />
    <glyph glyph-name="uni0633" unicode="&#x633;" horiz-adv-x="2902" 
d="M2685 1061q22 0 37.5 -15.5t15.5 -37.5v-545q0 -118 -30.5 -209t-84 -145.5t-121 -81.5t-145.5 -27q-111 0 -200 58.5t-136 166.5q-45 -113 -135.5 -169t-204.5 -56q-186 0 -295 152v-5q0 -168 -43 -293.5t-123.5 -204t-191.5 -117t-252 -38.5q-290 0 -451 161t-161 492
v267q0 22 15.5 37.5t37.5 15.5t37.5 -15.5t15.5 -37.5v-267q0 -555 506 -555q242 0 373 136t131 419v803q0 22 15.5 38t37.5 16t37.5 -16t15.5 -38v-487q0 -176 79 -270.5t216 -94.5q122 0 198.5 89.5t76.5 275.5v487q0 22 15.5 38t37.5 16t37.5 -16t15.5 -38v-487
q0 -176 79 -270.5t216 -94.5q120 0 197.5 90t77.5 275v545q0 22 15.5 37.5t37.5 15.5z" />
    <glyph glyph-name="uni0634" unicode="&#x634;" horiz-adv-x="2902" 
d="M2009 1534q-29 0 -48 19.5t-19 48.5v38q0 29 19 48.5t48 19.5t49.5 -19.5t20.5 -48.5v-38q0 -29 -20.5 -48.5t-49.5 -19.5zM1743 1268q-29 0 -48.5 19t-19.5 48v39q0 29 19.5 48.5t48.5 19.5t49 -19.5t20 -48.5v-39q0 -29 -20 -48t-49 -19zM2275 1268q-29 0 -48 19
t-19 48v39q0 29 19 48.5t48 19.5t49.5 -19.5t20.5 -48.5v-39q0 -29 -20 -48t-50 -19zM2685 1061q22 0 37.5 -15.5t15.5 -37.5v-545q0 -118 -30.5 -209t-84 -145.5t-121 -81.5t-145.5 -27q-111 0 -200 58.5t-136 166.5q-45 -113 -135.5 -169t-204.5 -56q-186 0 -295 152v-5
q0 -168 -43 -293.5t-123.5 -204t-191.5 -117t-252 -38.5q-290 0 -451 161t-161 492v267q0 22 15.5 37.5t37.5 15.5t37.5 -15.5t15.5 -37.5v-267q0 -555 506 -555q242 0 373 136t131 419v803q0 22 15.5 38t37.5 16t37.5 -16t15.5 -38v-487q0 -176 79 -270.5t216 -94.5
q122 0 198.5 89.5t76.5 275.5v487q0 22 15.5 38t37.5 16t37.5 -16t15.5 -38v-487q0 -176 79 -270.5t216 -94.5q120 0 197.5 90t77.5 275v545q0 22 15.5 37.5t37.5 15.5z" />
    <glyph glyph-name="uni0635" unicode="&#x635;" horiz-adv-x="2832" 
d="M2081 1061q262 0 425 -164t163 -434q0 -221 -121 -342t-342 -121h-830q-23 -172 -104 -286t-205 -167t-291 -53q-290 0 -451 161t-161 492v267q0 22 15.5 37.5t37.5 15.5t37.5 -15.5t15.5 -37.5v-267q0 -555 506 -555q242 0 373 136t131 419v861q0 22 15.5 37.5
t37.5 15.5t37.5 -15.5t15.5 -37.5v-390q89 209 274.5 326t420.5 117zM2206 98q356 0 356 365q0 230 -129 360.5t-352 130.5q-137 0 -263 -49.5t-221.5 -137t-153 -217.5t-57.5 -280v-172h820z" />
    <glyph glyph-name="uni0636" unicode="&#x636;" horiz-adv-x="2832" 
d="M1991 1307q-29 0 -48.5 19t-19.5 48v39q0 29 19.5 48.5t48.5 19.5t49 -19.5t20 -48.5v-39q0 -29 -20 -48t-49 -19zM2081 1061q262 0 425 -164t163 -434q0 -221 -121 -342t-342 -121h-830q-23 -172 -104 -286t-205 -167t-291 -53q-290 0 -451 161t-161 492v267
q0 22 15.5 37.5t37.5 15.5t37.5 -15.5t15.5 -37.5v-267q0 -555 506 -555q242 0 373 136t131 419v861q0 22 15.5 37.5t37.5 15.5t37.5 -15.5t15.5 -37.5v-390q89 209 274.5 326t420.5 117zM2206 98q356 0 356 365q0 230 -129 360.5t-352 130.5q-137 0 -263 -49.5t-221.5 -137
t-153 -217.5t-57.5 -280v-172h820z" />
    <glyph glyph-name="uni0637" unicode="&#x637;" horiz-adv-x="1980" 
d="M1229 1061q262 0 425 -164t163 -434q0 -221 -121 -342t-342 -121h-1129q-61 0 -61 49t61 49h205v1352q0 22 15.5 37.5t37.5 15.5t38 -15.5t16 -37.5l-2 -829q88 207 274 323.5t420 116.5zM1354 98q356 0 356 365q0 230 -129 360.5t-352 130.5q-134 0 -258 -48
t-219 -132.5t-154 -209.5t-63 -271v-195h819z" />
    <glyph glyph-name="uni0638" unicode="&#x638;" horiz-adv-x="2021" 
d="M1229 1061q262 0 425 -164t163 -434q0 -221 -121 -342t-342 -121h-1129q-61 0 -61 49t61 49h205v1352q0 22 15.5 37.5t37.5 15.5t38 -15.5t16 -37.5l-2 -829q88 207 274 323.5t420 116.5zM1130 1251q-29 0 -48 19.5t-19 48.5v39q0 29 19 48t48 19q30 0 50 -19t20 -48v-39
q0 -29 -20.5 -48.5t-49.5 -19.5zM1354 98q356 0 356 365q0 230 -129 360.5t-352 130.5q-134 0 -258 -48t-219 -132.5t-154 -209.5t-63 -271v-195h819z" />
    <glyph glyph-name="uni0639" unicode="&#x639;" horiz-adv-x="1402" 
d="M1178 98q61 0 61 -49t-61 -49h-494q-214 0 -314 -73t-100 -230q0 -155 101 -229t313 -74h125q61 0 61 -49q0 -23 -15.5 -36.5t-43.5 -13.5h-127q-256 0 -388 102t-132 300q0 177 105 277t309 120q-250 120 -250 434q0 122 43.5 224t117 168.5t168 103.5t197.5 37
q140 0 283 -60q34 -14 34 -49q0 -22 -13.5 -37.5t-37.5 -15.5q-13 0 -28 6q-128 51 -236 51q-82 0 -157.5 -29t-134.5 -82t-94.5 -135.5t-35.5 -181.5q0 -110 37 -195t100.5 -135t140 -75t162.5 -25h304z" />
    <glyph glyph-name="uni063A" unicode="&#x63a;" horiz-adv-x="1402" 
d="M823 1307q-29 0 -48 19t-19 48v39q0 29 19 48.5t48 19.5t49.5 -19.5t20.5 -48.5v-39q0 -29 -20 -48t-50 -19zM1178 98q61 0 61 -49t-61 -49h-494q-214 0 -314 -73t-100 -230q0 -155 101 -229t313 -74h125q61 0 61 -49q0 -23 -15.5 -36.5t-43.5 -13.5h-127
q-256 0 -388 102t-132 300q0 177 105 277t309 120q-250 120 -250 434q0 122 43.5 224t117 168.5t168 103.5t197.5 37q140 0 283 -60q34 -14 34 -49q0 -22 -13.5 -37.5t-37.5 -15.5q-13 0 -28 6q-128 51 -236 51q-82 0 -157.5 -29t-134.5 -82t-94.5 -135.5t-35.5 -181.5
q0 -110 37 -195t100.5 -135t140 -75t162.5 -25h304z" />
    <glyph glyph-name="uni0640" unicode="&#x640;" horiz-adv-x="409" 
d="M-61 49q0 49 61 49h410v-98h-410q-61 0 -61 49z" />
    <glyph glyph-name="uni0641" unicode="&#x641;" horiz-adv-x="2289" 
d="M1651 1307q-29 0 -48.5 19t-19.5 48v39q0 29 19.5 48.5t48.5 19.5t49 -19.5t20 -48.5v-39q0 -29 -20 -48t-49 -19zM2126 528q0 -100 -30.5 -193t-87.5 -168t-149.5 -120.5t-207.5 -46.5h-873q-299 0 -456.5 157.5t-157.5 456.5v152q0 22 15.5 37.5t37.5 15.5t37.5 -15.5
t15.5 -37.5v-152q0 -248 130.5 -382t377.5 -134h576q-90 73 -136.5 185.5t-46.5 238.5q0 102 31.5 197.5t90 172.5t151.5 123t207 46q92 0 170 -30t133.5 -81t94.5 -119.5t58 -145t19 -157.5zM1651 98q90 0 161.5 35.5t116 95t67.5 133t23 154.5q0 66 -15 129t-45.5 119
t-74 98.5t-104.5 67t-133 24.5q-88 0 -160 -36.5t-116.5 -98t-68.5 -137.5t-24 -158t23.5 -157t68.5 -135.5t118 -97t163 -36.5z" />
    <glyph glyph-name="uni0642" unicode="&#x642;" horiz-adv-x="1816" 
d="M1014 1307q-29 0 -48.5 19t-19.5 48v39q0 29 19.5 48.5t48.5 19.5t49 -19.5t20 -48.5v-39q0 -29 -20 -48t-49 -19zM1341 1307q-29 0 -48 19t-19 48v39q0 29 19 48.5t48 19.5t49.5 -19.5t20.5 -48.5v-39q0 -29 -20 -48t-50 -19zM1184 1061q148 0 256 -76t160.5 -200.5
t52.5 -280.5v-504q0 -308 -184 -458t-549 -150q-382 0 -569 172t-187 502v348q0 22 15.5 37.5t37.5 15.5t37.5 -15.5t15.5 -37.5v-348q0 -286 156 -427t494 -141q328 0 477 117t149 385v246q-59 -111 -163.5 -178.5t-243.5 -67.5q-129 0 -228.5 76.5t-149.5 194t-50 251.5
q0 102 31.5 197.5t90 172t150 123t201.5 46.5zM1184 98q86 0 156.5 37t114.5 97t67.5 131.5t23.5 144.5q0 193 -97.5 319.5t-268.5 126.5q-112 0 -197 -63.5t-126.5 -160t-41.5 -206.5t41 -205t127 -158t201 -63z" />
    <glyph glyph-name="uni0643" unicode="&#x643;" horiz-adv-x="1953" 
d="M1737 1503q22 0 37.5 -15.5t15.5 -37.5v-987q0 -221 -121 -342t-342 -121h-549q-299 0 -456.5 157.5t-157.5 456.5v152q0 22 15.5 37.5t37.5 15.5t37.5 -15.5t15.5 -37.5v-152q0 -248 130.5 -382t377.5 -134h549q177 0 266.5 92.5t89.5 272.5v987q0 22 16 37.5t38 15.5z
M840 905q-103 60 -103 182q0 101 71.5 166.5t178.5 65.5q73 0 158 -39q33 -17 33 -47q0 -21 -16 -35t-40 -14q-14 0 -26 6q-58 24 -109 24q-63 0 -101 -35t-38 -92q0 -63 44.5 -105.5t108.5 -41.5q65 8 156 8q60 0 60 -49q0 -23 -16.5 -36t-45.5 -13q-178 0 -338 -59
q-15 -5 -22 -5q-22 0 -36 16t-14 36q0 39 39 47q12 5 56 20z" />
    <glyph glyph-name="uni0644" unicode="&#x644;" horiz-adv-x="1550" 
d="M776 -506q-290 0 -451 161t-161 492v267q0 22 15.5 37.5t37.5 15.5t37.5 -15.5t15.5 -37.5v-267q0 -555 506 -555q242 0 373 136t131 419v1303q0 22 15.5 37.5t37.5 15.5t37.5 -15.5t15.5 -37.5v-1303q0 -168 -43 -293.5t-123.5 -204t-191.5 -117t-252 -38.5z" />
    <glyph glyph-name="uni0645" unicode="&#x645;" horiz-adv-x="1628" 
d="M991 1057q143 0 252 -72.5t165 -192t56 -266.5q0 -121 -39.5 -221.5t-106.5 -166.5t-153 -102t-180 -36q-203 0 -360 154v-166q-2 -263 -92.5 -378.5t-307.5 -115.5q-61 0 -61 49t61 49q87 0 144 23t90 74.5t46 122t13 176.5v518q0 157 56 281.5t164.5 197t252.5 72.5z
M981 98q157 0 267 116.5t110 311.5q0 117 -41.5 212t-126.5 153.5t-199 58.5q-173 0 -270.5 -123.5t-95.5 -320.5v-232q78 -87 170.5 -131.5t185.5 -44.5z" />
    <glyph glyph-name="uni0646" unicode="&#x646;" horiz-adv-x="1550" 
d="M707 897q0 29 19 48.5t48 19.5t49.5 -19.5t20.5 -48.5v-39q0 -29 -20 -48t-50 -19q-29 0 -48 19t-19 48v39zM776 -506q-290 0 -451 161t-161 492v267q0 22 15.5 37.5t37.5 15.5t37.5 -15.5t15.5 -37.5v-267q0 -555 506 -555q242 0 373 136t131 419v619q0 22 15.5 37.5
t37.5 15.5t37.5 -15.5t15.5 -37.5v-619q0 -168 -43 -293.5t-123.5 -204t-191.5 -117t-252 -38.5z" />
    <glyph glyph-name="uni0647" unicode="&#x647;" horiz-adv-x="1282" 
d="M639 0q-115 0 -208 44.5t-150 119t-87 166.5t-30 192q0 81 19 159t59 146.5t96 120.5t134.5 82.5t170.5 30.5t170 -30t133.5 -81t94.5 -119.5t58 -145t19 -157.5q0 -101 -30.5 -194t-88.5 -168.5t-151.5 -120.5t-208.5 -45zM643 98q90 0 162 35.5t116 95t67.5 133
t23.5 154.5q0 66 -15 129t-46 119t-74.5 98.5t-104.5 67t-133 24.5q-88 0 -160 -36.5t-116.5 -98t-68.5 -137.5t-24 -158t23.5 -157t68.5 -135.5t118 -97t163 -36.5z" />
    <glyph glyph-name="uni0648" unicode="&#x648;" horiz-adv-x="1269" 
d="M637 1061q148 0 256 -76t160.5 -200.5t52.5 -280.5v-283q0 -141 -16.5 -251t-56 -201.5t-102.5 -151.5t-159 -92.5t-223 -32.5q-59 0 -90 4q-23 3 -38 15.5t-15 33.5q0 20 14.5 34.5t34.5 14.5q16 0 43.5 -1t40.5 -1q72 0 127 9t110 32.5t93.5 68t69 112.5t45.5 169.5
t15 235.5v27q-59 -111 -163.5 -178.5t-243.5 -67.5q-129 0 -228.5 76.5t-149.5 194t-50 251.5q0 102 31.5 197.5t90 172t150 123t201.5 46.5zM637 98q86 0 156.5 37t114.5 97t67.5 131.5t23.5 144.5q0 193 -97.5 319.5t-268.5 126.5q-112 0 -197 -63.5t-126.5 -160
t-41.5 -206.5t41 -205t127 -158t201 -63z" />
    <glyph glyph-name="uni0649" unicode="&#x649;" horiz-adv-x="1806" 
d="M270 406v-283q0 -268 148.5 -399.5t453.5 -131.5h203q461 0 461 314q0 70 -27.5 120.5t-70.5 78.5t-105.5 51t-122.5 36.5t-133 36.5t-125 50q-102 54 -155.5 141.5t-53.5 200.5q0 203 152.5 322.5t398.5 119.5q150 0 308 -45q40 -11 40 -49q0 -25 -19.5 -43t-47.5 -11
q-165 43 -301 43q-198 0 -311 -87t-113 -250q0 -89 37 -145.5t127.5 -102t263.5 -92.5q55 -15 92.5 -28t83.5 -34t76.5 -48t58 -64t40.5 -87.5t13 -113.5q0 -208 -146.5 -310t-420.5 -102h-203q-352 0 -530 159t-178 470v283q0 29 14 45t39 16t39 -16t14 -45z" />
    <glyph glyph-name="uni064A" unicode="&#x64a;" horiz-adv-x="1806" 
d="M270 406v-283q0 -268 148.5 -399.5t453.5 -131.5h203q461 0 461 314q0 70 -27.5 120.5t-70.5 78.5t-105.5 51t-122.5 36.5t-133 36.5t-125 50q-102 54 -155.5 141.5t-53.5 200.5q0 203 152.5 322.5t398.5 119.5q150 0 308 -45q40 -11 40 -49q0 -25 -19.5 -43t-47.5 -11
q-165 43 -301 43q-198 0 -311 -87t-113 -250q0 -89 37 -145.5t127.5 -102t263.5 -92.5q55 -15 92.5 -28t83.5 -34t76.5 -48t58 -64t40.5 -87.5t13 -113.5q0 -208 -146.5 -310t-420.5 -102h-203q-352 0 -530 159t-178 470v283q0 29 14 45t39 16t39 -16t14 -45zM672 -815
q0 29 19 48t48 19q30 0 50 -19t20 -48v-39q0 -29 -20.5 -48.5t-49.5 -19.5t-48 19.5t-19 48.5v39zM999 -815q0 29 19.5 48t48.5 19q30 0 50 -19t20 -48v-39q0 -29 -20.5 -48.5t-49.5 -19.5t-48.5 19.5t-19.5 48.5v39z" />
    <glyph glyph-name="uni064B" unicode="&#x64b;" 
d="M37 162h-6q-8 0 -17 6.5t-10 15.5v4q0 11 7 20.5t16 10.5l503 88h7q9 0 18 -6.5t10 -15.5v-4q0 -11 -7 -20.5t-17 -10.5zM37 -43h-6q-8 0 -17 7t-10 16v4q0 10 7 19t16 11l503 88h7q9 0 18 -6.5t10 -15.5v-4q0 -11 -7 -20.5t-17 -10.5z" />
    </font>
</defs>
</svg>
