<svg width="128" height="65" viewBox="0 0 128 65" fill="none" xmlns="http://www.w3.org/2000/svg">
<path d="M19.96 14.48C21.6667 14.88 22.9867 15.7067 23.92 16.96C24.88 18.1867 25.36 19.6133 25.36 21.24C25.36 23.72 24.5333 25.64 22.88 27C21.2533 28.3333 18.9067 29 15.84 29H1V0.68H15.44C18.32 0.68 20.5867 1.30667 22.24 2.56C23.8933 3.81333 24.72 5.64 24.72 8.04C24.72 9.69333 24.28 11.0933 23.4 12.24C22.5467 13.36 21.4 14.1067 19.96 14.48ZM9.88 11.72H13.32C14.12 11.72 14.7067 11.56 15.08 11.24C15.48 10.92 15.68 10.4267 15.68 9.76C15.68 9.06667 15.48 8.56 15.08 8.24C14.7067 7.89333 14.12 7.72 13.32 7.72H9.88V11.72ZM13.92 21.88C14.72 21.88 15.3067 21.7333 15.68 21.44C16.08 21.12 16.28 20.6133 16.28 19.92C16.28 18.56 15.4933 17.88 13.92 17.88H9.88V21.88H13.92ZM43.0206 29.28C39.634 29.28 36.834 28.4933 34.6206 26.92C32.434 25.32 31.2473 22.9867 31.0606 19.92H40.5006C40.634 21.5467 41.354 22.36 42.6606 22.36C43.1406 22.36 43.5406 22.2533 43.8606 22.04C44.2073 21.8 44.3806 21.44 44.3806 20.96C44.3806 20.2933 44.0206 19.76 43.3006 19.36C42.5806 18.9333 41.4606 18.4533 39.9406 17.92C38.1273 17.28 36.6206 16.6533 35.4206 16.04C34.2473 15.4267 33.234 14.5333 32.3806 13.36C31.5273 12.1867 31.114 10.68 31.1406 8.84C31.1406 7 31.6073 5.44 32.5406 4.16C33.5006 2.85333 34.794 1.86667 36.4206 1.2C38.074 0.533332 39.9273 0.199999 41.9806 0.199999C45.4473 0.199999 48.194 0.999999 50.2206 2.6C52.274 4.2 53.354 6.45333 53.4606 9.36H43.9006C43.874 8.56 43.674 7.98667 43.3006 7.64C42.9273 7.29333 42.474 7.12 41.9406 7.12C41.5673 7.12 41.2606 7.25333 41.0206 7.52C40.7806 7.76 40.6606 8.10667 40.6606 8.56C40.6606 9.2 41.0073 9.73333 41.7006 10.16C42.4206 10.56 43.554 11.0533 45.1006 11.64C46.8873 12.3067 48.354 12.9467 49.5006 13.56C50.674 14.1733 51.6873 15.0267 52.5406 16.12C53.394 17.2133 53.8206 18.5867 53.8206 20.24C53.8206 21.9733 53.394 23.5333 52.5406 24.92C51.6873 26.28 50.4473 27.3467 48.8206 28.12C47.194 28.8933 45.2606 29.28 43.0206 29.28ZM77.1806 17.52C77.1806 18.1333 77.1406 18.72 77.0606 19.28H62.7806C62.914 21.2267 63.7273 22.2 65.2206 22.2C66.1806 22.2 66.874 21.76 67.3006 20.88H76.7006C76.3806 22.48 75.7006 23.92 74.6606 25.2C73.6473 26.4533 72.354 27.4533 70.7806 28.2C69.234 28.92 67.5273 29.28 65.6606 29.28C63.4206 29.28 61.4206 28.8133 59.6606 27.88C57.9273 26.9467 56.5673 25.6133 55.5806 23.88C54.6206 22.12 54.1406 20.0667 54.1406 17.72C54.1406 15.3733 54.6206 13.3333 55.5806 11.6C56.5673 9.84 57.9273 8.49333 59.6606 7.56C61.4206 6.62667 63.4206 6.16 65.6606 6.16C67.9006 6.16 69.8873 6.62667 71.6206 7.56C73.3806 8.46667 74.7406 9.77333 75.7006 11.48C76.6873 13.1867 77.1806 15.2 77.1806 17.52ZM68.1806 15.4C68.1806 14.6533 67.9406 14.0933 67.4606 13.72C66.9806 13.32 66.3806 13.12 65.6606 13.12C64.0873 13.12 63.1673 13.88 62.9006 15.4H68.1806ZM100.229 17.52C100.229 18.1333 100.189 18.72 100.109 19.28H85.8291C85.9624 21.2267 86.7757 22.2 88.2691 22.2C89.2291 22.2 89.9224 21.76 90.3491 20.88H99.7491C99.4291 22.48 98.7491 23.92 97.7091 25.2C96.6957 26.4533 95.4024 27.4533 93.8291 28.2C92.2824 28.92 90.5757 29.28 88.7091 29.28C86.4691 29.28 84.4691 28.8133 82.7091 27.88C80.9757 26.9467 79.6157 25.6133 78.6291 23.88C77.6691 22.12 77.1891 20.0667 77.1891 17.72C77.1891 15.3733 77.6691 13.3333 78.6291 11.6C79.6157 9.84 80.9757 8.49333 82.7091 7.56C84.4691 6.62667 86.4691 6.16 88.7091 6.16C90.9491 6.16 92.9357 6.62667 94.6691 7.56C96.4291 8.46667 97.7891 9.77333 98.7491 11.48C99.7357 13.1867 100.229 15.2 100.229 17.52ZM91.2291 15.4C91.2291 14.6533 90.9891 14.0933 90.5091 13.72C90.0291 13.32 89.4291 13.12 88.7091 13.12C87.1357 13.12 86.2157 13.88 85.9491 15.4H91.2291ZM117.238 6.28C119.824 6.28 121.838 7.14667 123.278 8.88C124.744 10.6133 125.478 12.96 125.478 15.92V29H116.638V17.04C116.638 15.9733 116.344 15.1333 115.758 14.52C115.198 13.88 114.438 13.56 113.478 13.56C112.491 13.56 111.718 13.88 111.158 14.52C110.598 15.1333 110.318 15.9733 110.318 17.04V29H101.438V6.44H110.318V9.88C111.011 8.81333 111.931 7.94667 113.078 7.28C114.251 6.61333 115.638 6.28 117.238 6.28ZM7.72 59L4.52 53.44H2.78V59H0.5V45.1H5.3C6.36667 45.1 7.26667 45.2867 8 45.66C8.74667 46.0333 9.3 46.5333 9.66 47.16C10.0333 47.7867 10.22 48.4867 10.22 49.26C10.22 50.1667 9.95333 50.9933 9.42 51.74C8.9 52.4733 8.09333 52.9733 7 53.24L10.44 59H7.72ZM2.78 51.62H5.3C6.15333 51.62 6.79333 51.4067 7.22 50.98C7.66 50.5533 7.88 49.98 7.88 49.26C7.88 48.54 7.66667 47.98 7.24 47.58C6.81333 47.1667 6.16667 46.96 5.3 46.96H2.78V51.62ZM13.4967 46.52C13.0834 46.52 12.7367 46.38 12.4567 46.1C12.1767 45.82 12.0367 45.4733 12.0367 45.06C12.0367 44.6467 12.1767 44.3 12.4567 44.02C12.7367 43.74 13.0834 43.6 13.4967 43.6C13.8967 43.6 14.2367 43.74 14.5167 44.02C14.7967 44.3 14.9367 44.6467 14.9367 45.06C14.9367 45.4733 14.7967 45.82 14.5167 46.1C14.2367 46.38 13.8967 46.52 13.4967 46.52ZM14.6167 47.98V59H12.3367V47.98H14.6167ZM26.7302 47.98L19.9702 64.18H17.6102L19.8502 58.82L15.5102 47.98H18.0502L21.1502 56.38L24.3702 47.98H26.7302ZM26.8908 53.44C26.8908 52.3333 27.1174 51.3533 27.5708 50.5C28.0374 49.6467 28.6641 48.9867 29.4508 48.52C30.2508 48.04 31.1308 47.8 32.0908 47.8C32.9574 47.8 33.7108 47.9733 34.3508 48.32C35.0041 48.6533 35.5241 49.0733 35.9108 49.58V47.98H38.2108V59H35.9108V57.36C35.5241 57.88 34.9974 58.3133 34.3308 58.66C33.6641 59.0067 32.9041 59.18 32.0508 59.18C31.1041 59.18 30.2374 58.94 29.4508 58.46C28.6641 57.9667 28.0374 57.2867 27.5708 56.42C27.1174 55.54 26.8908 54.5467 26.8908 53.44ZM35.9108 53.48C35.9108 52.72 35.7508 52.06 35.4308 51.5C35.1241 50.94 34.7174 50.5133 34.2108 50.22C33.7041 49.9267 33.1574 49.78 32.5708 49.78C31.9841 49.78 31.4374 49.9267 30.9308 50.22C30.4241 50.5 30.0108 50.92 29.6908 51.48C29.3841 52.0267 29.2308 52.68 29.2308 53.44C29.2308 54.2 29.3841 54.8667 29.6908 55.44C30.0108 56.0133 30.4241 56.4533 30.9308 56.76C31.4508 57.0533 31.9974 57.2 32.5708 57.2C33.1574 57.2 33.7041 57.0533 34.2108 56.76C34.7174 56.4667 35.1241 56.04 35.4308 55.48C35.7508 54.9067 35.9108 54.24 35.9108 53.48ZM39.6455 53.44C39.6455 52.3333 39.8721 51.3533 40.3255 50.5C40.7921 49.6467 41.4188 48.9867 42.2055 48.52C43.0055 48.04 43.8921 47.8 44.8655 47.8C45.5855 47.8 46.2921 47.96 46.9855 48.28C47.6921 48.5867 48.2521 49 48.6655 49.52V44.2H50.9655V59H48.6655V57.34C48.2921 57.8733 47.7721 58.3133 47.1055 58.66C46.4521 59.0067 45.6988 59.18 44.8455 59.18C43.8855 59.18 43.0055 58.94 42.2055 58.46C41.4188 57.9667 40.7921 57.2867 40.3255 56.42C39.8721 55.54 39.6455 54.5467 39.6455 53.44ZM48.6655 53.48C48.6655 52.72 48.5055 52.06 48.1855 51.5C47.8788 50.94 47.4721 50.5133 46.9655 50.22C46.4588 49.9267 45.9121 49.78 45.3255 49.78C44.7388 49.78 44.1921 49.9267 43.6855 50.22C43.1788 50.5 42.7655 50.92 42.4455 51.48C42.1388 52.0267 41.9855 52.68 41.9855 53.44C41.9855 54.2 42.1388 54.8667 42.4455 55.44C42.7655 56.0133 43.1788 56.4533 43.6855 56.76C44.2055 57.0533 44.7521 57.2 45.3255 57.2C45.9121 57.2 46.4588 57.0533 46.9655 56.76C47.4721 56.4667 47.8788 56.04 48.1855 55.48C48.5055 54.9067 48.6655 54.24 48.6655 53.48ZM58.8602 47.8C59.7002 47.8 60.4468 47.98 61.1002 48.34C61.7668 48.7 62.2868 49.2333 62.6602 49.94C63.0468 50.6467 63.2402 51.5 63.2402 52.5V59H60.9802V52.84C60.9802 51.8533 60.7335 51.1 60.2402 50.58C59.7468 50.0467 59.0735 49.78 58.2202 49.78C57.3668 49.78 56.6868 50.0467 56.1802 50.58C55.6868 51.1 55.4402 51.8533 55.4402 52.84V59H53.1602V44.2H55.4402V49.26C55.8268 48.7933 56.3135 48.4333 56.9002 48.18C57.5002 47.9267 58.1535 47.8 58.8602 47.8ZM67.8484 56.26L65.4284 61.78H63.9484L65.3684 56.26H67.8484ZM77.9759 45.1C79.4559 45.1 80.7493 45.3867 81.8559 45.96C82.9759 46.52 83.8359 47.3333 84.4359 48.4C85.0493 49.4533 85.3559 50.6867 85.3559 52.1C85.3559 53.5133 85.0493 54.74 84.4359 55.78C83.8359 56.82 82.9759 57.62 81.8559 58.18C80.7493 58.7267 79.4559 59 77.9759 59H73.4359V45.1H77.9759ZM77.9759 57.14C79.6026 57.14 80.8493 56.7 81.7159 55.82C82.5826 54.94 83.0159 53.7 83.0159 52.1C83.0159 50.4867 82.5826 49.2267 81.7159 48.32C80.8493 47.4133 79.6026 46.96 77.9759 46.96H75.7159V57.14H77.9759ZM96.7956 47.98V59H94.5156V57.7C94.1556 58.1533 93.6823 58.5133 93.0956 58.78C92.5223 59.0333 91.909 59.16 91.2556 59.16C90.389 59.16 89.609 58.98 88.9156 58.62C88.2356 58.26 87.6956 57.7267 87.2956 57.02C86.909 56.3133 86.7156 55.46 86.7156 54.46V47.98H88.9756V54.12C88.9756 55.1067 89.2223 55.8667 89.7156 56.4C90.209 56.92 90.8823 57.18 91.7356 57.18C92.589 57.18 93.2623 56.92 93.7556 56.4C94.2623 55.8667 94.5156 55.1067 94.5156 54.12V47.98H96.7956ZM101.284 49.62C101.671 49.0867 102.197 48.6533 102.864 48.32C103.544 47.9733 104.297 47.8 105.124 47.8C106.097 47.8 106.977 48.0333 107.764 48.5C108.551 48.9667 109.171 49.6333 109.624 50.5C110.077 51.3533 110.304 52.3333 110.304 53.44C110.304 54.5467 110.077 55.54 109.624 56.42C109.171 57.2867 108.544 57.9667 107.744 58.46C106.957 58.94 106.084 59.18 105.124 59.18C104.271 59.18 103.511 59.0133 102.844 58.68C102.191 58.3467 101.671 57.92 101.284 57.4V59H99.0039V44.2H101.284V49.62ZM107.984 53.44C107.984 52.68 107.824 52.0267 107.504 51.48C107.197 50.92 106.784 50.5 106.264 50.22C105.757 49.9267 105.211 49.78 104.624 49.78C104.051 49.78 103.504 49.9267 102.984 50.22C102.477 50.5133 102.064 50.94 101.744 51.5C101.437 52.06 101.284 52.72 101.284 53.48C101.284 54.24 101.437 54.9067 101.744 55.48C102.064 56.04 102.477 56.4667 102.984 56.76C103.504 57.0533 104.051 57.2 104.624 57.2C105.211 57.2 105.757 57.0533 106.264 56.76C106.784 56.4533 107.197 56.0133 107.504 55.44C107.824 54.8667 107.984 54.2 107.984 53.44ZM110.999 53.44C110.999 52.3333 111.225 51.3533 111.679 50.5C112.145 49.6467 112.772 48.9867 113.559 48.52C114.359 48.04 115.239 47.8 116.199 47.8C117.065 47.8 117.819 47.9733 118.459 48.32C119.112 48.6533 119.632 49.0733 120.019 49.58V47.98H122.319V59H120.019V57.36C119.632 57.88 119.105 58.3133 118.439 58.66C117.772 59.0067 117.012 59.18 116.159 59.18C115.212 59.18 114.345 58.94 113.559 58.46C112.772 57.9667 112.145 57.2867 111.679 56.42C111.225 55.54 110.999 54.5467 110.999 53.44ZM120.019 53.48C120.019 52.72 119.859 52.06 119.539 51.5C119.232 50.94 118.825 50.5133 118.319 50.22C117.812 49.9267 117.265 49.78 116.679 49.78C116.092 49.78 115.545 49.9267 115.039 50.22C114.532 50.5 114.119 50.92 113.799 51.48C113.492 52.0267 113.339 52.68 113.339 53.44C113.339 54.2 113.492 54.8667 113.799 55.44C114.119 56.0133 114.532 56.4533 115.039 56.76C115.559 57.0533 116.105 57.2 116.679 57.2C117.265 57.2 117.812 57.0533 118.319 56.76C118.825 56.4667 119.232 56.04 119.539 55.48C119.859 54.9067 120.019 54.24 120.019 53.48ZM125.673 46.52C125.26 46.52 124.913 46.38 124.633 46.1C124.353 45.82 124.213 45.4733 124.213 45.06C124.213 44.6467 124.353 44.3 124.633 44.02C124.913 43.74 125.26 43.6 125.673 43.6C126.073 43.6 126.413 43.74 126.693 44.02C126.973 44.3 127.113 44.6467 127.113 45.06C127.113 45.4733 126.973 45.82 126.693 46.1C126.413 46.38 126.073 46.52 125.673 46.52ZM126.793 47.98V59H124.513V47.98H126.793Z" fill="white"/>
</svg>
