<svg width="100" height="23" viewBox="0 0 100 23" fill="none" xmlns="http://www.w3.org/2000/svg">
<path d="M14.72 11.11C16 11.41 16.99 12.03 17.69 12.97C18.41 13.89 18.77 14.96 18.77 16.18C18.77 18.04 18.15 19.48 16.91 20.5C15.69 21.5 13.93 22 11.63 22H0.5V0.76H11.33C13.49 0.76 15.19 1.23 16.43 2.17C17.67 3.11 18.29 4.48 18.29 6.28C18.29 7.52 17.96 8.57 17.3 9.43C16.66 10.27 15.8 10.83 14.72 11.11ZM7.16 9.04H9.74C10.34 9.04 10.78 8.92 11.06 8.68C11.36 8.44 11.51 8.07 11.51 7.57C11.51 7.05 11.36 6.67 11.06 6.43C10.78 6.17 10.34 6.04 9.74 6.04H7.16V9.04ZM10.19 16.66C10.79 16.66 11.23 16.55 11.51 16.33C11.81 16.09 11.96 15.71 11.96 15.19C11.96 14.17 11.37 13.66 10.19 13.66H7.16V16.66H10.19ZM34.4155 22.21C31.8755 22.21 29.7755 21.62 28.1155 20.44C26.4755 19.24 25.5855 17.49 25.4455 15.19H32.5255C32.6255 16.41 33.1655 17.02 34.1455 17.02C34.5055 17.02 34.8055 16.94 35.0455 16.78C35.3055 16.6 35.4355 16.33 35.4355 15.97C35.4355 15.47 35.1655 15.07 34.6255 14.77C34.0855 14.45 33.2455 14.09 32.1055 13.69C30.7455 13.21 29.6155 12.74 28.7155 12.28C27.8355 11.82 27.0755 11.15 26.4355 10.27C25.7955 9.39 25.4855 8.26 25.5055 6.88C25.5055 5.5 25.8555 4.33 26.5555 3.37C27.2755 2.39 28.2455 1.65 29.4655 1.15C30.7055 0.649999 32.0955 0.399999 33.6355 0.399999C36.2355 0.399999 38.2955 0.999999 39.8155 2.2C41.3555 3.4 42.1655 5.09 42.2455 7.27H35.0755C35.0555 6.67 34.9055 6.24 34.6255 5.98C34.3455 5.72 34.0055 5.59 33.6055 5.59C33.3255 5.59 33.0955 5.69 32.9155 5.89C32.7355 6.07 32.6455 6.33 32.6455 6.67C32.6455 7.15 32.9055 7.55 33.4255 7.87C33.9655 8.17 34.8155 8.54 35.9755 8.98C37.3155 9.48 38.4155 9.96 39.2755 10.42C40.1555 10.88 40.9155 11.52 41.5555 12.34C42.1955 13.16 42.5155 14.19 42.5155 15.43C42.5155 16.73 42.1955 17.9 41.5555 18.94C40.9155 19.96 39.9855 20.76 38.7655 21.34C37.5455 21.92 36.0955 22.21 34.4155 22.21ZM61.2355 13.39C61.2355 13.85 61.2055 14.29 61.1455 14.71H50.4355C50.5355 16.17 51.1455 16.9 52.2655 16.9C52.9855 16.9 53.5055 16.57 53.8255 15.91H60.8755C60.6355 17.11 60.1255 18.19 59.3455 19.15C58.5855 20.09 57.6155 20.84 56.4355 21.4C55.2755 21.94 53.9955 22.21 52.5955 22.21C50.9155 22.21 49.4155 21.86 48.0955 21.16C46.7955 20.46 45.7755 19.46 45.0355 18.16C44.3155 16.84 43.9555 15.3 43.9555 13.54C43.9555 11.78 44.3155 10.25 45.0355 8.95C45.7755 7.63 46.7955 6.62 48.0955 5.92C49.4155 5.22 50.9155 4.87 52.5955 4.87C54.2755 4.87 55.7655 5.22 57.0655 5.92C58.3855 6.6 59.4055 7.58 60.1255 8.86C60.8655 10.14 61.2355 11.65 61.2355 13.39ZM54.4855 11.8C54.4855 11.24 54.3055 10.82 53.9455 10.54C53.5855 10.24 53.1355 10.09 52.5955 10.09C51.4155 10.09 50.7255 10.66 50.5255 11.8H54.4855ZM79.7218 13.39C79.7218 13.85 79.6918 14.29 79.6318 14.71H68.9218C69.0218 16.17 69.6318 16.9 70.7518 16.9C71.4718 16.9 71.9918 16.57 72.3118 15.91H79.3618C79.1218 17.11 78.6118 18.19 77.8318 19.15C77.0718 20.09 76.1018 20.84 74.9218 21.4C73.7618 21.94 72.4818 22.21 71.0818 22.21C69.4018 22.21 67.9018 21.86 66.5818 21.16C65.2818 20.46 64.2618 19.46 63.5218 18.16C62.8018 16.84 62.4418 15.3 62.4418 13.54C62.4418 11.78 62.8018 10.25 63.5218 8.95C64.2618 7.63 65.2818 6.62 66.5818 5.92C67.9018 5.22 69.4018 4.87 71.0818 4.87C72.7618 4.87 74.2518 5.22 75.5518 5.92C76.8718 6.6 77.8918 7.58 78.6118 8.86C79.3518 10.14 79.7218 11.65 79.7218 13.39ZM72.9718 11.8C72.9718 11.24 72.7918 10.82 72.4318 10.54C72.0718 10.24 71.6218 10.09 71.0818 10.09C69.9018 10.09 69.2118 10.66 69.0118 11.8H72.9718ZM93.6781 4.96C95.6181 4.96 97.1281 5.61 98.2081 6.91C99.3081 8.21 99.8581 9.97 99.8581 12.19V22H93.2281V13.03C93.2281 12.23 93.0081 11.6 92.5681 11.14C92.1481 10.66 91.5781 10.42 90.8581 10.42C90.1181 10.42 89.5381 10.66 89.1181 11.14C88.6981 11.6 88.4881 12.23 88.4881 13.03V22H81.8281V5.08H88.4881V7.66C89.0081 6.86 89.6981 6.21 90.5581 5.71C91.4381 5.21 92.4781 4.96 93.6781 4.96Z" fill="#FFC300"/>
</svg>
