<?xml version="1.0" ?>
<svg xmlns="http://www.w3.org/2000/svg" xmlns:xlink="http://www.w3.org/1999/xlink" version="1.1" viewBox="0 0 512 512" style="enable-background:new 0 0 512 512;" xml:space="preserve">
  <g id="_x34_4_x2C__Perception_x2C__Public_Relations_x2C__Opinion_x2C__Perception_x2C__Feedback">
    <g>
      <g>
        <path fill="#70dffa" d="M464.562,363.061c9.452-9.99,15.396-22.896,16.346-37.928c1.854-34.375-25.571-63.267-59.908-63.267     c-31.44,0-60.232,24.786-59.95,61.967c0.492,15.179,6.644,28.943,16.416,39.257c-10.569,5.847-19.859,13.765-27.304,23.259     c-10.058-20.372-26.564-37.148-47.128-47.459c22.121-15.082,36.677-40.476,36.677-69.209c0-45.596-37.072-83.712-83.712-83.712     c-46.314,0-83.712,37.75-83.712,83.712c0,28.737,14.559,54.132,36.683,69.213c-20.508,10.29-37.051,27.042-47.134,47.454     c-7.444-9.493-16.734-17.411-27.303-23.258C145.192,351.841,151,337.117,151,321.866c0-33.084-26.916-60-60-60s-60,26.916-60,60     c0,15.941,6.261,30.439,16.438,41.195C19.095,378.633,1,408.47,1,441.866V500.7c0,5.522,4.478,10,10,10     c393.793,1.35,359.059,0,490,0c5.522,0,10-4.478,10-10v-58.834C511,408.471,492.905,378.634,464.562,363.061z M382.237,331.744     l45.022-9.165l32.504,9.168c-4.41,17.293-20.116,30.119-38.762,30.119C402.353,361.866,386.646,349.038,382.237,331.744z      M192.956,260.524l71.302-14.514l54.911,15.493c4.955,38.471-25.154,71.891-63.169,71.891     C217.518,333.393,187.36,299.221,192.956,260.524z M52.383,332.278l47.627-9.699l29.922,8.438     c-4.151,17.659-20.025,30.85-38.931,30.85C72.546,361.866,56.978,349.3,52.383,332.278z M21,441.866     c0-29.356,17.972-55.167,45.105-65.43c15.469,7.086,33.641,7.399,49.795-0.002c16.246,6.179,29.659,18.249,37.542,33.79     c-1.599,7.281-2.441,14.829-2.441,22.552V490.7H21V441.866z M171,432.776c0-38.935,25.896-72.436,63.412-82.22     c13.691,3.658,28.557,3.906,43.177,0c37.525,9.785,63.412,43.294,63.412,82.22v59.09H171V432.776z M491,490.7H361v-57.924     c0-7.712-0.844-15.258-2.445-22.545c7.882-15.545,21.297-27.617,37.545-33.797c15.469,7.087,33.64,7.401,49.795,0.002     C473.028,386.699,491,412.511,491,441.866V490.7z"/>
        <path fill="#70dffa" d="M30,135.7h37.702l15.215,20.888c1.811,2.486,4.736,4.112,8.177,4.112c3.23-0.031,6.246-1.619,8.099-4.266l14.514-20.734     h120.47l13.467,20.492c1.775,2.701,4.747,4.378,7.978,4.501c3.21,0.124,6.311-1.311,8.296-3.885l16.287-21.108h117.498     l15.215,20.888c3.989,5.477,12.302,5.524,16.275-0.153l14.514-20.734H480c5.522,0,10-4.478,10-10v-115c0-5.522-4.478-10-10-10H30     c-5.522,0-10,4.478-10,10v115C20,131.222,24.478,135.7,30,135.7z M40,20.7h430v95c-33.506,0.034-32.124-0.138-33.9,0.302     c-4.702,1.159-5.346,3.375-15.262,17.491c-10.428-14.12-11.41-17.793-18.048-17.793c-135.151,0.006-127.724-0.034-128.644,0.07     c-5.891,0.682-6.57,3.99-17.494,17.715c-0.102-0.155-8.679-13.202-8.751-13.313c-1.833-2.754-4.946-4.472-8.331-4.472     c-22.623,0.002-130.603-0.009-131.391,0.016c-6.775,0.222-7.374,3.945-17.342,17.777c-4.092-5.61-9.553-13.134-10.136-13.892     c-1.998-2.586-4.99-3.901-7.912-3.901H40V20.7z"/>
        <path fill="#70dffa" d="M120,70.7c0-16.542-13.458-30-30-30s-30,13.458-30,30s13.458,30,30,30S120,87.242,120,70.7z"/>
        <path fill="#70dffa" d="M255,100.7c16.542,0,30-13.458,30-30s-13.458-30-30-30s-30,13.458-30,30S238.458,100.7,255,100.7z"/>
        <path fill="#70dffa" d="M410,100.7c16.542,0,30-13.458,30-30s-13.458-30-30-30s-30,13.458-30,30S393.458,100.7,410,100.7z"/>
      </g>
    </g>
  </g>
  <g id="Layer_1"/>
</svg>
