<svg width="33" height="32" viewBox="0 0 33 32" fill="none" xmlns="http://www.w3.org/2000/svg">
<g clip-path="url(#clip0_155_270)">
<path d="M31.5 14.5461H5.12135L10.0606 9.75642C10.6465 9.18847 10.6465 8.26745 10.0606 7.6994C9.47495 7.13145 8.52515 7.13145 7.93935 7.6994L0.43935 14.9721C-0.14645 15.5401 -0.14645 16.4611 0.43935 17.0291L7.93935 24.3019C8.23235 24.5859 8.61615 24.728 9.00005 24.728C9.38395 24.728 9.76785 24.5859 10.0606 24.3019C10.6465 23.7339 10.6465 22.8129 10.0606 22.2449L5.12135 17.4552H31.5C32.3284 17.4552 33 16.804 33 16.0007C33 15.1974 32.3284 14.5461 31.5 14.5461Z" fill="black"/>
</g>
<defs>
<clipPath id="clip0_155_270">
<rect width="33" height="32" fill="white"/>
</clipPath>
</defs>
</svg>
