<svg width="33" height="32" viewBox="0 0 33 32" fill="none" xmlns="http://www.w3.org/2000/svg">
<g clip-path="url(#clip0_155_272)">
<path d="M1.49995 17.4539L27.8787 17.4539L22.9393 22.2436C22.3535 22.8115 22.3535 23.7325 22.9393 24.3006C23.525 24.8685 24.4749 24.8685 25.0607 24.3006L32.5607 17.0279C33.1465 16.4599 33.1465 15.5389 32.5607 14.9709L25.0607 7.69813C24.7677 7.4141 24.3839 7.27204 24 7.27204C23.6161 7.27204 23.2322 7.4141 22.9394 7.69813C22.3536 8.26608 22.3536 9.1871 22.9394 9.75514L27.8787 14.5448L1.49995 14.5448C0.671552 14.5448 -4.87579e-05 15.196 -4.88281e-05 15.9993C-4.88983e-05 16.8026 0.671551 17.4539 1.49995 17.4539Z" fill="black"/>
</g>
<defs>
<clipPath id="clip0_155_272">
<rect width="33" height="32" fill="white" transform="translate(33 32) rotate(-180)"/>
</clipPath>
</defs>
</svg>
